<svg height="41.272" viewBox="0 96 886 825.44" width="44.3" version="1.1" id="svg4" xmlns="http://www.w3.org/2000/svg"><path d="M758.733 920.52 492.341 654.696q-29.434 24.26-69.11 37.934-39.677 13.674-85.324 13.674-112.119 0-189.864-77.826-77.746-77.826-77.746-187.783t77.827-187.783q77.826-77.826 188.283-77.826 110.456 0 187.782 77.826 77.327 77.826 77.327 187.933 0 43.98-13.152 83.133-13.153 39.152-39.457 73.587L816.3 862.954zM337.106 627.086q77.66 0 131.425-54.533 53.766-54.532 53.766-131.858 0-77.326-53.849-131.858-53.849-54.533-131.342-54.533-78.326 0-132.958 54.533-54.632 54.532-54.632 131.858 0 77.326 54.55 131.858 54.548 54.533 133.04 54.533zm-31.482-78.217v-79.174h-78.89v-60h79.173v-78.74h60v78.74h78.74v60.283h-78.74v78.89z" id="path2"/></svg>