<svg xmlns="http://www.w3.org/2000/svg" xml:space="preserve" viewBox="0 0 14 16">
  <path fill="#fff" d="M1.7 15.63V.37h7.02l3.58 3.58v11.68z"/>
  <path d="m8.56.73 3.37 3.37v11.17H2.07V.73h6.5m.3-.73H1.34v16h11.33V3.8z"/>
  <path fill="#fff" d="M12.3 15.63H1.7V.37h7.02l.08.08v3.42h3.42l.08.08z"/>
  <path d="M8.43.73v3.5h3.5v11.04H2.07V.73h6.36M8.87 0H1.34v16h11.33V3.8l-.3-.3h-3.2V.3z"/>
  <g stroke-width="21.79">
    <path d="M11.19 3.3H9.4V1.5l1.78 1.73z"/>
    <path d="m9.78 2.37.57.56h-.57v-.56m-.23-1.25h-.5v2.54h2.5v-.58z"/>
  </g>
  <g fill="#ed1c24" stroke-width="212.65">
    <path d="M13.64 12.32H.37V6.96l.67-.68v.86h11.93v-.86l.67.68z"/>
    <path d="m13.27 7 .08.08v4.94H.66V7.08L.74 7v.43h12.53V7m-.6-1.44v1.28H1.34V5.56L.07 6.84v5.78h13.87V6.84z"/>
  </g>
  <path fill="none" d="M1.72 7.95H12.4v4.03H1.72z"/>
  <g fill="#fff" stroke-width="21.79">
    <path d="M2.14 11.73V7.91h1.4q.31 0 .6.07.28.06.49.21.21.15.33.4.13.24.13.6 0 .35-.13.6-.12.25-.33.42-.21.15-.49.24-.27.07-.57.07h-.41v1.21zm1.02-2h.36q.3 0 .44-.15.15-.14.15-.4t-.16-.36-.45-.1h-.34zM5.72 11.73V7.91h1.12q.44 0 .8.11.36.1.62.34t.4.58q.15.36.15.87t-.15.87-.4.6q-.25.23-.6.34-.35.11-.76.11zm1-.8h.07q.2 0 .38-.05.18-.06.31-.18.14-.12.22-.34t.07-.55-.07-.55-.22-.33q-.13-.12-.3-.16-.19-.04-.4-.04h-.05zM9.49 11.73V7.91h2.49v.85H10.5v.73h1.27v.85H10.5v1.4z"/>
  </g>
</svg>
