<svg xmlns="http://www.w3.org/2000/svg" xmlns:xlink="http://www.w3.org/1999/xlink" xml:space="preserve" width="13mm" height="13mm" viewBox="0 0 13 13">
  <defs>
    <linearGradient id="a">
      <stop offset="0" style="stop-color:#b9b9b9;stop-opacity:1"/>
      <stop offset="1" style="stop-color:#777;stop-opacity:1"/>
    </linearGradient>
    <linearGradient xlink:href="#a" id="b" x1="10.264" x2="9.61" y1="4.5" y2="4.729" gradientTransform="translate(.696 .858)" gradientUnits="userSpaceOnUse"/>
  </defs>
  <path d="M.243 4.288h12.125v7.472H.243Z" style="fill:#fff;fill-opacity:1;stroke:#151515;stroke-width:.093326;stroke-linecap:round;stroke-linejoin:miter;stroke-dasharray:none;stroke-opacity:1;paint-order:normal"/>
  <g stroke="none" aria-label="LA" style="fill:none;stroke:#000;stroke-width:0">
    <path d="M2.343 5.264v3.467h1.814v.656h-2.63V5.264Z" style="fill:#000" transform="translate(-.124 .808)"/>
    <path d="m4.598 9.387 1.367-4.123h.849l1.372 4.123h-.843l-.276-.992H5.69l-.275.992ZM5.86 7.79h1.036l-.512-1.83h-.011Z" style="fill:red;stroke:red" transform="translate(-.124 .808)"/>
  </g>
  <path d="M8.917 1.516a1.69 1.69 0 0 0-1.113.002c-.43.142-.731.39-.904.682a1.587 1.587 0 0 0-.207.883c.02.554.255 1.005.255 1.005l-.005-.01.075.205c.22.017.549.016.792 0l-.262-.48a.345.345 0 0 0-.006-.011s-.17-.358-.185-.735a.931.931 0 0 1 .113-.517c.089-.15.236-.287.543-.39.597-.197.902.023 1.154.317a2.105 2.105 0 0 1 .375.68l2.399 6.102-3.65 1.507a.333.333 0 0 0 .255.616l3.95-1.633a.333.333 0 0 0 .183-.43L10.16 2.905l.008.025s-.138-.474-.498-.894a1.784 1.784 0 0 0-.754-.52z" style="color:#000;fill:url(#b);fill-opacity:1;fill-rule:evenodd;stroke:#000;stroke-width:.1;stroke-linecap:round;stroke-linejoin:round;stroke-dasharray:none;stroke-opacity:1"/>
</svg>
