<!--Generator: Adobe Illustrator 24.2.3, SVG Export Plug-In . SVG Version: 6.00 Build 0)--><svg version="1.1" id="Layer_1" x="0" y="0" xml:space="preserve" width="260" height="60" xmlns="http://www.w3.org/2000/svg"><style type="text/css" id="style1">.st0{fill:#1d9bf0}</style><g id="Dark_Blue" transform="scale(.65 .15)"><rect style="fill:#1d9bf0;fill-opacity:1;fill-rule:evenodd;stroke:none;stroke-width:9.54644;stroke-linecap:round;stroke-miterlimit:12;stroke-opacity:1" id="rect2" width="400" height="400" x="0" y="0" ry="70.655" rx="19.362"/></g><g id="Logo__x2014__FIXED" transform="matrix(.19833 0 0 .19833 -4.35 -9.533)"><path d="M153.6 301.6c94.3 0 145.9-78.2 145.9-145.9 0-2.2 0-4.4-.1-6.6 10-7.2 18.7-16.3 25.6-26.6-9.2 4.1-19.1 6.8-29.5 8.1 10.6-6.3 18.7-16.4 22.6-28.4-9.9 5.9-20.9 10.1-32.6 12.4-9.4-10-22.7-16.2-37.4-16.2-28.3 0-51.3 23-51.3 51.3 0 4 .5 7.9 1.3 11.7-42.6-2.1-80.4-22.6-105.7-53.6-4.4 7.6-6.9 16.4-6.9 25.8 0 17.8 9.1 33.5 22.8 42.7-8.4-.3-16.3-2.6-23.2-6.4v.7c0 24.8 17.7 45.6 41.1 50.3-4.3 1.2-8.8 1.8-13.5 1.8-3.3 0-6.5-.3-9.6-.9 6.5 20.4 25.5 35.2 47.9 35.6-17.6 13.8-39.7 22-63.7 22-4.1 0-8.2-.2-12.2-.7 22.6 14.4 49.6 22.9 78.5 22.9" id="path1" style="fill:#fff"/></g><path style="font-weight:500;font-size:43.5122px;line-height:27.1951px;font-family:&quot;Rounded Mplus 1c&quot;;-inkscape-font-specification:&quot;Rounded Mplus 1c, Medium&quot;;letter-spacing:0;word-spacing:0;fill:#fff;stroke-width:1.0878px" d="M105.975 15.11q.696-.652 1.654-.565.957.087 1.566.783.653.653.61 1.61-.697 14.533-6.484 21.408-5.787 6.875-18.84 8.964-.915.13-1.698-.392-.74-.522-.914-1.436-.174-.827.305-1.523.522-.74 1.392-.914 11.488-1.958 16.23-7.701 4.787-5.787 5.44-18.667.043-.957.74-1.566zM78.258 28.992q-1-4.047-2.654-10.051-.261-.87.217-1.654.479-.783 1.393-1 .957-.175 1.74.304.827.479 1.088 1.392Q82 24.901 82.783 28.034q.218.913-.304 1.74-.479.783-1.393 1.001-.957.218-1.784-.305-.826-.522-1.044-1.479zm16.187-.218q-.48.827-1.436 1.001-.958.174-1.784-.348-.827-.522-1.045-1.48-1.131-4.612-2.741-10.486-.261-.914.218-1.697.522-.783 1.436-1 .957-.218 1.784.304.87.479 1.13 1.436 1.567 5.657 2.742 10.486.218.958-.304 1.784zm26.455 4.352q-.87.174-1.567-.348-.696-.523-.87-1.436-.13-.87.348-1.567.522-.696 1.393-.87 8.18-1.48 15.838-5.178 7.702-3.699 13.14-8.79.61-.609 1.48-.565.914 0 1.48.653.609.696.565 1.61-.043.913-.696 1.522-4.569 4.308-11.139 7.876-.261.13-.174.479.043.174.043.609V45.7q0 1-.74 1.74-.695.74-1.696.74t-1.74-.74q-.697-.74-.697-1.74V28.904q0-.392-.348-.218-7.092 3.133-14.62 4.439zm42.772-.436q-.957 0-1.61-.652-.652-.653-.652-1.61 0-.957.652-1.61.653-.653 1.61-.653h31.155q.957 0 1.61.653.653.653.653 1.61 0 .957-.653 1.61-.653.652-1.61.652zm51.867 14.882q-.696.696-1.697.696-1 0-1.697-.696-.696-.697-.696-1.697V14.98q0-1 .696-1.697.696-.696 1.697-.696 1 0 1.697.696.696.696.696 1.697v9.703q0 .392.305.435 10.878 2.655 21.582 6.484.87.304 1.262 1.175.435.87.13 1.784-.304.87-1.175 1.305-.826.391-1.697.087-10.007-3.612-20.059-6.135-.348-.087-.348.26v15.796q0 1-.696 1.697z" id="text1" aria-label="ツイート"/></svg>