<svg width="260" height="60" version="1.1" id="svg4" xml:space="preserve" xmlns="http://www.w3.org/2000/svg"><defs id="defs1"><style id="style1">.cls-1{fill:#06c755}</style></defs><rect style="fill:#06c755;fill-opacity:1;fill-rule:evenodd;stroke-width:2.01639;stroke-linecap:round;stroke-miterlimit:12" id="rect4" width="260" height="60" x="0" y="0" rx="9.77" ry="8.61"/><g id="Layer_2" data-name="Layer 2" transform="matrix(.43716 0 0 .43716 8.244 .375)"><g id="LINE_LOGO" data-name="LINE LOGO" transform="matrix(.4876 0 0 .4876 -5.716 -7.729)"><path d="M266.66 144.92c0-47.74-47.86-86.58-106.69-86.58S53.28 97.18 53.28 144.92c0 42.8 38 78.65 89.22 85.42 3.48.75 8.21 2.29 9.4 5.26 1.08 2.7.71 6.93.35 9.65 0 0-1.25 7.53-1.52 9.13-.47 2.7-2.15 10.55 9.24 5.76 11.39-4.79 61.44-36.18 83.82-61.95 15.46-16.95 22.87-34.19 22.87-53.27z" id="path1" style="fill:#fff"/><path class="cls-1" d="M231.16 172.49h-30a2 2 0 0 1-2-2v-46.55a2 2 0 0 1 2-2h30a2 2 0 0 1 2 2v7.57a2 2 0 0 1-2 2h-20.37v7.85h20.37a2 2 0 0 1 2 2V151a2 2 0 0 1-2 2h-20.37v7.86h20.37a2 2 0 0 1 2 2v7.56a2 2 0 0 1-2 2.07z" id="path2"/><path class="cls-1" d="M120.29 172.49a2 2 0 0 0 2-2v-7.56a2 2 0 0 0-2-2H99.92v-37a2 2 0 0 0-2-2h-7.6a2 2 0 0 0-2 2v46.53a2 2 0 0 0 2 2h30z" id="path3"/><rect class="cls-1" x="128.73" y="121.85" width="11.64" height="50.64" rx="2.04" id="rect3"/><path class="cls-1" d="M189.84 121.85h-7.56a2 2 0 0 0-2 2v27.66l-21.3-28.77a1.2 1.2 0 0 0-.17-.21l-.12-.12-.11-.09h-.06l-.11-.08h-.06l-.11-.06h-8.47a2 2 0 0 0-2 2v46.56a2 2 0 0 0 2 2h7.57a2 2 0 0 0 2-2v-27.93l21.33 28.8a2 2 0 0 0 .52.52l.12.08h.06l.1.05H181.78a2.42 2.42 0 0 0 .54.07h7.52a2 2 0 0 0 2-2v-46.44a2 2 0 0 0-2-2.04z" id="path4"/></g></g><path style="font-weight:700;font-size:33.3333px;line-height:39.0627px;font-family:&quot;Mgen+ 1p&quot;;-inkscape-font-specification:&quot;Mgen+ 1p, Bold&quot;;letter-spacing:0;word-spacing:0;fill:#fff;stroke-width:1px" d="M80.897 18.742v20.476h10.71v3.873H76.079V18.742Zm15.788 24.35v-24.35h5.143v24.35zm11.067 0v-24.35h4.558l9.993 16.57h.065v-16.57h4.59v24.35h-4.59l-9.993-16.57h-.065v16.57zm29.102-20.574v5.957h9.798v3.581h-9.798v7.26h10.482v3.775h-15.137V18.742h15.137v3.776zm40.365 9.473-3.45 1.628q-1.303-2.637-2.833-5.306l3.45-1.726q1.53 2.832 2.833 5.404zm5.403-1.074-3.515 1.66q-1.498-2.897-2.898-5.371l3.516-1.79q1.204 2.18 2.897 5.5zm-30.696-11.491q13.476 0 27.376-.684l.195 4.004q-8.04.651-12.077 3.548-4.036 2.898-4.036 7.194 0 3.549 2.246 5.567 2.246 1.986 5.99 1.986 1.92 0 4.069-.424l.488 4.07q-2.507.455-4.785.455-5.827 0-9.31-3.027-3.483-3.028-3.483-8.203 0-3.256 1.888-6.055 1.92-2.8 5.436-4.655v-.065q-7.292.293-13.997.293zm41.666 3.353-2.832 2.604q-2.669-2.995-5.794-6.087l2.962-2.604q3.06 3.092 5.664 6.087zm-9.082 5.534h7.878v10.514q.814 1.367 1.953 2.018 1.172.651 3.776.944 2.604.293 7.715.293h8.887l-.196 3.679h-8.821q-6.576 0-9.961-.717-3.353-.683-5.013-2.408-1.986 1.855-4.72 3.645l-2.019-3.483q2.312-1.464 4.2-3.06v-7.747h-3.679zm9.375 2.767V27.53h8.496v-3.157h-7.845v-3.548h4.59q-1.302-2.604-2.148-4.004l3.743-1.01q1.367 2.182 2.637 5.014h2.376q1.367-2.41 2.54-5.078l3.873.879q-.944 2.18-2.018 4.199h3.418v3.548h-6.836v3.06l-.033.032v.065h7.39v3.549h-6.771q3.45 3.645 6.543 8.007l-3.353 2.344q-3.06-4.46-5.502-7.259-2.604 4.688-8.3 7.129l-2.54-3.32q6.153-2.41 7.683-6.901zm43.75 9.57q3.58-1.4 3.58-5.143 0-2.311-1.627-3.483-1.595-1.172-5.143-1.172-3.516 0-6.608.781-3.06.781-6.803 2.67l-1.53-3.093 15.592-9.408v-.032h-13.314V18.09h21.224l.033 3.776-10.938 6.055.033.033q2.213-.424 4.069-.424 4.752 0 7.194 1.986 2.474 1.953 2.474 5.567 0 4.72-3.45 7.324-3.419 2.571-9.734 2.571-4.98 0-7.454-1.53-2.442-1.497-2.442-4.362 0-2.213 2.084-3.71 2.116-1.53 5.794-1.53 3.809 0 5.501 1.27 1.726 1.269 1.726 3.743-.033.878-.26 1.79zm-4.101.749q.553-1.237.586-2.084 0-1.041-.814-1.562-.781-.554-2.865-.554-1.66 0-2.539.554-.879.553-.879 1.334 0 2.344 5.664 2.344h.423q.293-.032.424-.032z" id="text4" aria-label="LINEで送る"/></svg>