<svg version="1.1" id="svg4" width="260" height="60" xmlns="http://www.w3.org/2000/svg"><defs id="defs1"><style id="style1">.cls-1{fill:#fff}</style></defs><rect style="fill:#00a4de;fill-opacity:1;fill-rule:evenodd;stroke:none;stroke-width:11.2926;stroke-linecap:round;stroke-miterlimit:12" id="rect4" width="260" height="60" x="0" y="0" ry="10.936" rx="12.058"/><path class="cls-1" d="M33.615 30.725a7.459 7.459 0 0 0-5.225-2.36 8.56 8.56 0 0 0 4.47-2.392 6.294 6.294 0 0 0 1.353-4.25 7.616 7.616 0 0 0-1.039-3.776 6.767 6.767 0 0 0-2.644-2.58 11.299 11.299 0 0 0-3.65-1.165 54.794 54.794 0 0 0-7.428-.346H10.83v31.472h8.906a57.689 57.689 0 0 0 7.711-.378 12.589 12.589 0 0 0 3.966-1.227 7.27 7.27 0 0 0 3.147-2.958 9.001 9.001 0 0 0 1.07-4.438 8.088 8.088 0 0 0-2.014-5.602zM18.79 20.843h1.857a8.718 8.718 0 0 1 4.312.723 2.77 2.77 0 0 1 1.101 2.487 2.58 2.58 0 0 1-1.196 2.392 9.442 9.442 0 0 1-4.343.692h-1.73zm7.302 18.19a8.78 8.78 0 0 1-4.312.756h-3.147v-7.05h3.147a8.214 8.214 0 0 1 4.28.787 3.147 3.147 0 0 1 1.165 2.77 2.738 2.738 0 0 1-1.133 2.738z" id="path1" style="stroke-width:3.14724"/><circle class="cls-1" cx="44.599" cy="41.331" id="circle1" r="3.997" style="stroke-width:3.14724"/><path class="cls-1" d="M41.137 13.856h6.924v20.992h-6.924z" id="path2" style="stroke-width:3.14724"/><path d="M9.255 7.561h232.896v44.062H9.255Z" id="path3" style="stroke-width:3.14724;fill:none"/><path class="cls-1" d="M87.779 21.126a5.193 5.193 0 0 0-.252.724s0 .409-.252.912A32.007 32.007 0 0 1 67.48 45.548a18.695 18.695 0 0 0-4.406-5.822 24.17 24.17 0 0 0 17.436-17.09H65.56a33.36 33.36 0 0 0-5.287.22v-6.294a30.591 30.591 0 0 0 5.382.441h14.918a23.07 23.07 0 0 0 2.675 0v-.252a14.351 14.351 0 0 0-1.416-2.297l3.147-.944a20.866 20.866 0 0 1 2.958 5.539l-1.573.22zm1.73-8.844a15.359 15.359 0 0 1 2.707 5.256l-2.706.976a20.898 20.898 0 0 0-2.707-5.35zm10.135 9.662a43.526 43.526 0 0 1 3.367 8.78l-5.413 1.638a44.219 44.219 0 0 0-3.147-9.002zm20.205.598a13.565 13.565 0 0 0-.535 2.109 31.22 31.22 0 0 1-4.343 11.235 25.178 25.178 0 0 1-7.27 7.05 47.555 47.555 0 0 1-4.186 2.33 17.719 17.719 0 0 0-3.808-4.879 19.639 19.639 0 0 0 12.904-11.928 24.36 24.36 0 0 0 1.542-7.333zm-12.589-2.046a35.532 35.532 0 0 1 3.368 8.466l-5.382 1.606a40.914 40.914 0 0 0-3.147-8.718zm34.148-5.916a4.752 4.752 0 0 0-.41.88s0 .316-.251.504l-.315.724-.692 1.48h8.718a5.822 5.822 0 0 0 2.58-.378l2.864 2.832a8.56 8.56 0 0 0-1.007 2.455 36.665 36.665 0 0 1-7.175 13.754 35.847 35.847 0 0 1-12.778 8.938 16.02 16.02 0 0 0-4.155-5.288 30.434 30.434 0 0 0 11.582-7.08 24.36 24.36 0 0 0 5.791-9.915h-9.221a32.48 32.48 0 0 1-7.868 8.718 17.31 17.31 0 0 0-4.942-4.06 27.318 27.318 0 0 0 9.222-10.575 13.218 13.218 0 0 0 1.48-4.154zm22.377 7.836c-2.864 0-4.092 0-5.634.189v-6.137a43.275 43.275 0 0 0 5.728.283h18.884a6.546 6.546 0 0 0 2.392-.346l3.493 3.745a7.963 7.963 0 0 0-1.574 2.203 46.548 46.548 0 0 1-11.015 13.282c1.48 1.762 2.455 3.147 4.123 5.287l-5.193 4.06a58.539 58.539 0 0 0-6.798-9.096 51.71 51.71 0 0 0-6.987-6.892l4.752-3.336a53.503 53.503 0 0 1 6.012 5.508 38.333 38.333 0 0 0 5.413-5.477 23.856 23.856 0 0 0 2.203-3.367zm26.437 3.745a48.971 48.971 0 0 0 7.112.315h16.586a56.65 56.65 0 0 0 7.113-.315v6.578a67.288 67.288 0 0 0-7.301 0h-23.51zm50.355-11.581a4.973 4.973 0 0 0-.409.88s0 .316-.251.504l-.315.724-.693 1.48h8.718a5.79 5.79 0 0 0 2.581-.378l2.864 2.832a8.529 8.529 0 0 0-1.007 2.455 36.665 36.665 0 0 1-7.081 13.66 35.847 35.847 0 0 1-12.778 8.937 16.114 16.114 0 0 0-4.217-5.256 30.37 30.37 0 0 0 11.644-7.08 24.36 24.36 0 0 0 5.791-9.852h-9.221a32.417 32.417 0 0 1-7.868 8.718 17.278 17.278 0 0 0-4.941-4.154 27.287 27.287 0 0 0 9.221-10.575 13.155 13.155 0 0 0 1.48-4.154z" id="path4" style="stroke-width:3.14724"/></svg>