<svg width="260" height="60" fill="currentColor" class="bi bi-mastodon" version="1.1" id="svg4" xmlns="http://www.w3.org/2000/svg"><rect style="fill:#5c4de3;fill-opacity:1;fill-rule:evenodd;stroke-width:2.982;stroke-linecap:round;stroke-miterlimit:12" id="rect1" x="0" y="0" rx="5.646" ry="5.733" width="260" height="60"/><path d="M52.518 44.768c7.153-.852 13.376-5.234 14.157-9.236 1.235-6.309 1.135-15.395 1.135-15.395 0-12.312-8.11-15.924-8.11-15.924C55.611 2.343 48.59 1.56 41.294 1.5h-.177c-7.298.06-14.316.844-18.404 2.714 0 0-8.107 3.608-8.107 15.924l-.007 2.349c-.014 2.27-.025 4.79.039 7.419.294 12.042 2.22 23.914 13.411 26.859 5.16 1.359 9.59 1.642 13.16 1.447 6.468-.355 10.102-2.295 10.102-2.295l-.213-4.673s-4.623 1.455-9.818 1.277c-5.144-.177-10.573-.553-11.407-6.84a12.823 12.823 0 0 1-.117-1.76s5.053 1.227 11.453 1.518c3.914.178 7.583-.227 11.312-.67zm5.723-8.764h-5.936V21.528c0-3.048-1.291-4.595-3.87-4.595-2.853 0-4.283 1.834-4.283 5.468v7.922h-5.904v-7.926c0-3.633-1.43-5.468-4.283-5.468-2.58 0-3.87 1.547-3.87 4.599V36h-5.937V21.091c0-3.048.78-5.467 2.342-7.26 1.618-1.79 3.733-2.71 6.362-2.71 3.037 0 5.336 1.164 6.858 3.488l1.48 2.466 1.48-2.466c1.521-2.324 3.82-3.488 6.861-3.488 2.626 0 4.74.92 6.355 2.71 1.568 1.793 2.345 4.212 2.345 7.26z" id="path2" style="fill:#fff;fill-opacity:1;stroke-width:3.54807"/><path style="font-size:40.7406px;line-height:30.5555px;font-family:&quot;Gen Jyuu Gothic&quot;;-inkscape-font-specification:&quot;Gen Jyuu Gothic, @wght=400&quot;;font-variation-settings:&quot;wght&quot;400;letter-spacing:0;word-spacing:0;fill:#fff;stroke-width:1.22222px" d="M80.534 43.5q-.597.597-1.472.597T77.55 43.5q-.636-.636-.636-1.511V16.446q0-.955.676-1.631.716-.716 1.671-.716h.756q1.034 0 1.91.636.875.597 1.233 1.592l4.695 12.93q.358 1.074.994 3.103.677 1.99.955 2.865.04.12.12.12.119 0 .159-.12.318-.915.915-2.904.636-2.03.994-3.064l4.655-12.93q.319-.995 1.194-1.592.875-.636 1.91-.636h.795q.955 0 1.632.716.716.676.716 1.631V41.91q0 .915-.677 1.552-.636.636-1.551.636-.915 0-1.552-.636-.637-.637-.637-1.552V29.257q0-2.467.597-9.19 0-.08-.08-.08-.079 0-.079.08l-2.387 6.843-4.735 12.93q-.198.597-.755.995-.557.358-1.234.358-.636 0-1.193-.358-.518-.398-.756-.995L83.12 26.91l-2.347-6.843q0-.08-.12-.08-.08 0-.04.08.558 7.52.558 9.19V41.99q0 .875-.637 1.511zm35.847 1.114q-3.62 0-6.923-1.989-.676-.398-.795-1.193v-.319q0-.597.358-1.074.477-.637 1.233-.756h.318q.597 0 1.075.318 2.387 1.472 4.853 1.472 1.91 0 2.905-.835 1.034-.836 1.034-2.188 0-.478-.159-.876-.16-.437-.637-.795-.437-.398-.755-.637-.279-.239-1.075-.597-.795-.358-1.114-.477-.278-.12-1.233-.478-1.353-.517-2.308-.994-.915-.478-1.989-1.234-1.034-.795-1.591-1.87-.518-1.074-.518-2.426 0-2.865 2.149-4.695 2.188-1.87 5.809-1.87 3.023 0 5.808 1.631.637.398.756 1.154v.278q0 .557-.358 1.035-.477.597-1.233.716-.16.04-.358.04-.557 0-1.035-.279-1.79-.955-3.5-.955-1.751 0-2.666.756-.916.756-.916 1.99 0 .517.24.994.278.438.596.756.358.279 1.034.637.677.318 1.114.517.478.16 1.393.517.239.08.398.12 1.193.477 1.91.795.716.279 1.71.915 1.035.597 1.592 1.234.557.636.955 1.67.437.995.437 2.189 0 2.944-2.268 4.894-2.267 1.91-6.246 1.91zm21.007 0q-3.62 0-5.212-2.029-1.591-2.069-1.591-5.808V25.756q0-.318-.319-.318h-1.193q-.756 0-1.273-.518-.478-.517-.478-1.233 0-.756.478-1.273.517-.557 1.273-.597l1.392-.12q.318 0 .318-.318l.359-3.899q.08-.835.676-1.392.636-.597 1.472-.597.796 0 1.353.597.597.557.597 1.392v3.9q0 .318.318.318h3.66q.756 0 1.313.557.557.517.557 1.313 0 .756-.557 1.313-.557.557-1.313.557h-3.66q-.318 0-.318.318v11.06q0 2.03.755 3.064.796.995 2.507.995.318 0 .716-.04.16-.04.318-.04.557 0 1.035.278.597.319.756.995.08.239.08.477 0 .478-.24.916-.397.676-1.113.835-1.433.318-2.666.318zm15.914 0q-4.257 0-6.763-3.063-2.507-3.103-2.507-8.634 0-5.251 2.825-8.514 2.865-3.302 6.803-3.302 1.711 0 3.024.597 1.353.557 2.785 1.75.04.04.12.04.079-.04.079-.159l-.199-3.382V13.98q0-.994.676-1.67.717-.677 1.671-.677.995 0 1.671.676.677.677.677 1.671v28.208q0 .796-.557 1.353-.557.557-1.353.557-.835 0-1.472-.517-.637-.557-.756-1.393l-.08-.557q0-.04-.08-.04-.079 0-.119.04-2.944 2.984-6.445 2.984zm1.074-3.859q2.626 0 4.894-2.506.199-.2.199-.518V27.347q0-.278-.199-.477-2.188-1.83-4.734-1.83-2.388 0-4.019 2.148-1.631 2.109-1.631 5.65 0 3.82 1.432 5.888 1.433 2.03 4.058 2.03zm20.808 2.666q-.676.676-1.67.676-.955 0-1.632-.676-.676-.677-.676-1.631V23.607q0-.795.557-1.352t1.353-.557q.835 0 1.432.557.636.517.716 1.352l.12 1.114q.04.08.079.08.08 0 .12-.04 1.79-1.75 3.5-2.705 1.751-.955 3.86-.955 6.883 0 6.883 8.912V41.75q0 .994-.677 1.67-.676.677-1.67.677-.956 0-1.672-.676-.676-.677-.676-1.671V30.57q0-2.904-.915-4.138-.876-1.273-2.865-1.273-1.432 0-2.586.676-1.154.637-2.705 2.149-.2.239-.2.517V41.79q0 .954-.676 1.63zm26.14.278q-.876.915-2.228.915-1.313 0-2.228-.915-.876-.915-.876-2.307 0-1.433.876-2.387.915-.995 2.228-.995 1.352 0 2.228.995.915.954.915 2.387 0 1.392-.915 2.307zm6.684 10.146q-.915 0-1.711-.12-.756-.12-1.154-.795-.239-.438-.239-.915 0-.279.08-.518.16-.676.796-1.074.557-.318 1.233-.318h.398q1.512 0 2.069-1.035.597-.994.597-3.103V24.125q0-.955.676-1.632.716-.676 1.67-.676.995 0 1.672.676.676.677.676 1.632v21.763q0 7.957-6.763 7.957zm6.524-37.001q-.835.756-2.148.756-1.273 0-2.109-.756-.835-.796-.835-1.99 0-1.273.835-2.028.836-.756 2.109-.756 1.313 0 2.148.756.876.755.876 2.029 0 1.193-.876 1.989zm11.14 35.767q-.676.677-1.67.677-.955 0-1.632-.677-.676-.676-.676-1.67V23.686q0-.796.557-1.353.557-.557 1.353-.557.835 0 1.432.557.636.518.756 1.353l.08.477q.04.08.079.08.08 0 .12-.04 3.58-2.984 6.843-2.984 4.217 0 6.524 3.104 2.348 3.063 2.348 8.315 0 2.785-.796 5.132-.796 2.308-2.148 3.82-1.353 1.472-3.104 2.307-1.71.836-3.62.836-2.825 0-5.65-2.348-.08-.04-.159 0-.08.04-.08.12l.12 3.54v4.894q0 .995-.676 1.671zm5.57-11.736q2.507 0 4.098-2.149 1.592-2.188 1.592-6.008 0-7.599-5.252-7.599-2.387 0-5.132 2.547-.2.199-.2.477v10.384q0 .279.2.478 2.307 1.87 4.694 1.87z" id="text1" aria-label="Mstdn.jp"/></svg>