<svg width="260" height="60" version="1.1" xml:space="preserve" style="clip-rule:evenodd;fill-rule:evenodd;stroke-linejoin:round;stroke-miterlimit:2" id="svg1" xmlns="http://www.w3.org/2000/svg"><rect style="clip-rule:evenodd;fill:#94ce27;fill-opacity:1;fill-rule:evenodd;stroke:none;stroke-width:1.50542;stroke-linecap:round;stroke-linejoin:round;stroke-miterlimit:12" id="rect1" width="260" height="60" x="0" y="0" rx="8.42" ry="7.315"/><g id="path2" transform="translate(1.597 -16.138) scale(.11147)" style="clip-rule:evenodd;fill-rule:evenodd;stroke-linejoin:round;stroke-miterlimit:2"><path d="M193.483 247.905a53.547 53.547 0 0 0-18.65 3.268c-10.582 3.724-19.305 10.423-26.14 20.068-6.533 9.332-9.806 19.747-9.806 31.254V506.89c0 14.93 5.297 27.848 15.866 38.73 10.893 10.581 23.812 15.866 38.73 15.866 15.253 0 28.161-5.285 38.742-15.854 10.893-10.893 16.326-23.813 16.326-38.742v-37.164c.116-8.05 8.405-5.932 12.604 0 7.84 13.587 24.481 25.263 43.863 25.195v.01c19.37-.08 35.468-9.651 43.863-25.205 3.18-3.747 12.145-10.142 13.07 0v37.164c0 14.93 5.284 27.848 15.854 38.73 10.905 10.581 23.806 15.866 38.736 15.866 15.241 0 28.16-5.285 38.741-15.854 10.894-10.893 16.327-23.813 16.327-38.742V302.495c0-11.507-3.42-21.922-10.255-31.254-6.545-9.656-15.103-16.344-25.672-20.068-6.222-2.184-12.442-3.268-18.663-3.268-16.802 0-30.959 6.533-42.477 19.601l-55.403 64.839c-1.238.936-5.367 8.068-14.133 8.068-8.742 0-12.394-7.13-13.643-8.056l-55.881-64.851c-11.194-13.068-25.197-19.6-41.999-19.6zm345.26.006c-13.067 0-24.27 4.667-33.597 13.996-9.02 9.02-13.53 20.063-13.53 33.13 0 13.068 4.51 24.269 13.53 33.597 9.328 9.02 20.53 13.53 33.596 13.53 13.068 0 24.267-4.51 33.603-13.53 9.328-9.328 13.99-20.529 13.99-33.597 0-13.067-4.662-24.11-13.99-33.13-9.336-9.329-20.535-13.996-33.603-13.996zm521.893 3.263c-13.058 0-24.254 4.668-33.58 13.996-9.018 9.02-13.536 20.059-13.536 33.118v217.37c0 13.066 4.518 24.267 13.536 33.595 9.326 9.02 20.522 13.53 33.58 13.53 13.074 0 24.262-4.51 33.596-13.53 9.326-9.328 13.997-20.524 13.997-33.584 0-9.329 1.238-13.99 3.716-13.99 1.254 0 2.501.461 3.74 1.387l46.646 45.25c9.326 9.02 20.368 13.53 33.118 13.53 13.366 0 24.561-4.668 33.588-13.996 9.018-9.645 13.527-20.684 13.527-33.12 0-13.375-4.816-24.728-14.458-34.056-21.153-20.839-32.188-31.564-33.118-32.18-4.048-4.048-3.894-7.468.461-10.267l.939-.466v-.46l29.387-18.663c13.988-9.329 20.99-22.545 20.99-39.645 0-9.328-2.492-18.038-7.463-26.132-9.326-13.993-22.546-20.993-39.651-20.993-9.326 0-18.037 2.49-26.116 7.464-36.074 23.952-54.742 36.24-55.988 36.865-2.17 1.549-4.194 1.853-6.056.92-2.186-.933-3.278-2.952-3.278-6.06v-72.769c0-13.06-4.663-24.098-13.99-33.118-9.325-9.328-20.521-13.996-33.587-13.996zm314.742 79.922c-32.341 0-60.011 11.504-83.027 34.517-22.707 22.705-34.057 50.071-34.057 82.103 0 32.342 11.35 60.018 34.057 83.03 23.016 22.704 50.686 34.057 83.027 34.057 32.034 0 59.558-11.353 82.574-34.057 7.148-7.154 10.726-15.855 10.726-26.109 0-10.268-3.578-18.978-10.726-26.132-7.157-7.147-15.868-10.72-26.116-10.72-10.273 0-18.984 3.573-26.132 10.72-8.395 8.712-18.507 13.063-30.326 13.063-12.119 0-22.538-4.196-31.248-12.591-8.403-8.712-12.605-19.134-12.605-31.26 0-11.811 4.364-21.919 13.074-30.322 4.356-4.665 9.642-7.772 15.851-9.328 1.57-.309 2.81-.157 3.74.46.624.94.308 1.875-.939 2.808l-9.326 9.794c-7.156 7.155-10.734 15.71-10.734 25.656 0 10.26 3.108 18.5 9.326 24.722 6.217 6.222 14.928 9.328 26.132 9.328 7.771 0 15.543-3.882 23.315-11.653l54.118-53.646c7.156-7.162 10.734-15.873 10.734-26.127 0-10.268-3.578-18.974-10.735-26.12-21.768-21.463-48.67-32.193-80.703-32.193zm-678.716.753c-29.167-.384-51.922 7.295-68.256 23.044-14.302 13.683-21.448 30.944-21.448 51.775.308 26.127 10.416 45.72 30.322 58.78 5.905 4.039 13.21 7.304 21.914 9.794 4.363 1.557 11.672 3.42 21.925 5.593 9.02 2.174 18.819 4.194 29.396 6.06 2.174.624 3.105 1.717 2.797 3.275 0 1.866-.78 2.797-2.337 2.797-4.04.308-7.77.465-11.193.465-25.503-2.798-42.768-5.132-51.788-6.998-2.482-.624-5.12-.938-7.918-.938-9.644 0-18.045 3.58-25.2 10.733-6.838 6.846-10.255 15.244-10.255 25.19 0 8.086 2.486 15.395 7.458 21.925 5.289 6.53 12.137 10.725 20.54 12.59 26.119 5.914 49.747 8.87 70.886 8.87 28.926 0 51.474-7.775 67.648-23.325 13.993-13.376 20.994-30.634 20.994-51.781 0-26.12-9.957-45.712-29.863-58.78-10.577-6.838-25.195-11.815-43.851-14.922-11.194-2.174-20.523-4.197-27.985-6.071v.012c-2.182-.625-3.427-1.87-3.736-3.736 0-1.556 1.245-2.487 3.736-2.796 2.798-.308 5.76-.308 8.874 0 25.811 2.49 43.221 4.666 52.241 6.532 2.483.616 4.968.926 7.459.926 9.952 0 18.35-3.417 25.188-10.255 7.155-7.154 10.733-15.552 10.733-25.188 0-8.404-2.648-15.864-7.936-22.386-5.289-6.538-11.97-10.744-20.05-12.61-21.462-4.663-42.923-7.463-64.378-8.395a168.181 168.181 0 0 0-5.917-.18zm202.996 0c-29.168-.384-51.924 7.295-68.253 23.044-14.304 13.683-21.453 30.944-21.453 51.775.308 26.127 10.42 45.72 30.326 58.78 5.902 4.039 13.212 7.304 21.922 9.794 4.356 1.557 11.658 3.42 21.923 5.593 9.018 2.174 18.822 4.194 29.386 6.06 2.178.624 3.109 1.717 2.801 3.275 0 1.866-.777 2.797-2.34 2.797-4.039.308-7.77.465-11.187.465-25.5-2.798-42.76-5.132-51.779-6.998-2.493-.624-5.132-.938-7.933-.938-9.642 0-18.037 3.58-25.185 10.733-6.849 6.846-10.265 15.244-10.265 25.19 0 8.086 2.485 15.395 7.464 21.925 5.286 6.53 12.127 10.725 20.53 12.59 26.116 5.914 49.755 8.87 70.9 8.87 28.917 0 51.462-7.775 67.637-23.325 13.99-13.376 20.992-30.634 20.992-51.781 0-26.12-9.95-45.712-29.848-58.78-10.581-6.838-25.201-11.815-43.853-14.922-11.196-2.174-20.522-4.197-27.986-6.071l-.016.012c-2.17-.625-3.408-1.87-3.724-3.736 0-1.556 1.246-2.487 3.724-2.796 2.809-.308 5.764-.308 8.872 0 25.809 2.49 43.23 4.666 52.248 6.532a30.85 30.85 0 0 0 7.456.926c9.957 0 18.352-3.417 25.201-10.255 7.148-7.154 10.719-15.552 10.719-25.188 0-8.404-2.64-15.864-7.918-22.386-5.294-6.538-11.981-10.744-20.068-12.61-21.453-4.663-42.914-7.463-64.375-8.395-2-.098-3.975-.154-5.918-.18zm632.61 3.293c-13.058 0-24.254 4.667-33.58 13.996-9.019 9.012-13.528 20.051-13.528 33.118v64.84c0 31.407 11.188 58.304 33.572 80.692 22.4 22.388 49.31 33.585 80.712 33.585 6.225 0 11.98-.467 17.267-1.392 3.109-.625 5.278-.002 6.517 1.864.94 1.241.623 2.952-.923 5.133-4.048 5.598-12.605 8.396-25.662 8.396-4.971 0-11.342-1.244-19.122-3.734-7.771-2.49-13.835-3.735-18.19-3.735-18.353 0-31.257 8.402-38.72 25.2-2.794 5.597-4.202 11.503-4.202 17.725 0 18.348 8.249 31.255 24.731 38.718 16.483 7.77 34.98 11.653 55.503 11.653 35.458 0 63.597-10.415 84.427-31.254 21.153-20.831 31.734-48.665 31.734-83.496v-85.367c.615-4.98.923-9.64.923-13.988v-64.84c0-13.06-4.655-24.099-13.989-33.118-9.018-9.329-20.052-13.996-33.118-13.996-13.066 0-24.262 4.667-33.596 13.996-9.326 9.012-13.99 20.051-13.99 33.118v64.84c0 5.28-1.87 9.942-5.601 13.988-3.724 3.732-8.387 5.6-13.99 5.6-5.286 0-9.949-1.868-13.988-5.6-3.732-4.046-5.602-8.708-5.602-13.988v-64.84c0-13.06-4.663-24.099-13.99-33.118-9.333-9.329-20.537-13.996-33.595-13.996zm-993.065 16.362c-13.068 0-24.268 4.668-33.597 13.996-9.328 9.336-13.99 20.535-13.99 33.603V514.36c0 13.066 4.662 24.267 13.99 33.596 9.336 9.02 20.537 13.53 33.597 13.53 13.075 0 24.122-4.51 33.142-13.53 9.328-9.329 13.99-20.53 13.99-33.596V399.102c0-13.075-4.662-24.274-13.99-33.602-9.027-9.329-20.075-13.997-33.142-13.997z" style="fill:#fff;fill-rule:nonzero;stroke-width:.809544" id="path1"/></g><path style="font-size:39.7562px;line-height:37.2714px;font-family:&quot;GenEi POPle&quot;;-inkscape-font-specification:&quot;GenEi POPle, Normal&quot;;letter-spacing:0;word-spacing:0;fill:#e3ebdf;stroke-width:1.49085px;stroke-linejoin:miter" d="M201.1 55.861q.427-4.93.582-8.541l8.115.505q-.117 4.037-.505 8.27zm12.929-.466q-.35-6.211-.35-12.268 0-6.096.427-11.803l7.3.117q-.389 5.202-.389 11.142 0 5.902.388 12.657zm1.087-27.798q-1.398-1.398-1.398-2.95 0-1.553 1.437-2.99 1.475-1.475 2.989-1.475 1.553 0 2.95 1.436 1.398 1.398 1.398 2.95 0 1.554-1.436 2.99-1.437 1.398-2.99 1.398-1.553 0-2.95-1.359zm12.734 25.12q-3.222-3.145-3.222-8.348 0-5.202 2.873-9.123 2.873-3.96 7.493-5.164l.427 1.242q.543-.194 1.708-.194 5.358 0 8.736 3.456 3.377 3.455 3.377 9.007 0 5.513-3.494 8.89-3.455 3.34-9.085 3.34-5.59 0-8.813-3.106zm5.164-13.123q-1.747 1.825-1.747 4.348 0 2.485 1.436 3.883 1.476 1.397 4.038 1.397 2.562 0 4.076-1.553 1.553-1.591 1.553-4.193 0-2.64-1.397-4.154-1.36-1.553-3.766-1.553-2.407 0-4.193 1.825z" id="text1" aria-label=".io"/></svg>