<svg width="400" height="400" viewBox="0 0 105.833 105.833" version="1.1" id="svg5" xml:space="preserve" xmlns="http://www.w3.org/2000/svg"><g id="layer1" transform="translate(-64.086 -59.355)"><g id="g302" transform="translate(13.514)" style="fill:#f0f0f0;fill-opacity:1"><path style="fill:#fff;fill-opacity:1;stroke-width:.264583" d="M67.183 164.827c-1.194-.311-2.163-1.034-2.834-2.113l-.6-.965-.07-44.648-.07-44.649h79.382l-.004 39.621c-.003 24.034-.106 40.316-.26 41.387-.752 5.192-4.004 9.152-8.9 10.835-1.7.584-2.201.624-7.9.626-5.893.003-6.117-.016-7.065-.606-.538-.334-1.268-1.074-1.587-1.587l-.609-.979-.132-33.073c-.144-35.85-.058-33.83-1.494-35.092-1.445-1.27-1.617-1.288-11.735-1.288-8.282 0-9.664.057-10.398.429-1.203.609-1.757 1.15-2.33 2.272-.483.945-.502 2.031-.507 28.84-.003 16.474-.11 28.58-.26 29.623-.743 5.13-3.973 9.112-8.76 10.794-1.507.53-2.308.604-7.379.688-3.128.052-6.048 0-6.488-.115z" id="path308"/><path style="fill:#f0f0f0;fill-opacity:1;stroke-width:.264583" d="M69.41 160.799c-2.503-.4-3.4-.733-3.198-.935.067-.067 1.164.09 2.318.313 3.461.481 8.775.678 10.559.16 1.874-.545 2.191-.366 1.181.205-1.076.609-7.505.8-10.857.265zm52.647-.09c-2.496-.356-3.146-.598-2.944-.8.068-.067 1.18.045 2.334.268 3.43.661 8.87.685 10.654.167 1.873-.545 2.144-.386 1.134.186-1.076.609-7.669.752-11.02.216z" id="path306"/><path style="fill:#f0f0f0;fill-opacity:1;stroke-width:.264583" d="M63.663 67.359c.08-4.691.132-5.166.663-6.02.318-.509.972-1.164 1.455-1.455.867-.522 1.348-.529 37.523-.529 36.176 0 36.656.007 37.523.53.483.29 1.138.945 1.456 1.455.531.853.583 1.328.663 6.019l.086 5.093H63.576Z" id="path304"/></g></g></svg>