<svg width="880" height="200" viewBox="0 0 232.833 52.917" version="1.1" id="svg5" xml:space="preserve" xmlns="http://www.w3.org/2000/svg"><rect style="display:inline;fill:#e7e7e7;fill-opacity:1;fill-rule:evenodd;stroke:#6f6f6f;stroke-width:.788995;stroke-linecap:round;stroke-miterlimit:12;stroke-dasharray:none;stroke-opacity:1" id="rect1046" width="232.046" height="52.128" x=".394" y=".394" ry="15.895"/><g aria-label="タイッツー" transform="matrix(.8539 0 0 .87431 21.13 4.194)" id="text368" style="font-size:8.68944px;line-height:10.1829px;font-family:&quot;BIZ UDGothic&quot;;-inkscape-font-specification:&quot;BIZ UDGothic, Normal&quot;;letter-spacing:0;word-spacing:0;stroke-width:.407317px"><path d="M43.372 27.219q-.43.43-1.017.43-.547 0-.977-.391-.391-.391-.43-.978 0-.586.39-.977Q46.93 19.359 48.3 10.99q.078-.586.547-.977.47-.43 1.056-.391.587.039.939.508.39.43.313 1.017-.079.508-.313 1.837-.04.118.039.235.117.117.234.117H66.99q.9 0 1.564.665.665.626.626 1.525-.235 12.317-6.1 18.535-5.827 6.178-18.261 7.547-.587.078-1.056-.274-.47-.352-.547-.939-.079-.547.234-1.016.352-.47.9-.509 6.608-.782 10.948-2.815 4.38-2.033 6.922-5.63.234-.314-.04-.43-4.77-2.464-11.457-5.436-.547-.235-.782-.821-.195-.626.118-1.134.312-.548.86-.743.586-.235 1.134.039 6.217 2.776 11.535 5.513.235.118.391-.156 1.838-4.301 2.073-10.831 0-.352-.313-.352H50.37q-.351 0-.39.234-1.995 6.14-6.609 10.91z" style="font-size:39.1025px;font-family:&quot;Rounded Mplus 1c&quot;;-inkscape-font-specification:&quot;Rounded Mplus 1c, Normal&quot;" id="path12651"/><path d="M80.91 28.235q-.586.079-1.055-.234-.47-.352-.548-.939-.078-.586.274-1.055.352-.47.9-.548 7.663-1.29 14.897-4.849 7.274-3.597 12.122-8.446.43-.39.939-.39.547 0 .938.43.391.43.391 1.016 0 .587-.39 1.017-4.341 4.34-10.52 7.703-.273.117-.195.508v18.027q0 .664-.47 1.134-.468.469-1.133.469t-1.134-.47q-.43-.469-.43-1.133V23.973q0-.313-.352-.156-6.882 3.167-14.233 4.418z" style="font-size:39.1025px;font-family:&quot;Rounded Mplus 1c&quot;;-inkscape-font-specification:&quot;Rounded Mplus 1c, Normal&quot;" id="path12653"/><path d="M143.983 18.382q.43-.391 1.017-.352.586.039.977.508.43.43.391 1.017-.508 10.48-4.731 15.445-4.184 4.927-13.608 6.452-.547.078-1.017-.234-.43-.313-.547-.86-.117-.548.195-1.017.313-.47.86-.548 5.749-.977 9.072-3.128 3.324-2.15 4.966-6.022 1.643-3.871 1.995-10.284.039-.586.43-.977zM124 28.587q-1.173-4.653-2.033-7.664-.156-.547.117-1.016.313-.509.86-.626.587-.156 1.056.156.509.313.704.86 1.173 4.106 2.073 7.743.156.547-.196 1.056-.313.469-.86.586-.587.118-1.095-.195-.47-.313-.626-.9zm11.262-.234q-.313.508-.9.625-.586.118-1.094-.195-.47-.313-.626-.9-.977-3.91-2.111-8.055-.157-.547.156-1.055.313-.509.86-.626.587-.117 1.095.196.508.312.665.899 1.251 4.575 2.111 8.055.157.547-.156 1.056z" style="font-size:39.1025px;font-family:&quot;Rounded Mplus 1c&quot;;-inkscape-font-specification:&quot;Rounded Mplus 1c, Normal&quot;" id="path12655"/><path d="M185.9 12.555q.47-.43 1.096-.39.625.038 1.055.508.43.43.391 1.055-.664 13.139-5.904 19.356-5.2 6.217-17.088 8.173-.586.078-1.095-.274-.469-.313-.586-.9-.118-.586.195-1.055.352-.509.939-.587 7.312-1.29 11.574-4.027 4.262-2.777 6.374-7.704 2.15-4.926 2.58-13.099.04-.626.47-1.056zm-24.986 12.982q-.82-3.362-2.698-10.01-.156-.586.157-1.095.312-.547.899-.704.626-.156 1.173.157t.704.938q1.642 5.71 2.737 10.089.156.625-.195 1.134-.313.508-.939.664-.626.157-1.173-.195-.508-.352-.665-.978zm12.67.313q-.626.157-1.174-.195-.547-.391-.703-1.017-.9-3.793-2.738-10.519-.156-.625.157-1.134.313-.547.938-.703.626-.157 1.134.195.548.352.743.978 1.564 5.591 2.776 10.597.157.625-.195 1.173-.313.508-.939.625z" style="font-size:39.1025px;font-family:&quot;Rounded Mplus 1c&quot;;-inkscape-font-specification:&quot;Rounded Mplus 1c, Normal&quot;" id="path12657"/><path d="M197.67 27.727q-.625 0-1.094-.43-.43-.43-.43-1.056 0-.625.43-1.056.469-.43 1.095-.43h28.779q.626 0 1.056.43.469.43.469 1.056 0 .626-.47 1.056-.43.43-1.055.43z" style="font-size:39.1025px;font-family:&quot;Rounded Mplus 1c&quot;;-inkscape-font-specification:&quot;Rounded Mplus 1c, Normal&quot;" id="path12659"/></g><g id="g12830" transform="translate(11.46 .451)"><path style="fill:#a3a3a3;fill-opacity:1;stroke-width:.109358" d="M4.654 48.569a1.928 1.928 0 0 1-1.172-.874l-.248-.398-.029-18.455-.028-18.454h32.81l-.002 16.377c-.001 9.933-.044 16.663-.108 17.106-.31 2.146-1.655 3.782-3.678 4.478-.703.241-.91.258-3.266.259-2.435 0-2.528-.007-2.92-.25a2.434 2.434 0 0 1-.656-.657l-.251-.404-.055-13.67c-.059-14.818-.023-13.983-.617-14.504-.598-.525-.669-.533-4.85-.533-3.423 0-3.995.024-4.298.177-.497.252-.727.476-.963.94-.2.39-.208.84-.21 11.92-.001 6.809-.045 11.812-.107 12.244-.307 2.12-1.643 3.766-3.621 4.461-.623.219-.954.25-3.05.284-1.293.022-2.5 0-2.681-.047z" id="path12836"/><path style="fill:#767676;fill-opacity:1;stroke-width:.109358" d="M3.199 8.283c.033-1.939.054-2.135.274-2.488a2.17 2.17 0 0 1 .601-.601c.359-.216.557-.219 15.51-.219 14.952 0 15.15.003 15.508.219.2.12.47.39.602.601.22.353.241.55.274 2.488l.036 2.105H3.163Z" id="path12832"/></g></svg>