<!--@hoso_boso--><svg xmlns="http://www.w3.org/2000/svg" xmlns:xlink="http://www.w3.org/1999/xlink" xml:space="preserve" width="540" height="42" viewBox="0 0 142.88 11.11"><defs><linearGradient id="d"><stop offset="0" stop-color="red"/><stop offset="1" stop-color="#ff9100"/></linearGradient><linearGradient id="c"><stop offset="0" stop-color="red"/><stop offset="1" stop-color="#ffc34c"/></linearGradient><linearGradient id="b"><stop offset="0" stop-color="#a2a2a2"/><stop offset="1" stop-color="#fff"/></linearGradient><linearGradient id="a"><stop offset="0"/><stop offset="1" stop-color="#9f9f9f"/></linearGradient><linearGradient xlink:href="#a" id="e" x1="83.52" x2="83.46" y1="8.88" y2="4.63" gradientUnits="userSpaceOnUse"/><linearGradient xlink:href="#b" id="o" x1="4.42" x2="5.66" y1="6.83" y2="5.39" gradientTransform="matrix(1.1 0 0 .8 -.93 -.68)" gradientUnits="userSpaceOnUse" spreadMethod="reflect"/><linearGradient xlink:href="#a" id="f" x1="83.52" x2="83.46" y1="8.88" y2="4.63" gradientUnits="userSpaceOnUse"/><linearGradient xlink:href="#a" id="g" x1="83.52" x2="83.46" y1="8.88" y2="4.63" gradientUnits="userSpaceOnUse"/><linearGradient xlink:href="#a" id="h" x1="83.52" x2="83.46" y1="8.88" y2="4.63" gradientUnits="userSpaceOnUse"/><linearGradient xlink:href="#a" id="i" x1="83.52" x2="83.46" y1="8.88" y2="4.63" gradientUnits="userSpaceOnUse"/><linearGradient xlink:href="#a" id="j" x1="83.52" x2="83.46" y1="8.88" y2="4.63" gradientUnits="userSpaceOnUse"/><linearGradient xlink:href="#a" id="k" x1="83.52" x2="83.46" y1="8.88" y2="4.63" gradientUnits="userSpaceOnUse"/><linearGradient xlink:href="#a" id="l" x1="83.52" x2="83.46" y1="8.88" y2="4.63" gradientUnits="userSpaceOnUse"/><linearGradient xlink:href="#c" id="n" x1="5.83" x2="5.75" y1="7.31" y2="10.93" gradientTransform="matrix(1.1 0 0 1.1 0 -2.54)" gradientUnits="userSpaceOnUse"/><linearGradient xlink:href="#d" id="m" x1="42.11" x2="42.05" y1="4.29" y2="9.6" gradientUnits="userSpaceOnUse"/></defs><rect width="10.58" height="10.58" x=".61" y=".35" opacity=".93" ry=".79"/><g fill="url(#e)" stroke-width=".26" aria-label="(リメイク版）" font-family="GenEi LateMin P v2" font-size="4.94" font-weight="500" letter-spacing="0" style="line-height:5.78791px;-inkscape-font-specification:&quot;Mgen+ 1c, Normal&quot;" transform="matrix(1 0 0 1.2 -1.86 -1.43)" word-spacing="0"><path fill="url(#f)" d="M70.63 7.08q0-.98.6-1.74.27-.35.61-.64.04-.03.07 0l.13.1q.04.03 0 .07l-.2.23q-.14.15-.28.4-.36.61-.36 1.58 0 .96.36 1.58.14.25.28.4l.19.21q.05.06 0 .1l-.12.1q-.04.02-.06-.01-.65-.56-.93-1.18-.29-.63-.29-1.2Z" style="-inkscape-font-specification:&quot;GenEi LateMin P v2, Medium&quot;"/><path fill="url(#g)" d="m72.8 7.66.02-.42v-1.8l-.02-.19h.56l-.02.39v1.6l.01.22.01.2zm.86 1.29q.43-.16.71-.35.28-.2.44-.47.15-.27.2-.68.07-.4.07-.97v-.8q0-.16-.03-.47h.62q-.02.21-.02.47v.83q0 1.28-.45 1.86-.22.29-.56.47-.34.18-.79.31z" style="-inkscape-font-specification:&quot;GenEi LateMin P v2, Medium&quot;"/><path fill="url(#h)" d="M76.4 8.89q1.22-.64 1.93-1.62-.71-.62-1.37-1.03l.13-.18q.7.27 1.49.84.43-.72.67-1.72l.62.22q-.34.98-.9 1.79.53.42 1.14.98l-.42.46q-.54-.6-1.02-1.05-.89 1.07-2.06 1.5Z" style="-inkscape-font-specification:&quot;GenEi LateMin P v2, Medium&quot;"/><path fill="url(#i)" d="M80.66 7.18q1.49-.39 2.51-1.2.52-.4.96-.95l.45.4q-.54.54-1.34 1.07v2.06q0 .43.04.6h-.64q.04-.3.04-.6V6.81q-.67.32-1.87.6z" style="-inkscape-font-specification:&quot;GenEi LateMin P v2, Medium&quot;"/><path fill="url(#j)" d="M85.1 7.07q.76-.57 1.15-1.2.27-.42.35-.63.08-.22.1-.33l.62.2q-.09.14-.2.36l-.14.24-.03.04h1.2q.4 0 .52-.05l.29.18q-.1.17-.15.31-.73 2.39-2.94 2.96l-.2-.19q1.17-.46 1.73-1.15.58-.68.82-1.78h-1.48q-.28.38-.67.66-.38.28-.77.52Z" style="-inkscape-font-specification:&quot;GenEi LateMin P v2, Medium&quot;"/><path fill="url(#k)" d="M89.33 9.2q.32-.59.38-1.5.03-.4.03-.78v-2h.5v1.31h.37V4.81h.5v1.42h.48V5.05h2.48v.27h-2v1.02h1.66l.26.05q-.18 1.18-.77 1.98.41.52 1 .76-.13.11-.18.2l-.06.1-.2-.09q-.5-.22-.85-.62-.35.37-.83.61l-.2.1-.06-.1q-.06-.1-.15-.2.56-.26.97-.77-.36-.55-.59-1.4-.05 1.53-.51 2.37l-.1.17-.14-.14-.06-.05v.04h-.5V7.52h-.54q-.06 1.14-.44 1.81l-.1.17-.16-.16q-.1-.11-.19-.15Zm.9-1.93h1.03v1.57q.26-.65.3-1.6.03-.4.03-.74h-1.35zm2.24-.66q.16.76.48 1.34.35-.58.5-1.34z" style="-inkscape-font-specification:&quot;GenEi LateMin P v2, Medium&quot;"/><path fill="url(#l)" d="m94.4 4.9-.03-.07.02-.04.12-.1q.03-.03.07 0 .64.56.92 1.19.28.63.28 1.18 0 .55-.16.98-.28.76-1.04 1.41-.04.03-.07 0l-.13-.1q-.04-.02 0-.07l.2-.22q.13-.15.28-.4.36-.62.36-1.58 0-.96-.35-1.58-.15-.25-.29-.4l-.18-.2Z" style="-inkscape-font-specification:&quot;GenEi LateMin P v2, Medium&quot;"/></g><g fill="none" stroke-width=".26" aria-label="ライブアライブ" font-family="Mgen+ 1c" font-size="5.64" letter-spacing="0" style="line-height:10.3356px;-inkscape-font-specification:&quot;Mgen+ 1c, Normal&quot;" word-spacing="0"><path fill="#000" d="M15.13 5.46v-.59q.6.06.98.06h4.43q.54 0 .74-.07l.48.28q-.1.2-.14.33-.34 1.18-1.03 2.05-.69.87-1.62 1.41-.94.54-2.02.77l-.33-.37q1.64-.44 2.63-1.43 1-.98 1.28-2.48h-4.42q-.46 0-.98.04zm.81-2.08v-.57q.47.04.87.04h3.35q.37 0 .9-.05v.58l-.9-.02H16.8l-.87.02zm6.58 2.82q2.66-.7 4.48-2.14.93-.73 1.73-1.7l.79.71q-.96.96-2.4 1.9v3.7q0 .76.07 1.08h-1.13q.06-.56.06-1.08V5.55q-1.2.56-3.34 1.07zm7.95-2.44v-.62q.59.08.99.08h4.72q-.24-.46-.63-1.08l.32-.13q.7.6 1.03 1.12l-.18.08.33.22q-.08.16-.18.52-.3 1.4-.91 2.5-1.27 2.3-4.06 3.04l-.37-.39q1.4-.49 2.29-1.22.88-.74 1.36-1.77.47-1.03.62-2.38h-4.34q-.62 0-.99.03zm6.25-1.84.33-.15q.7.61 1.02 1.13l-.63.27q-.18-.39-.72-1.25Z" font-family="GenEi LateMin P v2" font-size="8.82" style="-inkscape-font-specification:&quot;GenEi LateMin P v2, Normal&quot;" transform="matrix(1 0 0 1.2 -1.86 -1.43)"/><path fill="url(#m)" d="M38.41 3.72v-.65q.64.09 1.07.09h4.93q.75 0 1-.06l.34.33-.16.19q-.1.1-.19.27-.21.38-.96 1.1-.76.7-1.5 1.07l-.32-.28q.67-.46 1.08-1.04.4-.57.67-1.08h-4.89q-.2 0-1.06.06zm.76 5.62q1.3-.6 1.7-1.65.28-.78.28-2.24 0-.55-.06-.89h1.09q0 .88-.09 1.64-.08.75-.34 1.39-.56 1.33-2.22 2.07z" transform="matrix(1 0 0 1.2 -1.86 -1.43)"/><path fill="#000" d="M46.46 5.46v-.59q.6.06.97.06h4.43q.54 0 .74-.07l.48.28q-.1.2-.13.33-.34 1.18-1.03 2.05-.69.87-1.63 1.41-.94.54-2.01.77l-.34-.37q1.65-.44 2.64-1.43 1-.98 1.28-2.48h-4.43q-.45 0-.97.04zm.81-2.08v-.57q.46.04.87.04h3.35q.37 0 .9-.05v.58l-.9-.02h-3.35l-.87.02zm6.58 2.82q2.65-.7 4.48-2.14.93-.73 1.72-1.7l.8.71q-.96.96-2.4 1.9v3.7q0 .76.07 1.08h-1.13q.06-.56.06-1.08V5.55q-1.2.56-3.34 1.07zm7.95-2.44v-.62q.59.08.98.08H67.5q-.24-.46-.63-1.08l.33-.13q.7.6 1.02 1.12l-.18.08.33.22q-.08.16-.17.52-.31 1.4-.91 2.5-1.27 2.3-4.06 3.04l-.37-.39q1.4-.49 2.28-1.22.89-.74 1.36-1.77.48-1.03.62-2.38h-4.34q-.62 0-.98.03zm6.24-1.84.34-.15q.7.62 1.02 1.13l-.63.27q-.18-.39-.73-1.25Z" font-family="GenEi LateMin P v2" font-size="8.82" style="-inkscape-font-specification:&quot;GenEi LateMin P v2, Normal&quot;" transform="matrix(1 0 0 1.2 -1.86 -1.43)"/></g><g fill="none" stroke-width=".26" font-family="Mgen+ 1c" font-size="5.64" letter-spacing="0" style="line-height:10.3356px;-inkscape-font-specification:&quot;Mgen+ 1c, Normal&quot;" word-spacing="0"><path fill="#000" d="m98.47 7.8 1.5-.39V3.52H98.6v-.49h3.77v.5h-1.48v3.64l.56-.15.57-.16.43-.13.07.55q-2.68.77-3.46.98l-.41.12zm2.4 1.74q1.88-.64 2.86-1.82-.67-1.04-1.1-2.51-.28.48-.58.84l-.2.25-.27-.25q-.15-.12-.37-.24 1.15-1.37 1.8-3.87v-.1l.9.16q-.28.98-.52 1.56h3.65v.5h-.81q-.47 2.33-1.48 3.67.94 1.28 2.36 1.81-.23.2-.32.38l-.1.16-.37-.14q-1.24-.51-2.12-1.57-.98.96-2.62 1.58l-.38.15-.08-.16q-.12-.24-.25-.4zm2.34-5.48q.36 1.65 1.05 2.92.7-1.19 1.04-2.92zm4.22 4.83v-6.5h3.3v1.64q.95-.91 1.46-2.15l.05-.12.84.23q-.17.4-.45.89h1.77l.26-.12.5.25q-.48 1.18-1.5 2.23 1 .92 2.14 1.36-.16.17-.27.37l-.1.17-.3-.14v2.88h-.91v-.3h-2.36v.32h-.89V7.05l-.07.03-.17.07v.91h-2.45v.83zm.85-1.3h.37V5.38h-.37zm0-2.67h.37V2.88h-.37zm1.2 2.68h.4V5.37h-.4zm0-2.68h.4V2.88h-.4zm1.25 1.56q.98-.48 1.86-1.26-.52-.56-.88-1.1-.35.38-.7.67l-.26.2zm.98.2h2.75q-.66-.36-1.35-.95-.62.54-1.4.95zm.15 2.44h2.36V7.16h-2.36Zm.4-5.67q.35.67.86 1.25.6-.64.96-1.37h-1.74zm4.1 5.69q2.18-1.14 3.45-2.89-1.27-1.1-2.45-1.85l.24-.32q1.23.48 2.66 1.5.77-1.28 1.2-3.07l1.1.4q-.6 1.76-1.61 3.2.96.75 2.05 1.74l-.76.83q-.97-1.06-1.82-1.88-1.59 1.92-3.68 2.69zm7.94-2.97V5.6q.48.04.92.04h1.56v-2.1h-.96l-.86.03v-.55q.4.04.86.04h4.04q.38 0 .8-.04v.56l-.8-.03h-2.08v2.1h2.81l.4-.02.42-.02.01.56-.42-.03h-3.22V7.9q0 .3.07.54.15.53 1.01.53.87 0 2.22-.1l-.03.57q-1 .07-2.38.07t-1.72-.62q-.17-.3-.17-.7V6.12h-1.56q-.52 0-.92.04zm8.24 2V3.6h1.16V1.9h.87v1.7h1.2v2.36h.4V2.31h4.13v.44h-3.22v.77H140v.45h-2.93v.77H140v.44h-2.93v.78h3.64v.46h-2.34q.15.6.4 1.1.63-.43 1.08-.85l.22-.22.56.48q-.64.61-1.56 1.17.68 1.03 1.8 1.45-.2.18-.3.37l-.1.16-.37-.14q-.67-.29-1.16-.76v.09l-3.14.57-.4.06-.12-.52h.08l.8-.14V6.41h-.4v1.24q0 .24-.16.33-.15.09-.4.1l-.5.02h-.14v1.86h-.87V4.07h-.3v4.1zm2.03-.54h.37V4.08h-.37zm2.48 1.47 1.45-.25h.12q-.72-.87-1.1-2.44h-.47z" aria-label="攻略メモ帳" font-family="GenEi LateMin P v2" font-size="8.82" style="-inkscape-font-specification:&quot;GenEi LateMin P v2, Normal&quot;" transform="matrix(1 0 0 1.2 -1.86 -1.43)"/></g><path fill="#fff" d="M1.73 9.13V4.36H2.9v3.81h1.36v.96z" aria-label="L" font-family="GenEi Gothic M" font-size="6.37" font-weight="800" letter-spacing="0" style="line-height:7.46799px;-inkscape-font-specification:&quot;GenEi Gothic M, Ultra-Bold&quot;" transform="scale(.9 1.1)" word-spacing="0"/><path fill="url(#n)" d="M6.27 7.16h.51l-.05-.41-.2-1.53h-.02q-.02.26-.2 1.53zm.77 1.97-.15-1.1h-.73l-.13 1.1H4.94l.8-4.77h1.59l.8 4.77z" aria-label="A" font-family="GenEi Gothic M" font-size="6.37" font-weight="800" letter-spacing="0" style="line-height:7.46811px;-inkscape-font-specification:&quot;GenEi Gothic M, Ultra-Bold&quot;" transform="scale(.9 1.1)" word-spacing="0"/><path fill="#fff" d="M8.14 10.3V6.1h1.02v3.37h1.21v.85z" aria-label="L" font-family="GenEi Gothic M" font-size="5.64" font-weight="800" letter-spacing="0" style="line-height:6.61475px;-inkscape-font-specification:&quot;GenEi Gothic M, Ultra-Bold&quot;" transform="matrix(-1 0 0 1.3 18.14 -2.83)" word-spacing="0"/><path fill="url(#o)" fill-rule="evenodd" stroke="#6b6b6b" stroke-linecap="round" stroke-width=".09" d="M.75.58s.31 2.08 1.64 2.78c1.13.6 1.25.77 2.99.9 1.84.15-1.26-.02-1.19 0 .41.2.68.37 1.7.41.95.04 1.14-.09 1.14-.09s-.41.14-.93.16A9.42 9.42 0 0 1 5 4.72s1.62.54 2.3.53c.61-.01.96-.11.96-.11l2.16 1.55.43-.29-2.03-1.49s.6-.68.27-1.17c-.33-.49-.5-.62-.5-.62s.03.38.02.6c-.01.19-.18.55-.18.55S8.59 3 8.29 2.64a4.13 4.13 0 0 0-.53-.54s.28.27.14.8c-.13.47-.16.46-.16.46.01-.42-.17-.94-.8-1.42-.65-.5-1.9-.77-2.5-.66-.6.1-.53.13-.53.13s.63.35.57.67c-.07.3-.04.06-.04.06s.04-.13-.43-.42c-.46-.29-.36-.31-.36-.31s-1.7.2-2.06-.09c-.36-.29-1-1-.84-.74Z" opacity=".93"/></svg>