<svg xmlns="http://www.w3.org/2000/svg" xmlns:xlink="http://www.w3.org/1999/xlink" width="500" height="500" viewBox="0 0 132.3 132.3">
  <defs>
    <linearGradient id="a">
      <stop offset="0" stop-color="#202020"/>
      <stop offset="1" stop-color="#7c7c7c"/>
    </linearGradient>
    <linearGradient xlink:href="#a" id="b" x1="95.9" x2="56.4" y1="60.3" y2=".3" gradientUnits="userSpaceOnUse"/>
  </defs>
  <circle cx="66.1" cy="66.1" r="66.1" fill="url(#b)" fill-rule="evenodd"/>
  <g style="line-height:6.61458px;-inkscape-font-specification:&quot;GenEi LateMin P v2, Normal&quot;" word-spacing="0">
    <path fill="#fff" d="M35.9 109.1V18.6h39.6q11.1 0 17.5 6.3t6.4 17q0 9.2-4.5 13.9T84 61.2v.8q4.2 0 8.4 2.4 4.3 2.3 7.3 7 3 4.8 3 11.8 0 7.3-3.1 13.2-3 6-8.3 9.4-5.3 3.3-11.9 3.3zm37.1-52q5.6 0 8.7-3 3.2-2.9 3.2-8.2v-4q0-5.4-3.2-8.3-3.1-3-8.7-3H49.8v26.5zm2.4 40q5.9 0 9.2-3.2 3.4-3.2 3.4-8.8v-4.4q0-5.6-3.4-8.7-3.3-3.2-9.2-3.2H49.8v28.4z" aria-label="B" font-family="IBM Plex Sans JP" font-size="123.5" font-weight="500" letter-spacing="0" style="-inkscape-font-specification:&quot;IBM Plex Sans JP, Medium&quot;"/>
  </g>
</svg>
