<svg width="500" height="500" viewBox="0 0 132.292 132.292" version="1.1" id="svg5" xmlns:xlink="http://www.w3.org/1999/xlink" xmlns="http://www.w3.org/2000/svg"><defs id="defs2"><linearGradient id="linearGradient1086"><stop style="stop-color:#202020;stop-opacity:1" offset="0" id="stop1082"/><stop style="stop-color:#7c7c7c;stop-opacity:1" offset="1" id="stop1084"/></linearGradient><linearGradient xlink:href="#linearGradient1086" id="linearGradient1088" x1="95.915" y1="60.308" x2="56.394" y2=".257" gradientUnits="userSpaceOnUse"/></defs><g id="layer1"><circle style="fill:url(#linearGradient1088);fill-rule:evenodd;stroke-width:.264583;stroke-linecap:round;stroke-miterlimit:12;fill-opacity:1" id="path186" cx="66.146" cy="66.146" r="66.146"/><g aria-label="B" id="text398" style="font-size:5.64444px;line-height:6.61458px;font-family:&quot;GenEi LateMin P v2&quot;;-inkscape-font-specification:&quot;GenEi LateMin P v2, Normal&quot;;letter-spacing:0;word-spacing:0;fill:none;stroke:#000;stroke-width:.264583px"><path d="M35.858 109.131V18.626h39.635q11.112 0 17.533 6.297 6.42 6.298 6.42 16.916 0 9.26-4.568 13.952t-10.865 5.433v.741q4.198.124 8.396 2.47 4.321 2.222 7.284 7.037 2.964 4.692 2.964 11.73 0 7.285-3.087 13.212-2.963 5.926-8.273 9.384-5.309 3.333-11.853 3.333zM73.024 57.15q5.556 0 8.643-2.964 3.21-2.963 3.21-8.272v-4.075q0-5.31-3.21-8.273-3.087-2.963-8.643-2.963H49.81V57.15zm2.345 40.005q5.927 0 9.26-3.21 3.335-3.211 3.335-8.89v-4.322q0-5.68-3.334-8.767-3.334-3.21-9.26-3.21H49.81v28.399z" style="font-weight:500;font-size:123.472px;font-family:&quot;IBM Plex Sans JP&quot;;-inkscape-font-specification:&quot;IBM Plex Sans JP, Medium&quot;;fill:#fff;stroke:none" id="path398"/></g></g></svg>