<!--@hoso_boso--><svg xmlns="http://www.w3.org/2000/svg" xmlns:xlink="http://www.w3.org/1999/xlink" xml:space="preserve" width="128" height="128" viewBox="0 0 33.9 33.9"><defs><linearGradient xlink:href="#a" id="k" x1="5.9" x2="5.8" y1="2.7" y2="8.9" gradientTransform="matrix(1 0 0 -1 .2 10)" gradientUnits="userSpaceOnUse"/><linearGradient id="a"><stop offset="0" stop-color="#fff"/><stop offset="1" stop-color="#f175c9"/></linearGradient><linearGradient xlink:href="#b" id="c" x1="22" x2="21.9" y1="24.3" y2="1.3" gradientUnits="userSpaceOnUse"/><linearGradient id="b"><stop offset="0" stop-color="#50061d"/><stop offset="1" stop-color="#f1a7b8"/></linearGradient><linearGradient xlink:href="#a" id="d" x1="23.7" x2="23.9" y1="5.6" y2="30" gradientUnits="userSpaceOnUse"/><linearGradient xlink:href="#a" id="e" x1="23.7" x2="23.9" y1="5.6" y2="30" gradientUnits="userSpaceOnUse"/><linearGradient xlink:href="#a" id="j" x1="5.9" x2="5.8" y1="2.7" y2="8.9" gradientTransform="matrix(1 0 0 -1 .2 17.6)" gradientUnits="userSpaceOnUse"/><linearGradient xlink:href="#a" id="f" x1="23.7" x2="23.9" y1="5.6" y2="30" gradientUnits="userSpaceOnUse"/><linearGradient xlink:href="#a" id="g" x1="23.7" x2="23.9" y1="5.6" y2="30" gradientUnits="userSpaceOnUse"/><linearGradient xlink:href="#a" id="h" x1="23.7" x2="23.9" y1="5.6" y2="30" gradientUnits="userSpaceOnUse"/><linearGradient xlink:href="#a" id="i" x1="23.7" x2="23.9" y1="5.6" y2="30" gradientUnits="userSpaceOnUse"/></defs><rect width="33.9" height="33.9" fill="url(#c)" ry="4.4"/><g fill="url(#d)" fill-rule="evenodd" stroke="url(#e)" stroke-width=".3" transform="translate(0 1.3)"><path fill="url(#f)" stroke="url(#g)" d="M9 4.1 4 9s-2.2 4.4-.7 8.1C5 21 9.1 25.5 9.1 25.5l-4.2 4 16.3 1-2.7-13-4.4 4.1s-4.4-4.4-6-7C6.5 12 6.1 7 9.1 4Z"/><path fill="url(#h)" stroke="url(#i)" d="M7.8 8c.3-1.7 1-2.8 2.5-4 0 0 6.2-.7 9 .4 4.3 1.8 8.2 5.5 10.2 9.4a17.2 17.2 0 0 1 1.5 4s-1.8-3.7-3.1-5.2c-1.1-1.3-4-3.3-4-3.3s2.1 2 3 3.1a33.7 33.7 0 0 1 4.8 11.9s-3-6-5-8.8c-2.3-3.3-5.6-7-9.6-8-5.5-1.3-9.3.6-9.3.6Z"/></g><path fill="url(#j)" fill-rule="evenodd" stroke="#50061d" stroke-linecap="round" stroke-linejoin="round" stroke-width=".4" d="M6 16.8a1 1 0 0 1-.7-.4L.8 10.8a1 1 0 0 1 .1-1.4 1 1 0 0 1 1.4.2L6 14.2l3.8-4.6a1 1 0 0 1 1.4-.2 1 1 0 0 1 .1 1.4l-4.5 5.6a1 1 0 0 1-.8.4z" color="#000"/><path fill="url(#k)" fill-rule="evenodd" stroke="#50061d" stroke-linecap="round" stroke-linejoin="round" stroke-width=".4" d="M6 9.1a1 1 0 0 1-.7-.4L.8 3.2a1 1 0 0 1 .1-1.4 1 1 0 0 1 1.4.1L6 6.5 9.8 2a1 1 0 0 1 1.4-.1 1 1 0 0 1 .1 1.4L6.8 8.7a1 1 0 0 1-.8.4z" color="#000"/></svg>