<!--@hoso_boso--><svg width="128" height="128" viewBox="0 0 33.867 33.867" version="1.1" id="svg5" xml:space="preserve" xmlns:xlink="http://www.w3.org/1999/xlink" xmlns="http://www.w3.org/2000/svg"><defs id="defs2"><linearGradient xlink:href="#linearGradient3989" id="linearGradient3991" x1="5.879" y1="2.653" x2="5.847" y2="8.924" gradientUnits="userSpaceOnUse" gradientTransform="matrix(1 0 0 -1 .205 9.868)"/><linearGradient id="linearGradient3989"><stop style="stop-color:#fff;stop-opacity:1" offset="0" id="stop3985"/><stop style="stop-color:#f175c9;stop-opacity:1" offset="1" id="stop3987"/></linearGradient><linearGradient xlink:href="#linearGradient886" id="linearGradient888" x1="22.049" y1="24.283" x2="21.862" y2="1.254" gradientUnits="userSpaceOnUse"/><linearGradient id="linearGradient886"><stop style="stop-color:#50061d;stop-opacity:1" offset="0" id="stop882"/><stop style="stop-color:#f1a7b8;stop-opacity:1" offset="1" id="stop884"/></linearGradient><linearGradient xlink:href="#linearGradient3989" id="linearGradient916" x1="22.952" y1="7.667" x2="22.867" y2="27.768" gradientUnits="userSpaceOnUse"/><linearGradient xlink:href="#linearGradient3989" id="linearGradient971" x1="16.509" y1="10.296" x2="16.19" y2="32.631" gradientUnits="userSpaceOnUse"/><linearGradient xlink:href="#linearGradient3989" id="linearGradient987" x1="10.444" y1="12.688" x2="11.095" y2="27.635" gradientUnits="userSpaceOnUse"/></defs><g id="layer1"><rect style="fill:url(#linearGradient888);fill-opacity:1;stroke-width:.0770466;stroke-linecap:round;stroke-linejoin:round" id="rect2589-4" width="33.867" height="33.867" x="0" y="0" ry="4.362"/><path style="fill:none;fill-rule:evenodd;stroke:url(#linearGradient971);stroke-width:.82011;stroke-linecap:butt;stroke-linejoin:miter;stroke-dasharray:none;stroke-opacity:1" d="M11.778 9.01s-.675.352-3.313 1.402c-4.438 1.765-7.16 1.519-7.16 1.519s.207 4.765.433 8.462c.273 4.447.302 5.62 2.821 8.463 2.05 2.313 7.16 3.905 7.16 3.905s5.07-1.46 7.161-3.905c2.422-2.833 2.319-4.248 2.821-8.463.488-4.093.434-8.462.434-8.462s-2.741.196-7.16-1.52c-2.595-1.006-3.197-1.4-3.197-1.4Z" id="path410"/><path style="fill:url(#linearGradient987);fill-opacity:1;fill-rule:evenodd;stroke:none;stroke-width:.131398px;stroke-linecap:butt;stroke-linejoin:miter;stroke-opacity:1" d="M11.543 13.919s-.41.213-2.007.848c-2.687 1.069-4.336.92-4.336.92s-.112 2.913.263 5.124c.463 2.736.183 3.404 1.708 5.125 1.242 1.401 4.336 2.365 4.336 2.365s3.326-.97 4.336-2.365c1.324-1.828 1.404-2.572 1.708-5.125.296-2.478.263-5.124.263-5.124s-1.66.119-4.336-.92c-1.571-.61-1.935-.848-1.935-.848z" id="path410-5"/><path style="fill:none;fill-rule:evenodd;stroke:url(#linearGradient916);stroke-width:1;stroke-linecap:round;stroke-linejoin:miter;stroke-miterlimit:9;stroke-dasharray:none;stroke-opacity:1" d="M14.69 3.608c1.288 4.467 3.436 6.615 6.013 3.264a147.16 147.16 0 0 1 1.89-2.405s-3.282 7.227 2.233 4.553c2.835-1.375 3.952-1.89 3.952-1.89-2.45 2.122-8.526 5.204-2.663 5.154 1.653-.014 3.178.258 3.178.258s-9.528.838-3.436 4.295c3.178 1.804 4.467 2.749 4.467 2.749s-8.164-2.152-6.185.773c1.976 2.92 2.92 3.866 2.92 3.866" id="path1118"/><path style="color:#000;fill:url(#linearGradient3991);fill-opacity:1;fill-rule:evenodd;stroke:#50061d;stroke-width:.4;stroke-linecap:round;stroke-linejoin:round;stroke-dasharray:none;stroke-opacity:1" d="M6.026 9.016a1 1 0 0 1-.778-.37L.75 3.087A1 1 0 0 1 .9 1.682a1 1 0 0 1 1.406.149l3.72 4.595 3.721-4.595a1 1 0 0 1 1.407-.149 1 1 0 0 1 .148 1.406L6.803 8.645a1 1 0 0 1-.777.371z" id="path2523"/></g></svg>