<!--@hoso_boso--><svg xmlns="http://www.w3.org/2000/svg" xmlns:xlink="http://www.w3.org/1999/xlink" xml:space="preserve" width="128" height="128" viewBox="0 0 33.9 33.9"><defs><linearGradient xlink:href="#a" id="g" x1="5.9" x2="5.8" y1="2.7" y2="8.9" gradientTransform="matrix(1 0 0 -1 .2 9.9)" gradientUnits="userSpaceOnUse"/><linearGradient id="a"><stop offset="0" stop-color="#fff"/><stop offset="1" stop-color="#f175c9"/></linearGradient><linearGradient xlink:href="#b" id="c" x1="22" x2="21.9" y1="24.3" y2="1.3" gradientUnits="userSpaceOnUse"/><linearGradient id="b"><stop offset="0" stop-color="#50061d"/><stop offset="1" stop-color="#f1a7b8"/></linearGradient><linearGradient xlink:href="#a" id="f" x1="23" x2="22.9" y1="7.7" y2="27.8" gradientUnits="userSpaceOnUse"/><linearGradient xlink:href="#a" id="d" x1="16.5" x2="16.2" y1="10.3" y2="32.6" gradientUnits="userSpaceOnUse"/><linearGradient xlink:href="#a" id="e" x1="10.4" x2="11.1" y1="12.7" y2="27.6" gradientUnits="userSpaceOnUse"/><linearGradient xlink:href="#a" id="h" x1="5.9" x2="5.8" y1="2.7" y2="8.9" gradientTransform="matrix(1 0 0 -1 .2 17.6)" gradientUnits="userSpaceOnUse"/><linearGradient xlink:href="#a" id="i" x1="5.9" x2="5.8" y1="2.7" y2="8.9" gradientTransform="matrix(1 0 0 -1 .2 25.2)" gradientUnits="userSpaceOnUse"/></defs><rect width="33.9" height="33.9" fill="url(#c)" ry="4.4"/><path fill="none" stroke="url(#d)" stroke-width=".8" d="m11.8 9-3.3 1.4C4 12.2 1.3 12 1.3 12l.4 8.5c.3 4.4.3 5.6 2.9 8.5 2 2.3 7.1 3.9 7.1 3.9s5-1.5 7.2-4c2.4-2.8 2.3-4.2 2.8-8.4.5-4.1.4-8.5.4-8.5s-2.7.2-7.1-1.5c-2.6-1-3.2-1.4-3.2-1.4Z"/><path fill="url(#e)" fill-rule="evenodd" d="m11.5 14-2 .8c-2.7 1-4.3.9-4.3.9s-.1 2.9.3 5.1c.4 2.7.1 3.4 1.7 5.1 1.2 1.4 4.3 2.4 4.3 2.4s3.3-1 4.3-2.4c1.4-1.8 1.4-2.5 1.8-5l.2-5.2s-1.6.1-4.3-1c-1.6-.5-2-.8-2-.8z"/><path fill="none" stroke="url(#f)" stroke-linecap="round" stroke-miterlimit="9" d="M14.7 3.6c1.3 4.5 3.4 6.6 6 3.3a147.2 147.2 0 0 1 1.9-2.4s-3.3 7.2 2.2 4.5l4-1.9c-2.5 2.2-8.5 5.2-2.7 5.2 1.7 0 3.2.2 3.2.2s-9.5.9-3.4 4.3c3.1 1.8 4.4 2.8 4.4 2.8s-8.1-2.2-6.2.8c2 2.9 3 3.8 3 3.8"/><path fill="url(#g)" fill-rule="evenodd" stroke="#50061d" stroke-linecap="round" stroke-linejoin="round" stroke-width=".4" d="M6 9a1 1 0 0 1-.8-.4L.7 3.1A1 1 0 0 1 1 1.7a1 1 0 0 1 1.4.1L6 6.4l3.7-4.6a1 1 0 0 1 1.5-.1 1 1 0 0 1 .1 1.4L6.8 8.6A1 1 0 0 1 6 9z" color="#000"/><path fill="url(#h)" fill-rule="evenodd" stroke="#50061d" stroke-linecap="round" stroke-linejoin="round" stroke-width=".4" d="M6 16.8a1 1 0 0 1-.8-.4L.7 10.8A1 1 0 0 1 1 9.4a1 1 0 0 1 1.4.2L6 14.2l3.7-4.6a1 1 0 0 1 1.5-.2 1 1 0 0 1 .1 1.4l-4.5 5.6a1 1 0 0 1-.8.4z" color="#000"/><path fill="url(#i)" fill-rule="evenodd" stroke="#50061d" stroke-linecap="round" stroke-linejoin="round" stroke-width=".4" d="M6 24.4a1 1 0 0 1-.8-.4L.7 18.4A1 1 0 0 1 1 17a1 1 0 0 1 1.4.2L6 21.8l3.7-4.6a1 1 0 0 1 1.4-.2 1 1 0 0 1 .2 1.4L6.8 24a1 1 0 0 1-.8.4z" color="#000"/></svg>