<!--@hoso_boso--><svg xmlns="http://www.w3.org/2000/svg" xmlns:xlink="http://www.w3.org/1999/xlink" xml:space="preserve" width="128" height="128" viewBox="0 0 33.9 33.9"><defs><linearGradient xlink:href="#a" id="g" x1="5.9" x2="5.8" y1="2.7" y2="8.9" gradientTransform="matrix(1 0 0 -1 .2 10)" gradientUnits="userSpaceOnUse"/><linearGradient id="a"><stop offset="0" stop-color="#fff"/><stop offset="1" stop-color="#f175c9"/></linearGradient><linearGradient xlink:href="#b" id="c" x1="22" x2="21.9" y1="24.3" y2="1.3" gradientUnits="userSpaceOnUse"/><linearGradient id="b"><stop offset="0" stop-color="#50061d"/><stop offset="1" stop-color="#f1a7b8"/></linearGradient><linearGradient xlink:href="#a" id="e" x1="17.2" x2="17.2" y1="1.5" y2="26.6" gradientUnits="userSpaceOnUse"/><linearGradient xlink:href="#a" id="d" x1="17.9" x2="17.4" y1="1.6" y2="29.7" gradientUnits="userSpaceOnUse"/><linearGradient xlink:href="#a" id="f" x1="17.1" x2="17" y1="5.7" y2="30.6" gradientUnits="userSpaceOnUse"/><linearGradient xlink:href="#a" id="h" x1="5.9" x2="5.8" y1="2.7" y2="8.9" gradientTransform="matrix(1 0 0 -1 .2 17.6)" gradientUnits="userSpaceOnUse"/></defs><rect width="33.9" height="33.9" fill="url(#c)" ry="4.4"/><path fill="none" stroke="url(#d)" stroke-width=".8" d="M17.1 2 14 3.4C9.5 5 6.8 4.9 6.8 4.9l.4 8.3c.3 4.4.3 5.6 2.8 8.4 2 2.3 7 3.9 7 3.9s5.1-1.5 7.2-3.9c2.4-2.8 2.3-4.2 2.8-8.4.4-4 .4-8.3.4-8.3s-2.7.1-7.1-1.5c-2.6-1-3.2-1.4-3.2-1.4z"/><path fill="url(#e)" fill-rule="evenodd" d="m17 6.8-2 .9c-2.7 1-4.3.9-4.3.9s-.2 2.9.2 5c.5 2.7.2 3.4 1.7 5.1 1.2 1.4 4.3 2.4 4.3 2.4s3.3-1 4.3-2.4c1.3-1.8 1.4-2.5 1.7-5 .3-2.5.2-5.1.2-5.1s-1.6 0-4.3-1c-1.5-.5-1.9-.8-1.9-.8z"/><path fill="url(#f)" fill-rule="evenodd" d="M2.1 5.4C3.5 9 3.5 8.5 3.6 9.6c.1 1-.5 1.5-1 3.6-.5 1.7-.6 3-.5 4 0 .6.2 1.1.5 1.6A5 5 0 0 0 1 20.6c-.3.6-.4 1.4 0 2.2.5.7 1.4 1.4 3 2L9 27H8c-.4.2-1.1.3-1.7.7-.6.3-1.5.9-1.6 1.7 0 .8.7 1.5 1.2 2 .6.5 1.4.8 2.2 1 1.5.4 3.6.5 4.8.2.8-.1 1.6-.5 2-1.2a1.4 1.4 0 0 0 0-1.1c-.2-.4-.5-.8-1-1.2L11 27.4c1.6-.3 2.7-.4 4.2-.5h-4.8l-6.3-2.7c-1.6-.6-2.3-1.2-2.7-1.8-.3-.5-.2-1 0-1.5.3-.7 1.1-1.3 1.5-1.5l1 1.1 1.6 1.4 1.9 1 2.3 1-2.4-1.5-1.4-1L4.5 20c-1.2-1.1-1.7-1.9-1.7-2.8 0-.9.2-2 .7-3.7.5-2.1 1-2.6.9-3.9-.2-1.2-.1-1-2.3-4.2zm29.7 0c-2 3.1-2 3-2.2 4.2-.1 1.3.4 1.8 1 3.9.3 1.7.7 2.8.6 3.7 0 1-.5 1.7-1.7 2.8L28 21.5l-1.4 1-2.5 1.5 2.4-1 1.9-1 1.6-1.5a9.9 9.9 0 0 0 1-1.1c.4.2 1.1.8 1.5 1.5.2.5.3 1 0 1.5-.4.6-1.2 1.2-2.7 1.8-3 1.3-5 2.1-6.3 2.8h-4.8c1.5 0 2.6.1 4.2.4-.9.5-1.8 1-2.7 1.7-.6.4-1 .8-1 1.2a1.4 1.4 0 0 0 0 1.1c.3.7 1 1 1.8 1.2 1.3.3 3.3.2 5-.2.7-.2 1.5-.5 2-1 .6-.5 1.4-1.2 1.3-2-.1-.8-1-1.4-1.6-1.7-.6-.4-1.3-.5-1.7-.6h-1l5-2.3c1.7-.6 2.6-1.3 3-2 .5-.8.4-1.6 0-2.2a5 5 0 0 0-1.6-1.8 3.5 3.5 0 0 0 .5-1.5c0-1.1 0-2.4-.5-4-.5-2.2-1.1-2.7-1-3.7 0-1 0-.7 1.4-4.2zM10.2 27.6c1.2.6 2 .9 3.3 1.8.5.3.8.7.9 1 0 .2.2.7 0 1-.2.6-1 .8-1.5 1-1.5.3-3.2-.2-4.7-.6a5.3 5.3 0 0 1-1.7-1c-.4-.4-.5-.7-.4-1.3 0-.6.2-1 .7-1.3a4 4 0 0 1 1.4-.5l2-.1zm13.6 0 2 .1 1.4.5c.5.3.7.7.7 1.3 0 .6 0 1-.4 1.3a5.3 5.3 0 0 1-1.7 1c-1.5.4-3.2.9-4.7.6-.6-.2-1.3-.5-1.6-1-.1-.3 0-.8.1-1 .1-.3.4-.7.9-1 1.2-1 2-1.2 3.3-1.8z" color="#000" style="-inkscape-stroke:none" transform="translate(.1)"/><path fill="url(#g)" fill-rule="evenodd" stroke="#50061d" stroke-linecap="round" stroke-linejoin="round" stroke-width=".4" d="M6 9.1a1 1 0 0 1-.7-.4L.8 3.2a1 1 0 0 1 .1-1.4 1 1 0 0 1 1.4.1L6 6.5 9.8 2a1 1 0 0 1 1.4-.1 1 1 0 0 1 .1 1.4L6.8 8.7a1 1 0 0 1-.8.4z" color="#000"/><path fill="url(#h)" fill-rule="evenodd" stroke="#50061d" stroke-linecap="round" stroke-linejoin="round" stroke-width=".4" d="M6 16.8a1 1 0 0 1-.7-.4L.8 10.8a1 1 0 0 1 .1-1.4 1 1 0 0 1 1.4.2L6 14.2l3.8-4.6a1 1 0 0 1 1.4-.2 1 1 0 0 1 .1 1.4l-4.5 5.6a1 1 0 0 1-.8.4z" color="#000"/></svg>