<!--@hoso_boso--><svg xmlns="http://www.w3.org/2000/svg" xmlns:xlink="http://www.w3.org/1999/xlink" xml:space="preserve" width="128" height="128" viewBox="0 0 33.9 33.9"><defs><linearGradient id="f"><stop offset="0" stop-color="#fff"/><stop offset="1" stop-color="#f175c9"/></linearGradient><linearGradient id="e"><stop offset="0" stop-color="#fff"/><stop offset="1" stop-color="#f175c9"/></linearGradient><linearGradient id="b"><stop offset="0" stop-color="#fbfbfb"/><stop offset="1" stop-color="#f175c9"/></linearGradient><linearGradient id="a"><stop offset="0" stop-color="#f175c9"/><stop offset="1" stop-color="#fff"/></linearGradient><linearGradient xlink:href="#a" id="k" x1="25.3" x2="19.1" y1="27.7" y2="14.1" gradientTransform="rotate(24 11.8 21.8)" gradientUnits="userSpaceOnUse"/><linearGradient xlink:href="#b" id="h" x1="21.3" x2="26.6" y1="16.7" y2="27.6" gradientTransform="rotate(24 11.8 21.8)" gradientUnits="userSpaceOnUse"/><linearGradient xlink:href="#c" id="g" x1="22" x2="21.9" y1="24.3" y2="1.3" gradientUnits="userSpaceOnUse"/><linearGradient id="c"><stop offset="0" stop-color="#50061d"/><stop offset="1" stop-color="#f1a7b8"/></linearGradient><linearGradient xlink:href="#d" id="l" x1="5.9" x2="5.8" y1="2.7" y2="8.9" gradientTransform="matrix(1 0 0 -1 .2 10)" gradientUnits="userSpaceOnUse"/><linearGradient id="d"><stop offset="0" stop-color="#fff"/><stop offset="1" stop-color="#f175c9"/></linearGradient><linearGradient xlink:href="#e" id="i" x1="12" x2="11.8" y1="22.3" y2="31.7" gradientUnits="userSpaceOnUse"/><linearGradient xlink:href="#f" id="j" x1="4.5" x2="4.6" y1="23.3" y2="32.9" gradientUnits="userSpaceOnUse"/><linearGradient xlink:href="#d" id="m" x1="5.9" x2="5.8" y1="2.7" y2="8.9" gradientTransform="matrix(1 0 0 -1 .2 17.6)" gradientUnits="userSpaceOnUse"/><linearGradient xlink:href="#d" id="n" x1="5.9" x2="5.8" y1="2.7" y2="8.9" gradientTransform="matrix(1 0 0 -1 .2 25.2)" gradientUnits="userSpaceOnUse"/></defs><rect width="33.9" height="33.9" fill="url(#g)" ry="4.4"/><path fill="url(#h)" fill-rule="evenodd" stroke="#000" stroke-width=".3" d="M32 9.2 29.2 17s-2.4-.8-7.2 2.5c-4.7 3.2-4.6 5-4.6 5l-4.1-1.8z"/><path fill="url(#i)" fill-rule="evenodd" stroke="#000" stroke-width=".3" d="m13.1 18.2-7-2.7 4.7 6.5-5.6 4 2.3 3.4 5.7-4 4.3 6.7v-7.6l-4.2-1.8z"/><path fill="url(#j)" fill-rule="evenodd" stroke="#000" stroke-width=".3" d="m5.2 26-2.7-.2 4 5.6 1-2Z"/><path fill="#fff" fill-rule="evenodd" stroke="#000" stroke-linejoin="round" stroke-width=".3" d="M23 12c-.8-1-2.5-4.3-8.6-6.2C8.5 4 7 5.1 7 5.1s2.8-.5 8.4 2 6.5 6 6.5 6V13zM21.1 14.8s.2-1.4-5.4-4.4a19.7 19.7 0 0 0-8-2C4.2 8 2 8.8 2 8.8s3-.4 6.3 0c2.7.5 4.5 1.2 6.6 2.1a13 13 0 0 1 4.8 4.1zM17.2 16.7c-2.5-2.7-3.4-3.3-6-4-2.7-.6-4.8.4-4.8.4s1.8-1 5.5.7c3.6 1.8 4.3 3.6 4.3 3.6z"/><path fill="url(#k)" fill-rule="evenodd" stroke="#000" stroke-width=".3" d="m32 9.2-8 .3s0 2.5-4.7 6C14.8 19 13 18.2 13 18.2l.2 4.5z"/><path fill="url(#l)" fill-rule="evenodd" stroke="#50061d" stroke-linecap="round" stroke-linejoin="round" stroke-width=".4" d="M6 9.1a1 1 0 0 1-.7-.4L.8 3.2a1 1 0 0 1 .1-1.4 1 1 0 0 1 1.4.1L6 6.5 9.8 2a1 1 0 0 1 1.4-.1 1 1 0 0 1 .1 1.4L6.8 8.7a1 1 0 0 1-.8.4z" color="#000"/><path fill="url(#m)" fill-rule="evenodd" stroke="#50061d" stroke-linecap="round" stroke-linejoin="round" stroke-width=".4" d="M6 16.8a1 1 0 0 1-.8-.4L.7 10.8A1 1 0 0 1 1 9.4a1 1 0 0 1 1.4.2L6 14.2l3.7-4.6a1 1 0 0 1 1.4-.2 1 1 0 0 1 .2 1.4l-4.5 5.6a1 1 0 0 1-.8.4z" color="#000"/><path fill="url(#n)" fill-rule="evenodd" stroke="#50061d" stroke-linecap="round" stroke-linejoin="round" stroke-width=".4" d="M6 24.4a1 1 0 0 1-.8-.4L.7 18.4A1 1 0 0 1 1 17a1 1 0 0 1 1.4.2L6 21.8l3.7-4.6a1 1 0 0 1 1.4-.2 1 1 0 0 1 .2 1.4L6.8 24a1 1 0 0 1-.8.4z" color="#000"/></svg>