<!--@hoso_boso--><svg xmlns="http://www.w3.org/2000/svg" xmlns:xlink="http://www.w3.org/1999/xlink" xml:space="preserve" width="128" height="128" viewBox="0 0 33.9 33.9"><defs><linearGradient xlink:href="#a" id="e" x1="5.9" x2="5.8" y1="2.7" y2="8.9" gradientTransform="matrix(1 0 0 -1 .2 10)" gradientUnits="userSpaceOnUse"/><linearGradient id="a"><stop offset="0" stop-color="#fff"/><stop offset="1" stop-color="#f175c9"/></linearGradient><linearGradient xlink:href="#b" id="c" x1="22" x2="21.9" y1="24.3" y2="1.3" gradientUnits="userSpaceOnUse"/><linearGradient id="b"><stop offset="0" stop-color="#50061d"/><stop offset="1" stop-color="#f1a7b8"/></linearGradient><linearGradient xlink:href="#a" id="d" x1="20.2" x2="20.1" y1="7.5" y2="31.9" gradientUnits="userSpaceOnUse"/><linearGradient xlink:href="#a" id="f" x1="5.9" x2="5.8" y1="2.7" y2="8.9" gradientTransform="matrix(1 0 0 -1 .2 17.6)" gradientUnits="userSpaceOnUse"/><linearGradient xlink:href="#a" id="g" x1="5.9" x2="5.8" y1="2.7" y2="8.9" gradientTransform="matrix(1 0 0 -1 .2 25.2)" gradientUnits="userSpaceOnUse"/></defs><rect width="33.9" height="33.9" fill="url(#c)" ry="4.4"/><g fill="none" stroke="url(#d)"><circle cx="16.9" cy="16.9" r="12.3" stroke-linecap="round" stroke-miterlimit="12"/><circle cx="16.9" cy="16.9" r="9.1" stroke-linecap="round" stroke-miterlimit="12" stroke-width=".4"/><path stroke-width=".3" d="M17 1.8 16.8 32M31.7 16.9H2.2M15.6 14.6h2.7M15 11.4h3.8M15.6 19.2h2.7M15 22.4h3.8"/><g stroke-width=".3"><path d="M19.2 15.5v2.7M22.4 15v3.7M14.6 15.5v2.7M11.4 15v3.7"/></g></g><path fill="url(#e)" fill-rule="evenodd" stroke="#50061d" stroke-linecap="round" stroke-linejoin="round" stroke-width=".4" d="M6 9.1a1 1 0 0 1-.7-.4L.8 3.2a1 1 0 0 1 .1-1.4 1 1 0 0 1 1.4.1L6 6.5 9.8 2a1 1 0 0 1 1.4-.1 1 1 0 0 1 .1 1.4L6.8 8.7a1 1 0 0 1-.8.4z" color="#000"/><path fill="url(#f)" fill-rule="evenodd" stroke="#50061d" stroke-linecap="round" stroke-linejoin="round" stroke-width=".4" d="M6 16.8a1 1 0 0 1-.7-.4L.8 10.8a1 1 0 0 1 .1-1.4 1 1 0 0 1 1.4.2L6 14.2l3.8-4.6a1 1 0 0 1 1.4-.2 1 1 0 0 1 .1 1.4l-4.5 5.6a1 1 0 0 1-.8.4z" color="#000"/><path fill="url(#g)" fill-rule="evenodd" stroke="#50061d" stroke-linecap="round" stroke-linejoin="round" stroke-width=".4" d="M6 24.4a1 1 0 0 1-.8-.4L.7 18.4A1 1 0 0 1 1 17a1 1 0 0 1 1.4.2L6 21.8l3.7-4.6a1 1 0 0 1 1.4-.2 1 1 0 0 1 .2 1.4L6.8 24a1 1 0 0 1-.8.4z" color="#000"/></svg>