<!--@hoso_boso--><svg width="128" height="128" viewBox="0 0 33.867 33.867" version="1.1" id="svg5" xml:space="preserve" xmlns:xlink="http://www.w3.org/1999/xlink" xmlns="http://www.w3.org/2000/svg"><defs id="defs2"><linearGradient xlink:href="#linearGradient3989" id="linearGradient3991" x1="5.879" y1="2.653" x2="5.847" y2="8.924" gradientUnits="userSpaceOnUse" gradientTransform="matrix(1 0 0 -1 .216 9.964)"/><linearGradient id="linearGradient3989"><stop style="stop-color:#fff;stop-opacity:1" offset="0" id="stop3985"/><stop style="stop-color:#f175c9;stop-opacity:1" offset="1" id="stop3987"/></linearGradient><linearGradient xlink:href="#linearGradient886" id="linearGradient888" x1="22.049" y1="24.283" x2="21.862" y2="1.254" gradientUnits="userSpaceOnUse"/><linearGradient id="linearGradient886"><stop style="stop-color:#50061d;stop-opacity:1" offset="0" id="stop882"/><stop style="stop-color:#f1a7b8;stop-opacity:1" offset="1" id="stop884"/></linearGradient><linearGradient xlink:href="#linearGradient3989" id="linearGradient941" x1="20.208" y1="7.53" x2="20.079" y2="31.913" gradientUnits="userSpaceOnUse"/></defs><g id="layer1"><rect style="fill:url(#linearGradient888);fill-opacity:1;stroke-width:.0770466;stroke-linecap:round;stroke-linejoin:round" id="rect2589-4" width="33.867" height="33.867" x="0" y="0" ry="4.362"/><g id="g347" style="stroke:url(#linearGradient941);stroke-opacity:1"><circle style="fill:none;stroke:url(#linearGradient941);stroke-width:1.042;stroke-linecap:round;stroke-miterlimit:12;stroke-dasharray:none;stroke-opacity:1" id="path352" cx="16.933" cy="16.933" r="12.329"/><circle style="fill:none;stroke:url(#linearGradient941);stroke-width:.406411;stroke-linecap:round;stroke-miterlimit:12;stroke-dasharray:none;stroke-opacity:1" id="path963" cx="16.933" cy="16.933" r="9.057"/><path style="fill:none;fill-rule:evenodd;stroke:url(#linearGradient941);stroke-width:.264583px;stroke-linecap:butt;stroke-linejoin:miter;stroke-opacity:1" d="m17.03 1.824-.194 30.22" id="path1028"/><path style="fill:none;fill-rule:evenodd;stroke:url(#linearGradient941);stroke-width:.264583px;stroke-linecap:butt;stroke-linejoin:miter;stroke-opacity:1" d="m31.686 16.9-29.506.066" id="path1030"/><path style="fill:none;fill-rule:evenodd;stroke:url(#linearGradient941);stroke-width:.264583px;stroke-linecap:butt;stroke-linejoin:miter;stroke-opacity:1" d="M15.61 14.552h2.646" id="path1032"/><path style="fill:none;fill-rule:evenodd;stroke:url(#linearGradient941);stroke-width:.264583px;stroke-linecap:butt;stroke-linejoin:miter;stroke-opacity:1" d="M15.081 11.377h3.704" id="path1034"/><path style="fill:none;fill-rule:evenodd;stroke:url(#linearGradient941);stroke-width:.264583px;stroke-linecap:butt;stroke-linejoin:miter;stroke-opacity:1" d="M15.61 19.182h2.646" id="path1142"/><path style="fill:none;fill-rule:evenodd;stroke:url(#linearGradient941);stroke-width:.264583px;stroke-linecap:butt;stroke-linejoin:miter;stroke-opacity:1" d="M15.081 22.357h3.704" id="path1144"/><g id="g1158" transform="rotate(90 16.933 16.867)" style="stroke:url(#linearGradient941);stroke-opacity:1"><path style="fill:none;fill-rule:evenodd;stroke:url(#linearGradient941);stroke-width:.264583px;stroke-linecap:butt;stroke-linejoin:miter;stroke-opacity:1" d="M15.61 14.552h2.646" id="path1146"/><path style="fill:none;fill-rule:evenodd;stroke:url(#linearGradient941);stroke-width:.264583px;stroke-linecap:butt;stroke-linejoin:miter;stroke-opacity:1" d="M15.081 11.377h3.704" id="path1148"/><path style="fill:none;fill-rule:evenodd;stroke:url(#linearGradient941);stroke-width:.264583px;stroke-linecap:butt;stroke-linejoin:miter;stroke-opacity:1" d="M15.61 19.182h2.646" id="path1150"/><path style="fill:none;fill-rule:evenodd;stroke:url(#linearGradient941);stroke-width:.264583px;stroke-linecap:butt;stroke-linejoin:miter;stroke-opacity:1" d="M15.081 22.357h3.704" id="path1152"/></g></g><path style="color:#000;fill:url(#linearGradient3991);fill-opacity:1;fill-rule:evenodd;stroke:#50061d;stroke-width:.4;stroke-linecap:round;stroke-linejoin:round;stroke-dasharray:none;stroke-opacity:1" d="M6.036 9.112a1 1 0 0 1-.777-.37L.76 3.184a1 1 0 0 1 .148-1.407 1 1 0 0 1 1.406.149l3.72 4.596 3.722-4.596a1 1 0 0 1 1.406-.149 1 1 0 0 1 .148 1.407L6.813 8.74a1 1 0 0 1-.777.371z" id="path2523"/></g></svg>