<svg xmlns="http://www.w3.org/2000/svg" xmlns:xlink="http://www.w3.org/1999/xlink" xml:space="preserve" width="128" height="128" viewBox="0 0 33.9 33.9">
  <defs>
    <linearGradient xlink:href="#a" id="e" x1="5.9" x2="5.8" y1="2.7" y2="8.9" gradientTransform="matrix(1 0 0 -1 .2 10)" gradientUnits="userSpaceOnUse"/>
    <linearGradient id="a">
      <stop offset="0" stop-color="#fff"/>
      <stop offset="1" stop-color="#f175c9"/>
    </linearGradient>
    <linearGradient xlink:href="#b" id="c" x1="22" x2="21.9" y1="24.3" y2="1.3" gradientUnits="userSpaceOnUse"/>
    <linearGradient id="b">
      <stop offset="0" stop-color="#50061d"/>
      <stop offset="1" stop-color="#f1a7b8"/>
    </linearGradient>
    <linearGradient xlink:href="#a" id="d" x1="20.2" x2="20.1" y1="7.5" y2="31.9" gradientUnits="userSpaceOnUse"/>
  </defs>
  <rect width="33.9" height="33.9" fill="url(#c)" ry="4.4"/>
  <g fill="none" stroke="url(#d)">
    <circle cx="16.9" cy="16.9" r="12.3" stroke-linecap="round" stroke-miterlimit="12"/>
    <circle cx="16.9" cy="16.9" r="9.1" stroke-linecap="round" stroke-miterlimit="12" stroke-width=".4"/>
    <path stroke-width=".3" d="M17 1.8 16.8 32m14.9-15.1H2.2m13.4-2.3h2.7M15 11.4h3.8m-3.2 7.8h2.7M15 22.4h3.8m.4-6.9v2.7m3.2-3.2v3.7m-7.8-3.2v2.7M11.4 15v3.7"/>
  </g>
  <path fill="url(#e)" fill-rule="evenodd" stroke="#50061d" stroke-linecap="round" stroke-linejoin="round" stroke-width=".4" d="M6 9.1a1 1 0 0 1-.7-.4L.8 3.2a1 1 0 0 1 .1-1.4 1 1 0 0 1 1.4.1L6 6.5 9.8 2a1 1 0 0 1 1.4-.1 1 1 0 0 1 .1 1.4L6.8 8.7a1 1 0 0 1-.8.4z" color="#000"/>
</svg>
