<!--@hoso_boso--><svg xmlns="http://www.w3.org/2000/svg" xmlns:xlink="http://www.w3.org/1999/xlink" xml:space="preserve" width="128" height="128" viewBox="0 0 33.87 33.87"><defs><linearGradient id="a"><stop offset="0" stop-color="#ffdec5"/><stop offset="1" stop-color="#ffa667"/></linearGradient><linearGradient xlink:href="#a" id="b" x1="19.54" x2="13.46" y1="11.85" y2="21.03" gradientUnits="userSpaceOnUse" spreadMethod="reflect"/></defs><path fill="#4c4c4c" d="M25.4 31.84H8.47L0 17.18 8.47 2.5H25.4l8.47 14.67z"/><path fill="#ffdec5" fill-rule="evenodd" stroke="#000" stroke-width=".47" d="m16.52 6.63 2.55 2.76 3.63-3.34-2.88-2.47zM19.24 9.75l4.22-4.07 2.71 2.9-4.63 3.95zM18.7 15.31l6.9-5.63 2.37 3.43-6.2 5.7zM21.7 19.53c.19-.44 5.54-5.46 5.54-5.46l1.8 3.4-4.67 4.81z"/><path fill="url(#b)" fill-rule="evenodd" stroke="#000" stroke-width=".47" d="M6.4 27.48c.35-.8 2.78-7.22 2.78-7.22l-2.24-9.78 8.54-4.85 5.59 6.62s.63.26-.66 1.18c-1.29.91-2.48.98-2.48.98l3.83 4.1-.12 1.03 2.86 2.77s-.1 1.44-2.87 2.16c-2.76.7-3.22.45-3.22.45l-3.01 6.5s-1.86.17-2.76-.05c-1.7-.4-3.32-1.23-4.73-2.27-.6-.44-1.5-1.62-1.5-1.62Z"/><path fill="none" stroke="#000" stroke-width=".47" d="m17.94 14.45-3.58-3.5s1.34 1.82 1.65 5.25c.24 2.65-.36 3.75-.36 3.75"/></svg>