<!--@hoso_boso--><svg xmlns="http://www.w3.org/2000/svg" xmlns:xlink="http://www.w3.org/1999/xlink" xml:space="preserve" width="128" height="128" viewBox="0 0 33.87 33.87"><defs><linearGradient id="a"><stop offset="0" stop-color="#ffdec5"/><stop offset="1" stop-color="#ffaf75"/></linearGradient><linearGradient xlink:href="#a" id="b" x1="13.1" x2="17.66" y1="28.55" y2="18.39" gradientUnits="userSpaceOnUse" spreadMethod="reflect"/></defs><path fill="#4c4c4c" d="M25.4 31.84H8.47L0 17.18 8.47 2.5H25.4l8.47 14.67z"/><path fill="url(#b)" fill-rule="evenodd" stroke="#000" stroke-width=".26" d="m23.5 6.84-3.1 6.6s-1.65-.13-3.32.11c-1.78.35-3.4.6-4.53-.32-.75-.62-1.47-.82-1.47-.82s-.48-.22-1.78.26c-1.3.5-3.55 1.62-5.44 2.06-.58.14-1.4-.27-1.78.19-.5.6-.81 1.32.15 2.36.97 1.05 1.15 1.39 2.05 1.58 1.56.06 1.75.12 2.58 1.1.76 1.24 1.59 1.8 3.23 2.42 1.91.72 4.84.46 5.78 1.12.93.67.86.65 2.82 2.5 1.46 1.38 2.44 1.8 4.07 1.64 1.7-.16 2.99-.74 3.65-3.23.77-2.88-.38-2.8.64-5.6 1.05-2.9 1.6-3.27 2.69-5.27 1.1-1.99 1.96-3.22 1.96-3.22z"/><path fill="none" stroke="#000" stroke-width=".26" d="M3.55 14.8c.3.06 2.55 1.35 2.55 1.35M6.18 13.94l1.9 1.3M8.15 13.16l2.15 1.16M9.96 12.48l2.03 1.12"/></svg>