<!--@hoso_boso--><svg xmlns="http://www.w3.org/2000/svg" xmlns:xlink="http://www.w3.org/1999/xlink" xml:space="preserve" width="128" height="128" viewBox="0 0 33.9 33.9"><defs><linearGradient id="a"><stop offset="0" stop-color="#ff4c08"/><stop offset="1" stop-color="#ffda00"/></linearGradient><linearGradient xlink:href="#a" id="b" x1="7.5" x2="10.9" y1="11.4" y2="13.9" gradientUnits="userSpaceOnUse"/></defs><path fill="#4c4c4c" d="M25.4 31.8h-17L0 17.2 8.5 2.5h16.9l8.5 14.7z"/><path fill="url(#b)" fill-rule="evenodd" stroke="#fbfbfb" stroke-width=".3" d="M16.3 30.1s-5.5-3.2-7.9-5.3c-2.3-2-5.4-4-6-7-.6-2.5.5-5.6 2.5-7.4C8 7.4 13.3 6 17.4 7c4 .8 14.7 7 14.7 7l-4.7-1.6C17.2 8.8 25 13.7 25 13.7s-6.6-3.3-8.5-3.3c-1.8 0 7.6 5 5.9 4.5-1.2-.3-8-3-9-2.6a5 5 0 0 0-1.8 1.2c-.8.8 4 4 4 4S6 12.8 8.2 15c4.1 3.8 9.4 6.7 9.4 6.7s-8.4-4.3-9-3.7c-.3.4 0 1.4 0 2 0 1 6.4 5.9 6.4 5.9S2.7 17 8.4 22.2c5.6 5.2 7.9 8 7.9 8z"/></svg>