<!--@hoso_boso--><svg xmlns="http://www.w3.org/2000/svg" xmlns:xlink="http://www.w3.org/1999/xlink" xml:space="preserve" width="128" height="128" viewBox="0 0 33.9 33.9"><defs><linearGradient id="b"><stop offset="0" stop-color="#e5811a"/><stop offset="1" stop-color="#fdcb62"/></linearGradient><linearGradient id="a"><stop offset="0" stop-color="#e5811a"/><stop offset="1" stop-color="#fdcb62"/></linearGradient><linearGradient xlink:href="#a" id="c" x1="24.6" x2="15.7" y1="-.3" y2="-.8" gradientUnits="userSpaceOnUse"/><linearGradient xlink:href="#b" id="d" x1="19" x2="22.3" y1="24.1" y2="22" gradientUnits="userSpaceOnUse"/></defs><path fill="#4c4c4c" d="M25.4 31.8h-17L0 17.2 8.5 2.5h16.9l8.5 14.7z"/><path fill="#cc6906" fill-rule="evenodd" stroke="#000" stroke-width=".5" d="m7.7 12.1-3.2 2.3a7.1 4.7 44.9 0 0 0 .1A7.1 4.7 44.9 0 0 6 23a7.1 4.7 44.9 0 0 8.4 1.7 7.1 4.7 44.9 0 0 .3-.4l1.4-1-.7-1a7.1 4.7 44.9 0 0-2.7-6A7.1 4.7 44.9 0 0 9 13.8l-1.3-1.7z"/><ellipse cx="20.9" cy="3.8" fill="#fdcb62" fill-rule="evenodd" stroke="#000" stroke-linecap="round" stroke-miterlimit="12" stroke-width=".5" rx="7" ry="4.7" transform="rotate(45.5) skewX(1.2)"/><path fill="url(#c)" fill-rule="evenodd" stroke="#000" stroke-linecap="round" stroke-miterlimit="12" stroke-width=".4" d="m16-5.4-1 8.2a6 4 0 0 0 0 .8 6 4 0 0 0 6 4 6 4 0 0 0 6-4 6 4 0 0 0 0-.7l.7-8L16-5.5z" transform="rotate(45)"/><path fill="#cc6906" fill-rule="evenodd" stroke="#000" stroke-linecap="round" stroke-miterlimit="12" stroke-width=".5" d="m17.3 3.6-1.7 1.6a7.1 4.7 44.9 0 0-.5.3A7.1 4.7 44.9 0 0 17 14a7.1 4.7 44.9 0 0 8.3 1.7 7.1 4.7 44.9 0 0 .2-.2 7.1 4.7 44.9 0 0 0 0l1.5-1.1-.7-.8a7.1 4.7 44.9 0 0-2.7-6.3 7.1 4.7 44.9 0 0-5.4-2.7l-.8-.9z"/><ellipse cx="21.9" cy="-9.6" fill="#e5811a" fill-rule="evenodd" stroke="#000" stroke-linecap="round" stroke-miterlimit="12" stroke-width=".5" rx="7.2" ry="4.8" transform="rotate(44.4) skewX(-1)"/><ellipse cx="22" cy="-10.1" fill="#cc6906" fill-rule="evenodd" stroke="#000" stroke-linecap="round" stroke-miterlimit="12" stroke-width=".3" rx="4.4" ry="2.9" transform="rotate(45)"/><ellipse cx="22.1" cy="-11.1" fill="#fdcb62" fill-rule="evenodd" stroke="#000" stroke-linecap="round" stroke-miterlimit="12" stroke-width=".3" rx="4.4" ry="2.9" transform="rotate(45)"/><path fill="url(#d)" fill-rule="evenodd" stroke="#000" stroke-width=".5" d="m21.8 30.3-6.4-9.6s-.3-1.5.8-2.3c.7-.6 2-1 2.8-.1 1.1 1.2 6.1 9.1 6.1 9.1s.5 1.2.3 1.7c-.4 1.2-1.2 1.6-2 1.6-.6 0-1.6-.4-1.6-.4Z"/><ellipse cx="36.6" cy="10.7" fill="#fdcb62" fill-rule="evenodd" stroke="#000" stroke-linecap="round" stroke-miterlimit="12" stroke-width=".5" rx="1.7" ry="2.1" transform="rotate(34.4) skewX(-4.2)"/></svg>