<!--@hoso_boso--><svg xmlns="http://www.w3.org/2000/svg" xmlns:xlink="http://www.w3.org/1999/xlink" xml:space="preserve" width="128" height="128" viewBox="0 0 33.9 33.9"><defs><linearGradient id="e"><stop offset="0" stop-color="#d5740f"/><stop offset="1" stop-color="#fd951d"/></linearGradient><linearGradient id="d"><stop offset="0" stop-color="#c86d0e"/><stop offset="1" stop-color="#fd951d"/></linearGradient><linearGradient id="c"><stop offset="0" stop-color="#fd8a12"/><stop offset="1" stop-color="#fdc080"/></linearGradient><linearGradient id="b"><stop offset="0" stop-color="#fd8a12"/><stop offset="1" stop-color="#fdc080"/></linearGradient><linearGradient id="a"><stop offset="0" stop-color="#fd8a12"/><stop offset="1" stop-color="#fdc080"/></linearGradient><linearGradient xlink:href="#a" id="h" x1="15" x2="14.4" y1="9.1" y2="8.1" gradientUnits="userSpaceOnUse" spreadMethod="reflect"/><linearGradient xlink:href="#b" id="g" x1="18.2" x2="18.8" y1="26.9" y2="27.8" gradientUnits="userSpaceOnUse" spreadMethod="reflect"/><linearGradient xlink:href="#c" id="j" x1="18.2" x2="18.6" y1="22.2" y2="22.9" gradientUnits="userSpaceOnUse" spreadMethod="reflect"/><linearGradient xlink:href="#d" id="f" x1="5.7" x2="6.3" y1="18.3" y2="19.3" gradientUnits="userSpaceOnUse" spreadMethod="reflect"/><linearGradient xlink:href="#e" id="i" x1="21" x2="21.6" y1="21.7" y2="22.3" gradientUnits="userSpaceOnUse" spreadMethod="reflect"/></defs><path fill="#4c4c4c" d="M25.4 31.8h-17L0 17.2 8.5 2.5h16.9l8.5 14.7z"/><path fill="url(#f)" fill-rule="evenodd" stroke="#281603" stroke-linecap="round" stroke-width=".1" d="M16.6 12.6c-2.7-.1-5.6.1-8.2 1.5-.6.3-1.5.8-2.2 1.4-.7.6-1.4 1.5-1.3 2.6 0 1.5 1.1 2.6 2.2 3.3 1.1.8 2.4 1.3 3.5 1.7A17.4 17.4 0 0 0 26 21.5c1.2-.8 2.3-2 2.4-3.6 0-.7-.2-1.4-.7-1.9l-1.8-1.2c-3-1.9-6.2-2.2-9.3-2.2zm0 1.7a16.2 16.2 0 0 1 9.8 3c.2.2.2.1.2.5 0 .8-.6 1.6-1.6 2.3a14 14 0 0 1-3.3 1.6c-3.3 1.2-7.2 1-10.5-.2-1-.4-2.2-.9-3-1.5-1-.6-1.5-1.3-1.5-2 0-.4.2-.7.7-1.2l1.9-1.2c2-1 4.7-1.3 7.2-1.3Z" color="#000"/><path fill="url(#g)" fill-rule="evenodd" stroke="#281603" stroke-linecap="round" stroke-width=".1" d="M21.6 22a.9.9 0 0 0-.5.5c-.2.4-.2 1 .2 1.3 1.6.7 2.5 1.2 2.7 1.5.3.4.2.6 0 1.2-.3.4-.6.7-1.1.8-.5.2-1.2.3-2 .2a16 16 0 0 1-4.5-1c-2-.8-4-.2-5.4.5-1.4.7-2.4 1.6-2.4 1.6a.9.9 0 0 0 1.2 1.3s.8-.8 2-1.4c1.2-.6 2.6-1 3.9-.4 1.3.5 3.3 1.1 5.1 1.2 1 0 1.9 0 2.7-.3.8-.3 1.6-.9 2-1.8.5-.8.6-2 0-2.8-.6-1-1.6-1.6-3.2-2.4a.9.9 0 0 0-.7 0z" color="#000"/><path fill="url(#h)" fill-rule="evenodd" stroke="#281603" stroke-linecap="round" stroke-width=".1" d="M13.6 7.3c-1.4 0-2.8.3-4.2.8C7.8 8.8 6 9.7 5 11.8c-.6 1.6.1 3.1 1 4.3A18 18 0 0 0 21.8 22c1.3-.2 2.7-.5 4-1.1a5.7 5.7 0 0 0 2.8-2.8c.5-1.2.5-2.5.1-3.6-.3-1.2-1-2.2-1.8-3a18.6 18.6 0 0 0-9-3.9c-1.4-.2-2.8-.3-4.2-.2Zm.1 1.7a17.6 17.6 0 0 1 3.8.3c3 .5 6 1.5 8.2 3.5.6.5 1 1.2 1.2 2 .3 1 .3 1.9 0 2.5a4 4 0 0 1-2 1.9c-1 .5-2.3.8-3.3 1A16.4 16.4 0 0 1 7.4 15c-.7-1-1-1.8-.8-2.5.6-1.5 2-2.1 3.5-2.7 1.1-.5 2.3-.7 3.6-.8z" color="#000"/><path fill="url(#i)" fill-rule="evenodd" stroke="#281603" stroke-linecap="round" stroke-width=".1" d="M21 19.2a.9.9 0 0 0-.5 1.1l.2 1-.3.6-.6.8c-.1 0 0 0 0 0a.9.9 0 0 0-.2 1.3.9.9 0 0 0 1.3 0s.1 0 .2-.2l.7-.8c.2-.4.5-.8.6-1.3.1-.6 0-1.2-.2-2a.9.9 0 0 0-1.1-.5z" color="#000"/><path fill="url(#j)" fill-rule="evenodd" stroke="#281603" stroke-linecap="round" stroke-width=".1" d="M19.4 19a1 1 0 0 0-.5.1 1 1 0 0 0-.4.5v.7l.2.3c.2.5.3 1.1.2 1.5-.2 1.2-.7 1.7-.7 1.7a.9.9 0 1 0 1.4 1.1s.7-.9 1-2.4c.2-.9.3-1.4.2-2-.1-.4-.2-.9-.5-1.1-.1-.2-.2-.2-.4-.3 0 0-.2-.2-.5-.2z" color="#000"/></svg>