<!--@hoso_boso--><svg xmlns="http://www.w3.org/2000/svg" xmlns:xlink="http://www.w3.org/1999/xlink" xml:space="preserve" width="128" height="128" viewBox="0 0 33.9 33.9"><defs><linearGradient id="a"><stop offset="0" stop-color="#fbff00"/><stop offset="1" stop-color="#ff7900"/></linearGradient><linearGradient xlink:href="#a" id="b" x1="12.3" x2="16.5" y1="9.6" y2="21.2" gradientTransform="translate(-1.3)" gradientUnits="userSpaceOnUse"/></defs><path fill="#4c4c4c" d="M25.4 31.8h-17L0 17.2 8.5 2.5h16.9l8.5 14.7z"/><circle cx="10.4" cy="6.3" r="2.6" fill="#fbff00" fill-rule="evenodd" stroke="#000" stroke-linecap="round" stroke-miterlimit="12" stroke-width=".3"/><path fill="url(#b)" fill-rule="evenodd" stroke="#000" stroke-width=".3" d="M9 10s1.8-.6 2.8-.7c1.6-.1 3.5-.8 5 .2 1.4 1.1 2.3 3 3.3 4.5l1.3 2.1-1.5.9-2-3.3c-1.1-1.5-1.6-1.8-2.7-2.1-.5-.2-1.7 0-1.7 0l1 4.1 7 14-2.5.7L13.5 20l-3.7-.2 1.2 3.5-3 .2-1.7-6.2h3.8z"/><path fill="#ff7900" fill-rule="evenodd" stroke="#000" stroke-width=".3" d="m21.5 26.1 4.9 2.1s.4.2.8 0c.4-.1.7-.5.7-.9 0-.3-.5-.7-.5-.7l-5.1-2.2s-.6-.1-.8 0c-.4.3-.6.8-.5 1.2 0 .2.5.5.5.5zM19.8 22.3l6 2.3c.1 0 .6.2 1.1 0 .5-.2.8-.6.8-1 0-.3-.6-.8-.6-.8l-6.3-2.4s-.8-.1-1 0c-.5.3-.7.8-.7 1.3l.7.6zM24 20.4l5 2s.4.3.8 0c.4-.1.6-.5.6-.9l-.4-.7-5.2-2.2s-.6 0-.8 0c-.4.3-.5.8-.5 1.2 0 .2.5.6.5.6z"/></svg>