<!--@hoso_boso--><svg xmlns="http://www.w3.org/2000/svg" xmlns:xlink="http://www.w3.org/1999/xlink" xml:space="preserve" width="128" height="128" viewBox="0 0 33.9 33.9"><defs><linearGradient id="b"><stop offset="0" stop-color="#ff3600"/><stop offset=".5" stop-color="#ae0000"/><stop offset="1" stop-color="red"/></linearGradient><linearGradient id="a"><stop offset="0" stop-color="#f90"/><stop offset="1" stop-color="#ff0"/></linearGradient><linearGradient xlink:href="#a" id="d" x1="17.1" x2="17" y1="28.2" y2="17.2" gradientUnits="userSpaceOnUse"/><linearGradient xlink:href="#b" id="c" x1="15.2" x2="15.1" y1="13.7" y2="29.8" gradientUnits="userSpaceOnUse" spreadMethod="pad"/></defs><path fill="#4c4c4c" d="M25.4 31.8h-17L0 17.2 8.5 2.5h16.9l8.5 14.7z"/><path fill="url(#c)" fill-rule="evenodd" stroke="#fefefe" stroke-width=".3" d="M8.5 12.4s1.2 1.5 1.3 2.5c.2 2-1.7 3.9-1.7 6s0 4.7 1.5 6.4c2 2.1 5.4 3.1 8.2 2.9a9.6 9.6 0 0 0 7.1-3.9c1.3-2 1-4.7.6-7-.2-1.1-1.6-2-1.5-3.2.1-.7 1.2-1 1.5-1.7.2-.5.2-1.7.2-1.7s-1 1.3-1.8 1.4c-1 0-2-.5-2.4-1.3-.4-1 1-2.1.8-3.1C22 8 19 6.2 19 6.2s.5 1.5.3 2.1c-.3.8-.9 1.8-1.7 1.7-1-.1-1.5-1.8-1.7-2.9-.1-1 .8-3 .8-3s-2 1.4-2.3 2.5c-.5 1.1-.2 2.4-.2 3.6 0 1.1 1 2.7.1 3.4-.9.5-1.8-1.2-2.8-1.4-1-.1-3 .2-3 .2z"/><path fill="url(#d)" fill-rule="evenodd" stroke="#fff" stroke-width=".2" d="m13.7 20.5 1.3 1s-.6-2-.4-3c.1-1 .5-1.7 1-2.2.9-.7.9-1.7 1.3-2.5l.7-1.6s-.1.2.3 2.4c.4 2.2-.2 2.1 0 3.2 0 .9 0 2.1.7 2.6.7.4 2 .4 2.4-.3.6-1-1-3.4-1-3.4s1.2.4 1.7 2c.6 1.6.7 2 .7 3 0 1.7 0 3.6-1 5-.8 1-2.1 1.9-3.4 2-1.6.3-3.3 0-4.5-1-1-.8-1.7-2.3-1.6-3.6 0-.9 1.5-1.3 1.4-2.2 0-1-1.9-2.5-1.9-2.5l2.3 1z"/></svg>