<!--@hoso_boso--><svg xmlns="http://www.w3.org/2000/svg" xmlns:xlink="http://www.w3.org/1999/xlink" xml:space="preserve" width="128" height="128" viewBox="0 0 33.9 33.9"><defs><linearGradient id="b"><stop offset="0" stop-color="#66acbf"/><stop offset=".5" stop-color="#0046ad"/><stop offset="1" stop-color="#0069ed"/></linearGradient><linearGradient id="a"><stop offset="0" stop-color="#0094af"/><stop offset="1" stop-color="#e5ebff"/></linearGradient><linearGradient xlink:href="#a" id="d" x1="13.1" x2="17.7" y1="17.5" y2="25.2" gradientTransform="translate(-.6 .2)" gradientUnits="userSpaceOnUse"/><linearGradient xlink:href="#b" id="c" x1="17.5" x2="18.2" y1="8.9" y2="28.5" gradientUnits="userSpaceOnUse"/></defs><path fill="#4c4c4c" d="M25.4 31.8h-17L0 17.2 8.5 2.5h16.9l8.5 14.7z"/><path fill="url(#c)" fill-rule="evenodd" stroke="#fff" stroke-width=".3" d="M17.6 5.6S14 9.8 12.7 12c-1.1 1.9-2.5 3.8-2.8 6-.5 2.7-.8 6 .9 8.1a9.1 9.1 0 0 0 7.8 3c2.8-.5 5.6-1.9 6.5-5 .5-2 0-5.4-1.3-7.2-1.3-1.7-3.7-2.6-4.8-4.5-1.1-2-1.4-7-1.4-7Z"/><path fill="url(#d)" fill-rule="evenodd" d="M15.4 27a5.9 5.9 0 0 1-4-3c-.8-1.7-.8-4 0-5.7.4-1 1.3-2.9 2.4-2.4 1.2.5 0 2.6-.2 3.9a4 4 0 0 0 1.8 3.9c1.1.7 3.1 1.2 2.8 2.5-.2 1-1.8 1-2.8.8z"/></svg>