<!--@hoso_boso--><svg xmlns="http://www.w3.org/2000/svg" xmlns:xlink="http://www.w3.org/1999/xlink" xml:space="preserve" width="128" height="128" viewBox="0 0 33.9 33.9"><defs><linearGradient id="d"><stop offset=".2" stop-color="#00831b"/><stop offset="1" stop-color="#e9e9e9"/></linearGradient><linearGradient id="c"><stop offset="0" stop-color="#97ffaa"/><stop offset="1" stop-color="#003c0c"/></linearGradient><linearGradient id="b"><stop offset="0" stop-color="#97ffaa"/><stop offset="1" stop-color="#005210"/></linearGradient><linearGradient id="a"><stop offset="0" stop-color="#97ffaa"/><stop offset="1" stop-color="#005210"/></linearGradient><linearGradient id="e"><stop offset="0" stop-color="#005210"/><stop offset=".7" stop-color="#002806"/><stop offset="1" stop-color="#86ff9d"/></linearGradient><linearGradient xlink:href="#a" id="i" x1="16.2" x2="16.9" y1="14.3" y2="20.4" gradientUnits="userSpaceOnUse"/><linearGradient xlink:href="#b" id="h" x1="14.9" x2="16.6" y1="16.9" y2="23.3" gradientUnits="userSpaceOnUse"/><linearGradient xlink:href="#c" id="g" x1="16" x2="17.5" y1="21.5" y2="26.5" gradientUnits="userSpaceOnUse"/><linearGradient xlink:href="#d" id="f" x1="18" x2="19.3" y1="25.1" y2="30.2" gradientUnits="userSpaceOnUse"/><radialGradient xlink:href="#e" id="j" cx="17.4" cy="10.6" r="10.5" fx="17.4" fy="10.6" gradientTransform="matrix(1 0 0 .5 0 5.3)" gradientUnits="userSpaceOnUse"/></defs><path fill="#4c4c4c" d="M25.4 31.8h-17L0 17.2 8.5 2.5h16.9l8.5 14.7z"/><path fill="url(#f)" fill-rule="evenodd" d="M12.6 23.3c-.7 1-.6 1.7-.3 2.5.4 1.1 1.7 1.7 2.6 2.3.8.5 1.7 1 2.6 1.3 1 .3 2.1.5 3.2.5 1.3-.1 3.7-1.2 3.7-1.2s-2.4.7-3.5.3c-.6-.3-1.5-.7-1.4-1.4 0-.8 1.3-.4 2.3-1.3 1.1-1 1.5-2.7 1.5-2.7z"/><path fill="url(#g)" fill-rule="evenodd" d="M9.6 20.2c-.7 1.1.7 2.8 1.8 3.7 1.7 1.5 4.4 2 6.7 2 1.9 0 4-.2 5.3-1.5.8-.8 1-3 1-3s-12-5.2-14.8-1.2z"/><path fill="url(#h)" fill-rule="evenodd" d="M7.7 16.1c-.4.7-.2 2.2.3 3 1 1.6 3.1 2.3 4.9 3a18 18 0 0 0 7.6.7c2-.2 4.4-.5 5.9-2 .8-.8 1-2.6 1-3.5 0-1.3-19.7-1.2-19.7-1.2z"/><path fill="url(#i)" fill-rule="evenodd" d="M7.1 10.5c-.5.3-.3-1-.9 1.7-.4 1.6.1 2.6 1 3.5 2.3 2.6 6.4 3.2 9.9 3.6 2.6.2 5.3 0 7.8-1 1.3-.5 2.8-1.2 3.4-2.5.8-1.7.9-4.9-.3-5.5-1-.5-9.6-.1-14.4 0-2.1 0-4.6-1-6.5.2z"/><ellipse cx="17.4" cy="10.6" fill="url(#j)" fill-rule="evenodd" rx="10.9" ry="5.2"/></svg>