<!--@hoso_boso--><svg xmlns="http://www.w3.org/2000/svg" xmlns:xlink="http://www.w3.org/1999/xlink" xml:space="preserve" width="128" height="128" viewBox="0 0 33.9 33.9"><defs><linearGradient id="d"><stop offset="0" stop-color="#7a4200"/><stop offset="1" stop-color="#d39a4e"/></linearGradient><linearGradient id="c"><stop offset="0" stop-color="#945200"/><stop offset="1" stop-color="#241300"/></linearGradient><linearGradient id="b"><stop offset="0" stop-color="#623600"/><stop offset="1" stop-color="#241300"/></linearGradient><linearGradient id="a"><stop offset="0" stop-color="#d39a4e"/><stop offset="1" stop-color="#945200"/></linearGradient><linearGradient xlink:href="#a" id="e" x1="5.1" x2="7.8" y1="12.3" y2="13.3" gradientUnits="userSpaceOnUse"/><linearGradient xlink:href="#b" id="f" x1="13.5" x2="19.6" y1="17.3" y2="20.5" gradientUnits="userSpaceOnUse"/><linearGradient xlink:href="#c" id="g" x1="28" x2="29.6" y1="17" y2="17.3" gradientUnits="userSpaceOnUse"/><linearGradient xlink:href="#d" id="h" x1="17.4" x2="15.2" y1="7.9" y2="7.6" gradientUnits="userSpaceOnUse"/></defs><path fill="#4c4c4c" d="M25.4 31.8h-17L0 17.2 8.5 2.5h16.9l8.5 14.7z"/><path fill="url(#e)" fill-rule="evenodd" stroke="#fff" stroke-width=".3" d="m6.1 10-2 2.5.7 4.6L6.4 19l2.9-.1-.1-6.5-.8-2.2Z"/><path fill="url(#f)" fill-rule="evenodd" stroke="#fff" stroke-width=".3" d="M17.8 4.3c-.6.3-3.9 3.2-3.9 3.2l-.4 2.1L12 13l.2 3.8-1.1.5-1 2L11 24l5 5.3 3.4.3 5.2-3.7.2-10.7-2.4-2.8V9.3z"/><path fill="url(#g)" fill-rule="evenodd" stroke="#fff" stroke-width=".3" d="M28.5 13.8 26.9 16l.2 2.1 1.8 1.1 2.4-1.6-1-3.1z"/><path fill="#522b00" fill-rule="evenodd" d="m6.3 18.7-.2-6 3-.2v6.2z"/><path fill="url(#h)" fill-rule="evenodd" d="M13.6 9.7a21 21 0 0 1 2.6 2.4l1.2-4.4 1.2.4 1 1.8 2.4-.7L18 4.4 14 7.5z"/><path fill="#6f3e00" fill-rule="evenodd" d="M16.4 12a8 8 0 0 0-1.3 1.7l1 5.1-3.8-2v-4l1.4-3.2z"/><path fill="#d39a4e" fill-rule="evenodd" d="m11.2 17.3-.9 2.1 5.6 3 .3-3.6-1.7-1-2-1z"/><path fill="#945200" fill-rule="evenodd" d="m20.7 16.1-2 2.3.3 2.1 2-2.2z"/><path fill="#d39a4e" fill-rule="evenodd" d="m27 16 2 .7 1.2-2.1-1.7-.6z"/></svg>