<!--@hoso_boso--><svg xmlns="http://www.w3.org/2000/svg" xmlns:xlink="http://www.w3.org/1999/xlink" xml:space="preserve" width="128" height="128" viewBox="0 0 33.9 33.9"><defs><linearGradient id="d"><stop offset=".6" stop-color="#fafffa"/><stop offset=".8" stop-color="#15be82"/><stop offset="1" stop-color="#05e15f"/></linearGradient><linearGradient id="c"><stop offset="0" stop-color="#69ff97"/><stop offset="1" stop-color="#ddffe7"/></linearGradient><linearGradient id="b"><stop offset="0" stop-color="#69ff97"/><stop offset="1" stop-color="#ddffe7"/></linearGradient><linearGradient id="a"><stop offset="0" stop-color="#69ff97"/><stop offset="1" stop-color="#ddffe7"/></linearGradient><linearGradient xlink:href="#a" id="e" x1="18.6" x2="18.5" y1="26.4" y2="10.4" gradientUnits="userSpaceOnUse"/><linearGradient xlink:href="#b" id="f" x1="31.2" x2="17.6" y1="-.3" y2="-9" gradientUnits="userSpaceOnUse"/><linearGradient xlink:href="#c" id="g" x1="13.2" x2="-.7" y1="28.5" y2="19.7" gradientUnits="userSpaceOnUse"/><radialGradient xlink:href="#d" id="h" cx="17" cy="17.6" r="1.9" fx="17" fy="17.6" gradientTransform="translate(0 .3)" gradientUnits="userSpaceOnUse"/><radialGradient xlink:href="#d" id="j" cx="17" cy="17.6" r="1.9" fx="17" fy="17.6" gradientTransform="translate(0 .3)" gradientUnits="userSpaceOnUse"/><radialGradient xlink:href="#d" id="l" cx="17" cy="17.6" r="1.9" fx="17" fy="17.6" gradientTransform="translate(0 .3)" gradientUnits="userSpaceOnUse"/><radialGradient xlink:href="#d" id="n" cx="17" cy="17.6" r="1.9" fx="17" fy="17.6" gradientTransform="translate(0 .3)" gradientUnits="userSpaceOnUse"/><filter id="i" width="1.5" height="1.5" x="-.3" y="-.3" color-interpolation-filters="sRGB"><feGaussianBlur stdDeviation=".4"/></filter><filter id="k" width="1.5" height="1.5" x="-.3" y="-.3" color-interpolation-filters="sRGB"><feGaussianBlur stdDeviation=".4"/></filter><filter id="m" width="1.5" height="1.5" x="-.3" y="-.3" color-interpolation-filters="sRGB"><feGaussianBlur stdDeviation=".4"/></filter><filter id="o" width="1.5" height="1.5" x="-.3" y="-.3" color-interpolation-filters="sRGB"><feGaussianBlur stdDeviation=".4"/></filter></defs><path fill="#4c4c4c" d="M25.4 31.8h-17L0 17.2 8.5 2.5h16.9l8.5 14.7z"/><ellipse cx="17.1" cy="17.9" fill="none" stroke="url(#e)" stroke-linecap="round" stroke-miterlimit="12" stroke-width=".9" rx="4.8" ry="12.7"/><ellipse cx="24.3" cy="-4.8" fill="none" stroke="url(#f)" stroke-linecap="round" stroke-miterlimit="12" stroke-width=".9" rx="4.8" ry="12.7" transform="rotate(58)"/><ellipse cx="6.3" cy="23.9" fill="none" stroke="url(#g)" stroke-linecap="round" stroke-miterlimit="12" stroke-width=".9" rx="4.8" ry="12.7" transform="scale(-1 1) rotate(58)"/><circle cx="17" cy="17.9" r="1.9" fill="url(#h)" fill-rule="evenodd" filter="url(#i)" transform="matrix(1.3 0 0 1.3 -4.3 -4.4)"/><circle cx="17" cy="17.9" r="1.9" fill="url(#j)" fill-rule="evenodd" filter="url(#k)" transform="matrix(1.3 0 0 1.3 5.8 -.6)"/><circle cx="17" cy="17.9" r="1.9" fill="url(#l)" fill-rule="evenodd" filter="url(#m)" transform="matrix(1.3 0 0 1.3 -6.8 -15)"/><circle cx="17" cy="17.9" r="1.9" fill="url(#n)" fill-rule="evenodd" filter="url(#o)" transform="matrix(1.3 0 0 1.3 -13 3.4)"/></svg>