<!--@hoso_boso--><svg xmlns="http://www.w3.org/2000/svg" xmlns:xlink="http://www.w3.org/1999/xlink" xml:space="preserve" width="128" height="128" viewBox="0 0 33.9 33.9"><defs><linearGradient id="a"><stop offset="0" stop-color="#fbffa8"/><stop offset="1" stop-color="#ffa842"/></linearGradient><linearGradient xlink:href="#a" id="b" x1="31.8" x2="16.9" y1="18.2" y2="18.2" gradientUnits="userSpaceOnUse" spreadMethod="repeat"/></defs><path fill="#4c4c4c" d="M25.4 31.8h-17L0 17.2 8.5 2.5h16.9l8.5 14.7z"/><path fill="url(#b)" fill-rule="evenodd" stroke="#fff" stroke-width=".3" d="M17 3s-.6 8-3.2 10.8C11 16.4 2.9 16.9 2.9 16.9s7.5.8 10.9 3.7c3.4 3 3.3 10.9 3.3 10.9s0-7.5 3.5-10.9c3.5-3.3 10.9-3.7 10.9-3.7s-8 .2-10.9-3.1C17.7 10.4 17 2.9 17 2.9Z"/><path fill="#fbffa8" fill-rule="evenodd" stroke="#fff" stroke-width=".3" d="M21.4 13.6c-.2-.5-.9-1.5 1-3.1C24.2 8.8 27.6 7 27.6 7s-1.7 3.7-3.1 5.6c-1.5 1.9-3.1 1-3.1 1zM21 21.3c.4-.1 1.4-.8 3 1 1.7 1.9 3.5 5.2 3.5 5.2s-3.8-1.6-5.7-3c-1.8-1.6-.9-3.2-.9-3.2ZM13.3 21.2c-.5 0-1.5-.8-3.2 1a31 31 0 0 0-3.4 5.3s3.8-1.7 5.7-3.2c1.8-1.4.9-3 .9-3zM13 13.6c-.5.2-1.5.9-3.1-1-1.7-1.8-3.4-5.2-3.4-5.2S10.2 9 12 10.5c1.9 1.5 1 3.1 1 3.1z"/></svg>