<!--@hoso_boso--><svg xmlns="http://www.w3.org/2000/svg" xmlns:xlink="http://www.w3.org/1999/xlink" xml:space="preserve" width="128" height="128" viewBox="0 0 33.9 33.9"><defs><linearGradient id="a"><stop offset="0" stop-color="#b55dd1"/><stop offset=".6" stop-color="#5e136e"/><stop offset=".8" stop-color="#703771"/><stop offset="1" stop-color="#edd4e9"/></linearGradient><linearGradient xlink:href="#a" id="b" x1="17.8" x2="18.4" y1="31.4" y2="5.7" gradientUnits="userSpaceOnUse"/></defs><path fill="#4c4c4c" d="M25.4 31.8h-17L0 17.2 8.5 2.5h16.9l8.5 14.7z"/><path fill="url(#b)" fill-rule="evenodd" stroke="#fff" stroke-width=".3" d="M11.9 6.1 9.2 11c-1 2-1.3 2.1-1.6 3.3a10.7 10.7 0 0 0 .2 5c.3 1 1.5 1.5 1.4 2.4-.1.7-1.5 1.4-1.5 1.4s1.2 3.5 2.8 4c.6.3 2-.5 2-.5v3.1h2v-1.8h1.9v1.8h2.1v-1.8h1.9v1.8H22v-2.9s1 .7 1.6.5c1.6-.4 3.4-3.5 3.4-3.5-1.5-1-1.6-1-1.7-1.8 0-.9 1.4-1.3 1.7-2.2.9-3 .5-3.8.2-5.7-.2-1.5-1.3-3.7-1.5-4.2-.6-1.5-2.5-3.8-2.5-3.8L22.3 8l-.1 3.2h-1.7c-.3-2.2.8-3.6.3-5.2-.7-1.9-3-3-3-3s1 1 .4 2.5c-.6 1.4-1.3 2.8-2 1.8-.8-1-.9-3-.9-3s-.7 2-.8 2.7l.3 2.8.3 1.4h-2v-3c0-.6-1.2-2-1.2-2z"/><path fill="#fffa71" fill-rule="evenodd" stroke="#fff" stroke-width=".3" d="M15.4 21c-.4-.4-4.8-2-4.8-2s0 1.9.7 2.5c.5.6 1.5 1 2.3.9.8-.1 1.8-1.4 1.8-1.4zM19.3 21c.4-.3 4.8-1.9 4.8-1.9s-.1 1.9-.7 2.5c-.6.6-1.5 1-2.3.9-.8-.1-1.8-1.4-1.8-1.4z"/><path fill="#4c4c4c" fill-rule="evenodd" stroke="#fff" stroke-width=".3" d="m17.3 22.6-1.9 2h3.8z"/></svg>