<!--@hoso_boso--><svg xmlns="http://www.w3.org/2000/svg" xmlns:xlink="http://www.w3.org/1999/xlink" xml:space="preserve" width="128" height="128" viewBox="0 0 33.9 33.9"><defs><linearGradient id="b"><stop offset="0" stop-color="#482cb6"/><stop offset="1" stop-color="#b6aaff"/></linearGradient><linearGradient id="a"><stop offset="0" stop-color="#b55dd1"/><stop offset=".6" stop-color="#5e136e"/><stop offset=".8" stop-color="#703771"/><stop offset="1" stop-color="#edd4e9"/></linearGradient><linearGradient xlink:href="#b" id="c" x1="15.7" x2="15.8" y1="18.5" y2="25.3" gradientTransform="translate(0 -.7)" gradientUnits="userSpaceOnUse" spreadMethod="reflect"/></defs><path fill="#4c4c4c" d="M25.4 31.8h-17L0 17.2 8.5 2.5h16.9l8.5 14.7z"/><path fill="url(#c)" fill-rule="evenodd" stroke="#000" stroke-width=".3" d="M6.6 13.5h20.1s1 .5 1.6 1.3c1 1.4 1.2 3.6.2 5-1.1 1.6-2.3 1.6-2.3 1.6H6.5l-1.6-1.6c-1-1-1-3.7-.1-4.8 1-1.5 1.8-1.5 1.8-1.5z"/><path fill="none" stroke="#fff" stroke-width=".3" d="M6.9 13.8h19.6s1 .4 1.6 1.2c1 1.3 1.2 3.4.2 4.7-1.1 1.4-2.2 1.5-2.2 1.5H6.8l-1.6-1.5c-1-1-1-3.6 0-4.7 1-1.4 1.7-1.2 1.7-1.2Z"/></svg>