<!--@hoso_boso--><svg xmlns="http://www.w3.org/2000/svg" xmlns:xlink="http://www.w3.org/1999/xlink" xml:space="preserve" width="128" height="128" viewBox="0 0 33.9 33.9"><defs><linearGradient id="a"><stop offset="0" stop-color="#0f4c86"/><stop offset="1" stop-color="#9db9ff"/></linearGradient><linearGradient xlink:href="#a" id="b" x1="25.2" x2="14" y1="1.2" y2="-10.1" gradientUnits="userSpaceOnUse" spreadMethod="reflect"/><linearGradient xlink:href="#a" id="c" x1="17.2" x2="16.8" y1="21.6" y2="2.3" gradientUnits="userSpaceOnUse"/></defs><rect width="24" height="24" x="11.9" y="-12" fill="url(#b)" fill-rule="evenodd" stroke="#191919" stroke-linecap="round" stroke-miterlimit="12" ry="2.6" transform="rotate(45)"/><path fill="#fff" fill-rule="evenodd" stroke="#fff" stroke-width=".3" d="M3 17s4.3-4.6 7-6c3.9-2 9.7-2 14 0 2.8 1.3 7 6 7 6s-4.4 3.7-7 5a16 16 0 0 1-14 0c-2.6-1.3-7-5-7-5Z"/><circle cx="16.9" cy="16.7" r="6.2" fill="url(#c)" fill-rule="evenodd"/><path fill="none" stroke="#fff" stroke-width=".8" d="M18 16.9c0-.7-.6-1-1.2-1-.9.2-1.3 1.2-1.1 2 .3 1.2 1.5 1.7 2.6 1.4 1.4-.4 2.1-2 1.7-3.3-.5-1.7-2.4-2.5-4-2-2 .7-2.9 2.9-2.2 4.8a4.2 4.2 0 0 0 5.4 2.5 4.8 4.8 0 0 0 2.7-6.1c-1-2.7-4.1-4-6.8-3a5.7 5.7 0 0 0-3.6 5"/></svg>