<!--@hoso_boso--><svg xmlns="http://www.w3.org/2000/svg" xmlns:xlink="http://www.w3.org/1999/xlink" xml:space="preserve" width="128" height="128" viewBox="0 0 33.9 33.9"><defs><linearGradient id="a"><stop offset="0" stop-color="#621cbb"/><stop offset="1" stop-color="#938fbb"/></linearGradient><linearGradient xlink:href="#a" id="b" x1="25.2" x2="14" y1="1.2" y2="-10.1" gradientUnits="userSpaceOnUse" spreadMethod="reflect"/></defs><g fill-rule="evenodd"><rect width="24" height="24" x="11.9" y="-12" fill="url(#b)" stroke="#191919" stroke-linecap="round" stroke-miterlimit="12" ry="2.6" transform="rotate(45)"/><path fill="#e5e9ff" stroke="#000" stroke-width=".2" d="M21 17.7s1.7.9 2.2 1.6c.6 1 .8 3.7.8 3.7s-.4-1.2-1.1-2.8c-.8-1.6-1.9-2.5-1.9-2.5zM19.5 8.3c.3 1.2 1.2 1.8 2.6 2.3 1.6.5 2.9.5 3.6 1C26.6 12 27 13 27 13s-.4 0-1-.4c-.5-.4-.5 0-.5 0l-.2 2.4s-.3.6-2.5.2C21.2 14.9 20 14 20 14l-.7-3.3s-.7-.3-.5-1.4c.3-1.1.7-1 .7-1zM15 8.3c-.2 1.1-1 1.8-2.5 2.2-1.6.5-2.9.5-3.6 1C8 12 7.5 13 7.5 13s.5 0 1-.5c.6-.4.6 0 .6 0l.2 2.4s.3.6 2.5.2c1.6-.3 2.7-1.2 2.7-1.2l.8-3.3s.7-.3.5-1.4c-.3-1-.7-1-.7-1ZM17.1 13.8l-1.5 2.4 1.5-.3 1.6.3zM13.5 17.5s-1.7.9-2.2 1.6c-.7 1-.8 3.7-.8 3.7s.3-1.2 1.1-2.8a7.8 7.8 0 0 1 1.9-2.5zM14 18.4s1.3.4 3.1.4c2 0 3-.4 3-.4s1 1.1 1.3 3c.3 1.8 0 4.5 0 4.5s-2.2-1-4.3-1c-2 0-4.2.8-4.2.8s-.3-3.2 0-4.3c.6-1.4.5-1.7 1.2-3z"/></g></svg>