<!--@hoso_boso--><svg xmlns="http://www.w3.org/2000/svg" xmlns:xlink="http://www.w3.org/1999/xlink" xml:space="preserve" width="128" height="128" viewBox="0 0 33.9 33.9"><defs><linearGradient id="b"><stop offset="0" stop-color="#e685c7"/><stop offset="1" stop-color="#e6cede"/></linearGradient><linearGradient id="a"><stop offset="0" stop-color="#86155b"/><stop offset="1" stop-color="#ff51d7"/></linearGradient><linearGradient xlink:href="#a" id="c" x1="25.2" x2="14" y1="1.2" y2="-10.1" gradientUnits="userSpaceOnUse" spreadMethod="reflect"/><linearGradient xlink:href="#b" id="d" x1="9.9" x2="9.8" y1="8.9" y2="24.5" gradientTransform="matrix(1 0 0 1 -.4 -.8)" gradientUnits="userSpaceOnUse"/><linearGradient xlink:href="#b" id="e" x1="9.9" x2="9.8" y1="8.9" y2="24.5" gradientTransform="matrix(.7 0 0 .7 12.2 12.8)" gradientUnits="userSpaceOnUse"/></defs><g fill-rule="evenodd"><rect width="24" height="24" x="11.9" y="-12" fill="url(#c)" stroke="#191919" stroke-linecap="round" stroke-miterlimit="12" ry="2.6" transform="rotate(45)"/><path fill="url(#d)" stroke="#000" stroke-width=".2" d="M13.5 22s-2.8-2.4-4.6-4.6c-2.3-2.7-3.7-4.3-2.9-6.6.5-1.5 2.5-2.4 4.1-2.3 1.6.2 3.8 3.2 3.8 3.2S16 9 17.6 8.9c1.5-.1 3.4.8 3.9 2.2.7 2.1-.4 3.4-2.8 6.2-2.4 2.7-5.2 4.7-5.2 4.7z"/><path fill="url(#e)" stroke="#000" stroke-width=".1" d="M21.4 28s-1.9-1.6-3-3c-1.6-1.9-2.5-2.9-2-4.4.4-1 1.7-1.6 2.8-1.5 1 0 2.5 2 2.5 2s1.4-1.8 2.5-1.8c1 0 2.2.5 2.5 1.4.5 1.5-.2 2.3-1.8 4.2-1.6 1.8-3.5 3.1-3.5 3.1z"/></g></svg>