<!--@hoso_boso--><svg xmlns="http://www.w3.org/2000/svg" xmlns:xlink="http://www.w3.org/1999/xlink" xml:space="preserve" width="128" height="128" viewBox="0 0 33.9 33.9"><defs><linearGradient id="b"><stop offset="0" stop-color="#fffbe9"/><stop offset="1" stop-color="#ffda91"/></linearGradient><linearGradient id="a"><stop offset="0" stop-color="#866415"/><stop offset="1" stop-color="#ffc451"/></linearGradient><linearGradient xlink:href="#a" id="c" x1="25.2" x2="14" y1="1.2" y2="-10.1" gradientUnits="userSpaceOnUse" spreadMethod="reflect"/><linearGradient xlink:href="#b" id="d" x1="9.4" x2="9.5" y1="7.2" y2="16.3" gradientUnits="userSpaceOnUse"/><linearGradient xlink:href="#b" id="e" x1="9.4" x2="9.5" y1="7.2" y2="16.3" gradientUnits="userSpaceOnUse"/><linearGradient xlink:href="#b" id="g" x1="16.9" x2="28.7" y1="16.7" y2="16.7" gradientUnits="userSpaceOnUse"/><linearGradient xlink:href="#b" id="f" x1="4.5" x2="16.8" y1="18.6" y2="18.6" gradientUnits="userSpaceOnUse"/></defs><g fill-rule="evenodd"><rect width="24" height="24" x="11.9" y="-12" fill="url(#c)" stroke="#191919" stroke-linecap="round" stroke-miterlimit="12" ry="2.6" transform="rotate(45)"/><path fill="url(#d)" d="m11.9 14.4-2.6-1.8-2.5 1.9.9-3-2.6-1.8h3.1l1-3.1 1 3h3.2l-2.5 1.8z" transform="rotate(8 228 234.6)"/><path fill="url(#e)" d="m11.9 14.4-2.6-1.8-2.5 1.9.9-3-2.6-1.8h3.1l1-3.1 1 3h3.2l-2.5 1.8z" transform="matrix(1.2 0 0 1.2 8.9 8.3)"/><path fill="url(#f)" d="M8 14.4c-1.2.3-2.4 1-3 2-.5 1-.7 2-.4 3 .4 1 1.4 1.8 2.7 2.3 1.2.5 2.6.9 4 1 2.9.5 5.5-.3 5.5-.3h-.1s-2.5.2-5.3-.2c-1.3-.2-2.5-.5-3.7-1-1.1-.5-1.9-1.2-2.2-2-.3-.8-.5-1.7 0-2.5.5-.9 1.6-2 2.6-2.3Z" color="#000" style="-inkscape-stroke:none"/><path fill="url(#g)" d="M17 12.4h-.1l3.3.6c1.8.2 4 .7 5.3 1.3 1 .4 1.4.9 1.9 1.7.4.8.4 1 .3 2 0 .3-.5 1.1-.9 1.5L25.5 21v.1l1.7-1.2c.4-.4.9-.9 1.1-1.3.6-.9.5-2 0-3-.6-.9-1.6-1.7-2.6-2.2-1.5-.7-3.7-1-5.5-1H17z" color="#000" style="-inkscape-stroke:none"/></g></svg>