<!--@hoso_boso--><svg xmlns="http://www.w3.org/2000/svg" xmlns:xlink="http://www.w3.org/1999/xlink" xml:space="preserve" width="128" height="128" viewBox="0 0 33.9 33.9"><defs><linearGradient id="c"><stop offset="0" stop-color="#f3bcbf"/><stop offset="1" stop-color="#fff"/></linearGradient><linearGradient id="b"><stop offset="0" stop-color="#fff"/><stop offset="1" stop-color="#f3bcbf"/></linearGradient><linearGradient id="a"><stop offset="0" stop-color="#c41928"/><stop offset="1" stop-color="#fe909b"/></linearGradient><linearGradient xlink:href="#a" id="d" x1="25.2" x2="14" y1="1.2" y2="-10.1" gradientUnits="userSpaceOnUse" spreadMethod="reflect"/><linearGradient xlink:href="#b" id="e" x1="14" x2="13.6" y1="25.2" y2="10.7" gradientUnits="userSpaceOnUse"/><linearGradient xlink:href="#c" id="f" x1="21.8" x2="21.7" y1="11.3" y2="21.1" gradientUnits="userSpaceOnUse"/></defs><g fill-rule="evenodd"><rect width="24" height="24" x="11.9" y="-12" fill="url(#d)" stroke="#191919" stroke-linecap="round" stroke-miterlimit="12" ry="2.6" transform="rotate(45)"/><path fill="url(#e)" stroke="#000" stroke-width=".3" d="m17.4 26-3-4.8s-.8 1.8-2.7 1.5C8.9 22.3 9 20.2 9 20.2s-2.5.3-2.5-3c0-3 2.1-3 2.1-3s-1-2.6 2-3.3c4.2-1 4.1 2.5 4.1 2.5s2.4-1.3 3.7 2c1 2.4-2.2 4.7-2.2 4.7z"/><path fill="url(#f)" stroke="#000" stroke-width=".3" d="m20.3 21 .4-4.3s-2-.1-2.1-2c-.2-1.6 2.1-1 2.1-1s-1.4-1.9 0-2.7c1.2-.7 2 1.2 2 1.2S23.6 10 25 11c2.4 1.4.2 3.2.2 3.2s2.2 2 .3 3.2c-2.1 1.4-3.4-.4-3.4-.4z"/></g></svg>