<!--@hoso_boso--><svg xmlns="http://www.w3.org/2000/svg" xml:space="preserve" width="128" height="128" viewBox="0 0 33.9 33.9"><rect width="33.9" height="33.9" fill="#4c4c4c" ry="4.4"/><rect width="9.7" height="5.5" x="19.6" y="6.6" fill="#fff" ry="2.7"/><path fill="#fff" fill-rule="evenodd" stroke="#000" stroke-width=".3" d="m22.3 8-1.5 2.6 2.4 1s1.6.4 2.4-1.4c.9-1.7 2.1-1.6 2.1-1.6H30s.8-1.7.3-2.7c-.6-1-8-5-9.8-4.5-1.8.6-7.4 8-7.6 10v2.4l7.5 4.5 5.9-2.8 4-4.2-.3-2.9M12.8 13.9l-9 13 10 5.8 6.7-14.3Z"/><path fill="none" stroke="#000" stroke-width=".3" d="m10.8 16.8 8.1 4.7M5.9 23.8l9.4 5.5"/></svg>