<!--@hoso_boso--><svg xmlns="http://www.w3.org/2000/svg" xmlns:xlink="http://www.w3.org/1999/xlink" xml:space="preserve" width="128" height="128" viewBox="0 0 33.9 33.9"><defs><linearGradient id="b"><stop offset="0" stop-color="#fefefe"/><stop offset="1" stop-color="#6e6e6e"/></linearGradient><linearGradient id="a"><stop offset="0" stop-color="#fefefe"/><stop offset="1" stop-color="#9d9d9d"/></linearGradient><linearGradient xlink:href="#a" id="c" x1="8" x2="9.4" y1="13.3" y2="5.1" gradientTransform="matrix(1 0 0 1 -1.1 -1.2)" gradientUnits="userSpaceOnUse"/><linearGradient xlink:href="#b" id="d" x1="24.8" x2="28.9" y1="10.9" y2="5.3" gradientTransform="matrix(1 0 0 1 -1.1 -1.2)" gradientUnits="userSpaceOnUse"/></defs><rect width="33.9" height="33.9" fill="#4c4c4c" ry="4.4"/><path fill="#fefefe" fill-rule="evenodd" stroke="#000" stroke-width=".3" d="m9.8 24.2-2.5 2.5 9.6 5 9.6-5-2.2-2"/><path fill="#fefefe" fill-rule="evenodd" stroke="#000" stroke-width=".3" d="m8.5 15.7 1.2 8.5L17 28l7.5-3.3 1-9-8.5 2zM2.3 11.1s-1 1.2-1 2c0 1 .5 1.8.5 1.8l5.3-.2-.1-1.2Z"/><path fill="#fefefe" fill-rule="evenodd" stroke="#000" stroke-width=".3" d="m11.9 7.6 5 3.5v6.6l-8.4-2-1.2-2.5"/><path fill="url(#c)" fill-rule="evenodd" stroke="#000" stroke-width=".3" d="M12.5 5.3s-3-1.5-6.7.5c-4.5 2.4-4.2 5-4.2 5L7 13.5s.8-.8 1.8-1.3c1.2-.6 2-.6 2-.6z"/><path fill="#fefefe" fill-rule="evenodd" stroke="#000" stroke-width=".3" d="M31.7 11.1s1 1.2 1 2c0 1-.5 1.8-.5 1.8l-5.3-.2.1-1.2zM22.1 7.6l-5 3.5v6.6l8.4-2 1.2-2.5"/><path fill="url(#d)" fill-rule="evenodd" stroke="#000" stroke-width=".3" d="M21.5 5.3s3-1.5 6.7.5c4.5 2.4 4.2 5 4.2 5L27 13.5s-.8-.8-1.8-1.3c-1.2-.6-2-.6-2-.6z"/></svg>