<!--@hoso_boso--><svg width="128" height="128" viewBox="0 0 33.867 33.867" version="1.1" id="svg5" xml:space="preserve" xmlns:xlink="http://www.w3.org/1999/xlink" xmlns="http://www.w3.org/2000/svg"><defs id="defs2"><linearGradient id="linearGradient1049"><stop style="stop-color:#fff;stop-opacity:1" offset="0" id="stop1045"/><stop style="stop-color:#aeaeae;stop-opacity:1" offset="1" id="stop1047"/></linearGradient><linearGradient xlink:href="#linearGradient1049" id="linearGradient1051" x1="13.671" y1="26.67" x2="13.693" y2="6.241" gradientUnits="userSpaceOnUse" gradientTransform="matrix(1.10873 0 0 1.10873 -1.927 -1.717)"/></defs><g id="layer1"><rect style="opacity:1;fill:#4c4c4c;fill-opacity:1;stroke-width:.0770466;stroke-linecap:round;stroke-linejoin:round" id="rect2589" width="33.867" height="33.867" x="0" y="0" ry="4.362"/><path style="fill:url(#linearGradient1051);fill-opacity:1;fill-rule:evenodd;stroke:#000;stroke-width:.293352px;stroke-linecap:butt;stroke-linejoin:miter;stroke-opacity:1" d="M3.034 5.355c.253.693 1.215 1.159 1.588 3.714.373 2.555 0 8.737 0 8.737s-.325.855-1.42 2.901c-1.094 2.046-.48 7.157-.48 7.157l2.502 1.624 5.004.27.698-1.364 4.066.054 1.997 1.83 6.905-.108 8.169-4.526-.313-5.5-8.95-.498-5.787-4.146.132-8.142-1.936-2.09z" id="path363"/><path style="fill:none;fill-rule:evenodd;stroke:#000;stroke-width:.293352px;stroke-linecap:butt;stroke-linejoin:miter;stroke-opacity:1" d="m11.299 5.377.276 11.833 7.435 5.024 2.863-.14.782-2.643" id="path365"/><path style="fill:none;fill-rule:evenodd;stroke:#000;stroke-width:.293352px;stroke-linecap:butt;stroke-linejoin:miter;stroke-opacity:1" d="m2.336 23.446 2.539 2.61L17.157 26l1.396 1.549 4.884-.174 8.457-4.763" id="path369"/></g></svg>