<!--@hoso_boso--><svg xmlns="http://www.w3.org/2000/svg" xmlns:xlink="http://www.w3.org/1999/xlink" xml:space="preserve" width="128" height="128" viewBox="0 0 33.9 33.9"><defs><linearGradient id="a"><stop offset="0" stop-color="#fff"/><stop offset="1" stop-color="#bfbfbf"/></linearGradient><linearGradient xlink:href="#a" id="b" x1="11.8" x2="19.8" y1="27.1" y2="8.7" gradientUnits="userSpaceOnUse"/></defs><rect width="33.9" height="33.9" fill="#4c4c4c" ry="4.4"/><path fill="url(#b)" fill-rule="evenodd" stroke="#000" stroke-width=".3" d="M1.8 13.2 6.6 6s1.5-2.4 9.6.5c4 1.4 7.4 3.5 10.6 6.2 7.6 6.6 5.3 9.4 5.3 9.4l-4.3 6.5s-1.8.9-9.6-1.1c-3.8-1-8.2-3.5-11.8-6.8-5.3-4.8-4.6-7.6-4.6-7.6Z"/><ellipse cx="23.9" cy="2" fill="#4c4c4c" stroke="#000" stroke-linecap="round" stroke-linejoin="round" stroke-width=".3" rx="13.7" ry="3.9" transform="rotate(31) skewX(3.4)"/><ellipse cx="24.6" cy="7.3" fill="#4c4c4c" stroke="#000" stroke-linecap="round" stroke-linejoin="round" stroke-width=".3" rx="1.5" ry="2.6" transform="rotate(38)"/><ellipse cx="17.9" cy="7.6" fill="#4c4c4c" stroke="#000" stroke-linecap="round" stroke-linejoin="round" stroke-width=".3" rx=".8" ry="2" transform="rotate(37)"/><ellipse cx="31" cy="6.3" fill="#4c4c4c" stroke="#000" stroke-linecap="round" stroke-linejoin="round" stroke-width=".3" rx=".8" ry="2" transform="rotate(37)"/></svg>