<!--@hoso_boso--><svg xmlns="http://www.w3.org/2000/svg" xml:space="preserve" width="128" height="128" viewBox="0 0 33.9 33.9"><rect width="33.9" height="33.9" fill="#4c4c4c" ry="4.4"/><path fill="#fff" fill-rule="evenodd" stroke="#000" stroke-width=".3" d="M12.7 5.3h2.1V1.9H19v3.4h2.2v1H19V12l6.8 5.6V22l-5.8 9h-6.6l-6-9v-4.5l7.3-5.6V6.3h-2.1Z"/><path fill="#4c4c4c" fill-rule="evenodd" stroke="#000" stroke-width=".3" d="M15.9 6.3v6.1l-7 5.3s0 1 3.5 1.9c3 .6 6 .7 9.3 0 2.7-1.2 3-2 3-2L18 12.5v-6Z"/><path fill="#fff" fill-rule="evenodd" stroke="#000" stroke-width=".3" d="M13.1 19 24 17.5s-.3.8-2.9 1.5a14.1 14.1 0 0 1-5.7.4L13 19z"/></svg>