<!--@hoso_boso--><svg xmlns="http://www.w3.org/2000/svg" xml:space="preserve" width="128" height="128" viewBox="0 0 33.9 33.9"><rect width="33.9" height="33.9" fill="#4c4c4c" ry="4.4"/><path fill="#fff" fill-rule="evenodd" stroke="#000" stroke-width=".3" d="m18 29.2-10.3.1-5.5-5.9L3 15 7 13.3l1.7-5.5L11 6.7l1.3-1.9 5 .2L20.7 7l1.5 5.2-4 1.2z"/><path fill="#4c4c4c" fill-rule="evenodd" stroke="#000" stroke-width=".3" d="M4.7 16.5c-.4.8-1 6.4-1 6.4l4.5 4.5 2-2.2L8 18.5ZM10.9 16.9l-2.1 1.3-3-2.5 1.6-.4ZM13.4 17.6l-5-3.7 1.9-5.4 5.2 1-2 3.9zM16.2 8.6 12 7l1-1h3.5l1.2 1.2z"/><path fill="#fff" fill-rule="evenodd" stroke="#000" stroke-width=".3" d="M18.7 14.6V29s.3.8 2.9 1.4c1.4.2 3.1.6 5.4-.2a7.3 7.3 0 0 0 2-1.2V23s3-3.6 3-4v-2.1L29 19v-4.3s-.5.3-1.6.6c-2.3.4-4.6.4-6.6 0-1-.2-1.4-.2-2.1-.8z"/><path fill="none" stroke="#000" stroke-width=".3" d="m24 15.6.1 7.3M21.7 15.6v3.1M21 30.3v-4.7M26.9 30.2v-5.8"/><ellipse cx="23.9" cy="14.1" fill="#fff" stroke="#000" stroke-linecap="round" stroke-linejoin="round" stroke-width=".3" rx="5.1" ry="1.2"/></svg>