<!--@hoso_boso--><svg xmlns="http://www.w3.org/2000/svg" xml:space="preserve" width="128" height="128" viewBox="0 0 33.9 33.9"><rect width="33.9" height="33.9" fill="#4c4c4c" ry="4.4"/><path fill="#fff" fill-rule="evenodd" stroke="#000" stroke-width=".3" d="m1.8 25.2 9.4-16s0 .6 1.5 2.3c.9 1 1.6 1.4 3.2 1.7 2.8.2 3.4-.5 3.4-.5L9.5 29.1s-.3.9-2.7.4a7 7 0 0 1-3.9-2c-1.6-1.6-1-2.3-1-2.3Z"/><ellipse cx="18.4" cy="2.4" fill="#fff" stroke="#000" stroke-linecap="round" stroke-linejoin="round" stroke-width=".3" rx="4.2" ry="2.7" transform="rotate(24.3) skewX(-1)"/><path fill="#fff" fill-rule="evenodd" stroke="#000" stroke-width=".3" d="M19.6 4.5c-1.4 0-2 1.5-2 1.5L16 8.5l1.2.7s.3-1 1.6-2.8c.8-1.1 1.7-.9 2.4-.2 1.2 1.1-.2 2.4.8 4.2.7 1.2 1 1.5 1.6 1.6l-.3.2.8-.1h.2c1 .1 1.6 0 1.9-.3h.6l-1 3.3 2.2-2.6 1.8 3-.4-3.3 3.5.8-2.8-2 3.1-1.7-3.4.4.9-3.3L28.6 9l-1.9-3 .5 3.3-3.5-.9 2.7 2-1.2.7c-.8 0-1.8-.6-2.2-1.5-.6-1 .6-2.7-.2-3.7-1-1.1-1.9-1.4-3.2-1.4Z"/></svg>