<!--@hoso_boso--><svg xmlns="http://www.w3.org/2000/svg" xml:space="preserve" width="128" height="128" viewBox="0 0 33.9 33.9"><rect width="33.9" height="33.9" fill="#4c4c4c" ry="4.4"/><path fill="#fff" fill-rule="evenodd" stroke="#000" stroke-width=".3" d="M19.6 4.5c-1.4 0-2 1.5-2 1.5L16 8.5l1.4.6s0-.9 1.4-2.7c.8-1.1 1.7-.9 2.4-.2 1.2 1.1-.2 2.4.8 4.2.7 1.2 1 1.5 1.6 1.6l-.3.2.8-.1h.2c1 .1 1.6 0 1.9-.3h.6l-1 3.3 2.2-2.6 1.8 3-.4-3.3 3.5.8-2.8-2 3.1-1.7-3.4.4.9-3.3L28.6 9l-1.9-3 .5 3.3-3.5-.9 2.7 2-1.1.7c-.9 0-1.9-.6-2.3-1.5-.6-1 .6-2.7-.2-3.7-1-1.1-1.9-1.4-3.2-1.4Z"/><circle cx="11.5" cy="18.6" r="9.7" fill="#fff" stroke="#000" stroke-linecap="round" stroke-linejoin="round" stroke-width=".3"/><path fill="#fff" fill-rule="evenodd" stroke="#000" stroke-width=".3" d="m15 8.3 3 1.6-.4.6-3-1.5z"/><path fill="#4c4c4c" fill-rule="evenodd" stroke="#000" stroke-width=".3" d="M4.2 13.8s.6-1.1 1.6-2a7 7 0 0 1 4.6-2c1.8-.2 2.5.1 2.5.1l-.5 1.2s-.6-.1-2 0c-2 .1-2.7.7-3.8 1.6l-1.4 1.6z"/></svg>