<svg xmlns="http://www.w3.org/2000/svg" width="40" height="40" viewBox="0 96 800 800">
  <path d="M358.6 598.7h67.5c0-16.6 2.2-32 6.5-46.4 4.3-14.3 17.3-30.4 38.8-48.3 20-15.9 34.1-32.3 42.6-49.5 8.5-17 12.7-36 12.7-56.6 0-36.4-11.2-65.6-33.5-87.5-22.4-21.9-52.6-32.8-90.8-32.8a157 157 0 0 0-90.2 26.7 154.1 154.1 0 0 0-57.6 72.1l62 23.3a97.1 97.1 0 0 1 32.8-43.7 79.8 79.8 0 0 1 47.7-15.3c19.1 0 35 5.5 47.6 16.4a53.8 53.8 0 0 1 18.8 42.7c0 13.3-4 26.2-12.1 38.8-8.1 12.7-19.6 25-34.3 37.1a188.6 188.6 0 0 0-43.7 52.1c-9.8 18.2-14.8 41.8-14.8 70.9z"/>
  <circle cx="400" cy="496" r="361.8" fill="none" stroke="#000" stroke-linejoin="round" stroke-width="72.3"/>
  <circle cx="396.6" cy="679.7" r="41.7"/>
</svg>
