<svg height="41.441" viewBox="0 96 828.827 828.827" width="41.441" version="1.1" id="svg4" xmlns="http://www.w3.org/2000/svg"><path d="M415.083 778.649c13.2 0 24.096-4.154 32.69-12.462 8.594-8.31 12.891-19.063 12.891-32.262 0-13.2-4.248-24.19-12.745-32.973-8.496-8.783-19.344-13.174-32.544-13.174-13.198 0-24.095 4.385-32.69 13.157-8.594 8.77-12.89 19.755-12.89 32.955 0 13.199 4.248 23.959 12.744 32.279 8.497 8.32 19.345 12.48 32.544 12.48zm-37.561-145.697h79.218v-377.94h-79.218Zm36.953 291.875c-57.469 0-111.304-10.798-161.506-32.395-50.201-21.597-94.115-51.208-131.741-88.833-37.625-37.626-67.236-81.539-88.833-131.738C10.798 621.661 0 567.799 0 510.274c0-57.525 10.798-111.414 32.395-161.665 21.597-50.251 51.178-94.033 88.745-131.345 37.566-37.312 81.463-66.85 131.69-88.616C303.057 106.883 356.949 96 414.506 96c57.557 0 111.483 10.868 161.779 32.604 50.296 21.736 94.086 51.235 131.37 88.497 37.284 37.262 66.8 81.08 88.549 131.452 21.749 50.373 32.623 104.332 32.623 161.877 0 57.52-10.883 111.379-32.648 161.575-21.765 50.195-51.304 94.021-88.616 131.478-37.312 37.457-81.12 67.046-131.426 88.765-50.306 21.72-104.193 32.579-161.662 32.579zm.156-79.218c92.826 0 171.768-32.577 236.826-97.732 65.058-65.155 97.587-144.382 97.587-237.681 0-92.826-32.467-171.768-97.4-236.826-64.933-65.058-144.198-97.587-237.796-97.587-92.68 0-171.623 32.467-236.826 97.4S79.218 417.381 79.218 510.979c0 92.68 32.577 171.623 97.732 236.826s144.382 97.804 237.681 97.804z" id="path2"/></svg>