<svg height="41.441" viewBox="0 96 828.827 828.827" width="41.441" version="1.1" id="svg4" xmlns="http://www.w3.org/2000/svg"><path d="M417.001 743.696q17.13 0 29.826-12.696 12.695-12.695 12.695-30.188t-12.695-29.826q-12.696-12.334-30.109-12.334-17.413 0-29.826 12.288-12.413 12.289-12.413 30.154 0 17.211 12.486 29.906 12.487 12.696 30.036 12.696zm-39.522-146h67.478q0-24.87 6.5-46.37 6.5-21.5 38.804-48.369 29.87-23.739 42.587-49.423 12.718-25.683 12.718-56.644 0-54.629-33.538-87.477-33.537-32.847-90.767-32.847-50.695 0-90.174 26.76-39.478 26.761-57.608 72.106l62.043 23.308q11.566-28.565 32.71-43.783 21.144-15.217 47.769-15.217 28.63 0 47.51 16.325 18.88 16.324 18.88 42.713 0 19.918-12.152 38.853-12.152 18.935-34.326 37.108-28.869 24.87-43.652 52.105-14.782 27.235-14.782 70.852zm36.73 327.131q-85.469 0-161.006-32.395-75.536-32.395-131.975-88.833Q64.79 747.16 32.395 671.702 0 596.243 0 510.774q0-86.469 32.395-162.006 32.395-75.536 88.745-131.504 56.349-55.968 131.849-88.616Q328.489 96 414.006 96q86.516 0 162.12 32.604 75.603 32.604 131.529 88.497t88.549 131.452q32.623 75.559 32.623 162.143 0 85.547-32.648 161.075-32.648 75.527-88.616 131.896-55.968 56.37-131.426 88.765-75.459 32.395-161.928 32.395zm-.078-79.218q139.739 0 237.326-97.732 97.587-97.732 97.587-237.181 0-139.739-97.587-237.326-97.587-97.587-237.609-97.587-139.021 0-236.826 97.587-97.804 97.587-97.804 237.609 0 139.021 97.732 236.826 97.732 97.804 237.181 97.804zm0-334.913z" id="path2"/></svg>