<svg height="37.441" viewBox="0 96 748.827 748.827" width="37.441" version="1.1" id="svg4" xmlns="http://www.w3.org/2000/svg"><path d="M79.218 844.827c-21.671 0-40.292-7.785-55.862-23.356C7.786 805.901-.047 787.281 0 765.609l1.098-505.25c.048-21.826 7.786-40.58 23.356-56.261 15.57-15.681 34.191-23.521 55.862-23.521H354.23v79.783H80.316l-1.098 505.249h504.15V491.696h79.784v273.913c0 21.671-7.84 40.292-23.521 55.862-15.681 15.57-34.435 23.356-56.262 23.356zm209.914-233.131-55.001-56.001 379.912-379.912H413.131V96h335.696v335.696h-79.783V231.784Z" id="path2" style="fill:#212752;fill-opacity:1"/></svg>