<svg xmlns="http://www.w3.org/2000/svg" xmlns:xlink="http://www.w3.org/1999/xlink" width="48" height="48" viewBox="0 96 960 960">
  <defs>
    <linearGradient id="a">
      <stop offset="0" stop-color="#ff9500"/>
      <stop offset="1" stop-color="#ffd500"/>
    </linearGradient>
    <linearGradient xlink:href="#a" id="b" x1="10.9" x2="956.7" y1="580.4" y2="580.4" gradientUnits="userSpaceOnUse"/>
  </defs>
  <path fill="url(#b)" d="m871.3 554.9-26.4-58-58.5-27.5 58.5-27 26.3-58.4 27.6 58.5 57.9 27-58 27.5zm-127-188-40.1-87-87.6-40.7 87.6-40.6 40-87 41.3 87 87 40.6-87 40.7zM325 1049.2q-36.2 0-61.1-26.3-25-26.3-25-64.8h172.8q0 38.5-25.5 64.8-25.5 26.3-61.2 26.3zM159 892.7v-66.8h332v66.8zm5-131.2Q94.2 716.2 52.6 648 11 579.9 11 494.4q0-127.7 93-221 93-93.2 221.1-93.2 127.7 0 221 93.3 93.2 93.2 93.2 220.9 0 85.5-41.1 153.7-41.2 68.1-112.1 113.4z"/>
</svg>
