<svg height="48" viewBox="0 96 960 960" width="48" version="1.1" id="svg4" xmlns:xlink="http://www.w3.org/1999/xlink" xmlns="http://www.w3.org/2000/svg"><defs id="defs8"><linearGradient id="linearGradient873"><stop style="stop-color:#ff9500;stop-opacity:1" offset="0" id="stop869"/><stop style="stop-color:#ffd500;stop-opacity:1" offset="1" id="stop871"/></linearGradient><linearGradient xlink:href="#linearGradient873" id="linearGradient875" x1="10.9" y1="580.405" x2="956.685" y2="580.405" gradientUnits="userSpaceOnUse"/></defs><path d="m871.25 554.884-26.392-57.913-58.478-27.522 58.478-26.957 26.392-58.479 27.522 58.48 57.913 26.956-57.913 27.522zm-127-188-40.088-87-87.565-40.654 87.565-40.652 40.088-87 41.217 87 87.001 40.652-87.001 40.653zM325.031 1049.23q-36.261 0-61.174-26.325-24.913-26.326-24.913-64.848h172.74q0 38.522-25.479 64.848-25.478 26.325-61.174 26.325zM159.075 892.666v-66.783h331.913v66.783zm5-131.174q-69.957-45.26-111.566-113.435Q10.9 579.883 10.9 494.361q0-127.653 92.957-220.892 92.957-93.239 221.174-93.239 127.653 0 220.892 93.24 93.239 93.238 93.239 220.891 0 85.522-41.108 153.696-41.109 68.174-112.066 113.435z" id="path2" style="fill:url(#linearGradient875);fill-opacity:1"/></svg>