<!--@hoso_boso--><svg xmlns="http://www.w3.org/2000/svg" xml:space="preserve" viewBox="0 0 28 32"><path fill="#27273f" fill-rule="evenodd" d="M14 0 0 6v17l14 9 14-9V6Z"/><path fill="none" stroke="#8e9196" stroke-width=".7" d="M14 2.5 2 7.3v14.8l12 7.4L26 22V7.1Z"/><path fill="none" stroke="#5d5b73" stroke-width=".5" d="M14 4.9 4 9v12l10 6 10-6V9z"/><path fill="#e2e2ed" fill-rule="evenodd" d="M6.7 24.6 8.1 26l1.8.5v-.8l-1.4-.5-1.2-1.1ZM10 25.4l-1.4-.6-1-1 2.1-3.1.8 1.1h1.4z"/><path fill="none" stroke="#e2e2ed" stroke-width=".5" d="m10.8 21.3 1.2.1.9-1.3-.7-1.2h-1.3l-.8 1.4z"/><path fill="#e2e2ed" fill-rule="evenodd" d="m12.4 21.8.7-1.1 3.6 3.4-.3.3zM9.4 20.1 5 18l.2-.3 5 1.4ZM10.2 18.7l-2.7-1 2.6-.2-.2.6ZM14.5 20l-.4.4h-.9l2.2 1.9zM20.5 4.7l-5.2 3.1s-1 3.9-2.3 6.2c-1.3 2.4-2.5 3.5-2.5 3.5s0 1 .2 1l1.3-.1 6.3-10-5.6 10.4.6 1 1-.1s.8-2.4 1.7-4c1-1.7 4.1-5 4.1-5z"/></svg>