<!--@hoso_boso--><svg xmlns="http://www.w3.org/2000/svg" xml:space="preserve" viewBox="0 0 28 32"><g transform="translate(-.622 -3.056)"><path fill="#27273f" fill-rule="evenodd" d="m14.622 3.056-14 6v17l14 9 14-9v-17Z"/><path fill="none" stroke="#8e9196" stroke-width=".7" d="m14.622 5.556-12 4.8v14.771l12 7.43 12-7.491V10.188Z"/><path fill="none" stroke="#5d5b73" stroke-width=".5" d="m14.622 7.913-10 4.143v12l10 6 10-6v-12z"/><ellipse cx="10.347" cy="14.142" fill="#e2e2ed" fill-rule="evenodd" rx="1.248" ry="1.261"/><ellipse cx="14.536" cy="12.954" fill="#e2e2ed" fill-rule="evenodd" rx="1.248" ry="1.261"/><ellipse cx="-18.896" cy="14.142" fill="#e2e2ed" fill-rule="evenodd" rx="1.248" ry="1.261" transform="scale(-1 1)"/><path fill="#e2e2ed" fill-rule="evenodd" d="m14.622 14.816 1-.022 1.632 2.065.891-1.022h1.326l1.978 1.804-2.565 5.76-2.065-4.347-2.197 4.413m0-8.652-1-.021-1.632 2.065-.891-1.022H9.773l-1.978 1.804 2.565 5.76 2.064-4.347 2.198 4.412"/><path fill="#27273f" fill-rule="evenodd" d="m18.928 17.055.956 1.021-.935 2.456zM14.622 16.163l1.415 1.152-1.415 2.891m0-4.043-1.415 1.152 1.415 2.89M10.316 17.054l-.956 1.022.934 2.456z"/><path fill="#e2e2ed" fill-rule="evenodd" d="m14.622 24.923 1.263-2.608 2.825 1.5-4.088 3.042m0-1.934-1.263-2.609-2.826 1.5 4.089 3.043"/></g></svg>