<!--@hoso_boso--><svg xmlns="http://www.w3.org/2000/svg" xml:space="preserve" viewBox="0 0 28 32"><path fill="#27273f" fill-rule="evenodd" d="M14 0 0 6v17l14 9 14-9V6Z"/><path fill="none" stroke="#8e9196" stroke-width=".7" d="M14 2.5 2 7.3v14.77l12 7.43 12-7.49V7.13Z"/><path fill="none" stroke="#5d5b73" stroke-width=".5" d="M14 4.86 4 9v12l10 6 10-6V9z"/><path fill="#e2e2ed" fill-rule="evenodd" d="m7.62 9.77.86-.76 1.45 1.01.03.77 3.75 3.53-.92.88-3.5-3.7-.87-.19zM12.6 15.62l.71 1.72 4.43 4.82 1.84.37L21 21.21l-.16-1.75-4.8-4.49-1.9-.7z"/><path fill="#27273f" fill-rule="evenodd" d="m13.56 15.83.4-.3 5.87 5.74-.4.4-1.3-.28-4.36-4.7z"/><path fill="#e2e2ed" fill-rule="evenodd" d="m14.38 14.12 1.91.67.52.52.62-.65-1.85-1.75zM15.59 11.65l.24 1.1 1.88 1.73 1.2.15 1.56-.52.99-2.52-.62-.59-1.47 1.6-1.45-.18-.43-1.45 1.7-1.53-.4-.56-2.44.77zM12.42 15.92l.61 1.6.86.83-.73.65-1.88-1.79zM10.94 17.34l2.07 2 .18.88-.72 1.8-2.45.82-.55-.46 1.66-1.66-.37-1.32-1.3-.4-1.5 1.66-.7-.56.92-2.24 1.96-.8Z"/></svg>