<!--@hoso_boso--><svg xmlns="http://www.w3.org/2000/svg" xml:space="preserve" viewBox="0 0 28 32"><path fill="#27273f" fill-rule="evenodd" d="M14 0 0 6v17l14 9 14-9V6Z"/><path fill="none" stroke="#8e9196" stroke-width=".7" d="M14 2.5 2 7.3v14.8l12 7.4L26 22V7.1Z"/><path fill="none" stroke="#5d5b73" stroke-width=".5" d="M14 4.9 4 9v12l10 6 10-6V9z"/><path fill="#e2e2ed" fill-rule="evenodd" d="m14.6 8 2.9.1-1.5 1c-1.3 1-1.8 2.7-1.8 2.7s-.4-.8-.2-2 .6-1.8.6-1.8z"/><path fill="#e2e2ed" fill-rule="evenodd" d="M18.2 8.5s-.7 0-2 1c-1.6 1.3-1.9 2.3-1.9 2.3l1.2.2s.6-.6 2-1a25.3 25.3 0 0 1 3-.9z"/><path fill="#e2e2ed" fill-rule="evenodd" d="M15.7 12s1.6-.8 2.5-1c.9-.3 2.8-.4 2.8-.4l-.1 3s-.6-.8-2-1.4c-1.3-.6-3.2-.2-3.2-.2zM8.6 13.1a5.7 5.7 0 0 1 4.5-.8l.1.6h-2c-1.4.4-2.3 1-2.3 1z"/><path fill="#e2e2ed" fill-rule="evenodd" d="m10.6 13.7 1-.7 1.2-.1-1.2.9-.3.5zM13.7 12.2s-.3 0-.4.2c-.2.2 0 .4.5.7a5 5 0 0 0 3.2 0c.2-.2.5-.7.1-.8l-.8.1c-.6.2-1.4 0-1.8 0a3.9 3.9 0 0 1-.8-.2z"/><path fill="#e2e2ed" fill-rule="evenodd" d="M17.6 13.4 20 17s-.1 2.6-.4 3.5c-.2.7-.3 1.6-1.7 2.2-1.4.6-4.7.4-6 .3-1.3 0-2.8-.4-3.5-1.2a5.3 5.3 0 0 1-1-1.7v-2.5L9.7 16l1.6-.9c1.1-.6 2-1.7 2-1.7l1.2.3-.6 1.5c-.4 1.1-2.1 1.5-2.1 1.5s1.1 0 2-1c1-.8 1.3-2 1.3-2l.7.1s.8 1.5.9 2.8l.2 3s.2 0 .2-1.7c0-1.8-.5-4.2-.5-4.2z"/></svg>