<!--@hoso_boso--><svg xmlns="http://www.w3.org/2000/svg" xml:space="preserve" viewBox="0 0 28 32"><g transform="translate(-.62 -3.06)"><path fill="#27273f" fill-rule="evenodd" d="m14.62 3.06-14 6v17l14 9 14-9v-17Z"/><path fill="none" stroke="#8e9196" stroke-width=".7" d="m14.62 5.56-12 4.8v14.77l12 7.43 12-7.5V10.2Z"/><path fill="none" stroke="#5d5b73" stroke-width=".5" d="m14.62 7.91-10 4.15v12l10 6 10-6v-12z"/><circle cx="14.62" cy="18.06" r="6.9" fill="none" stroke="#e2e2ed" stroke-linecap="round" stroke-miterlimit="12" stroke-width="1.21"/><circle cx="14.62" cy="18.06" r="5.39" fill="none" stroke="#e2e2ed" stroke-linecap="round" stroke-miterlimit="12" stroke-width=".5"/><path fill="#e2e2ed" fill-rule="evenodd" d="M8.61 11.72c.4.78.76 1.57.19 2.74 1.38-.19 2.33.33 3.32.77-.38-.87-.81-1.69-.8-2.95a4.31 4.31 0 0 1-2.7-.55ZM20.72 11.71c-.77.4-1.56.75-2.73.19.19 1.38-.33 2.33-.77 3.32.87-.39 1.69-.82 2.95-.8-.17-1.05.15-1.9.55-2.7zM20.71 24.8c-.4-.77-.75-1.56-.18-2.73-1.38.19-2.33-.33-3.32-.77.38.86.81 1.68.8 2.95a4.3 4.3 0 0 1 2.7.55zM8.62 24.92c.77-.4 1.56-.75 2.73-.18-.19-1.39.33-2.33.77-3.32-.87.38-1.69.81-2.95.8a4.3 4.3 0 0 1-.55 2.7z"/><path fill="#e2e2ed" fill-rule="evenodd" d="m14.62 10.1 1.1 5.84.7-.71v.98l2.6-.3-1.4 1.96 4.85.46-4.85.59 1.4 1.78-2.4.06-.2.74-.7-.43-1.08 5.32h-.02m0-16.3-1.1 5.85-.7-.71v.98l-2.6-.3 1.4 1.96-4.85.46 4.85.59-1.4 1.78 2.4.06.2.74.7-.43 1.09 5.32h.01"/><path fill="#27273f" fill-rule="evenodd" d="m14.62 15.87.56 1.54 1.78-.27-1.1 1.2 1.1 1.35-1.72-.19-.62 1.42m0-5.04-.55 1.53-1.78-.27 1.1 1.2-1.1 1.35L14 19.5l.61 1.42"/></g></svg>