<!--@hoso_boso--><svg xmlns="http://www.w3.org/2000/svg" xmlns:xlink="http://www.w3.org/1999/xlink" xml:space="preserve" viewBox="0 0 33.9 33.9"><defs><linearGradient id="b"><stop offset="0" stop-color="#fbfbfb"/><stop offset="1" stop-color="#b7b7b7"/></linearGradient><linearGradient id="a"><stop offset="0" stop-color="#c4c4c4"/><stop offset="1" stop-color="#fff"/></linearGradient><linearGradient xlink:href="#a" id="c" x1="17.1" x2="19.1" y1="12" y2="14.1" gradientTransform="translate(1.5 -.2)" gradientUnits="userSpaceOnUse"/><linearGradient xlink:href="#b" id="d" x1="19.6" x2="21.9" y1="12.6" y2="13.9" gradientTransform="translate(1.5 -.2)" gradientUnits="userSpaceOnUse"/></defs><rect width="33.9" height="33.9" fill="#4c4c4c" ry="4.4"/><path fill="url(#c)" fill-rule="evenodd" stroke="#000" stroke-width=".3" d="m26.5 1.8-7.3 3.5s1 2.3-1.7 7.5c-2.7 4.9-4.5 5-4.5 5l2 4z"/><path fill="url(#d)" fill-rule="evenodd" stroke="#000" stroke-width=".3" d="M26.5 1.8 27 10s-2.5.2-5.5 5.3c-3 4.8-2.1 6.4-2.1 6.4H15z"/><path fill="#fff" fill-rule="evenodd" stroke="#000" stroke-width=".3" d="m13 17.8-7.5.4 7 4L9 28l3.5 2.2 3.5-6 6.7 4.3-3.2-7-4.5.2zM9 28l-2.5 1 6 3.5v-2.2z"/></svg>