<!--@hoso_boso--><svg xmlns="http://www.w3.org/2000/svg" xml:space="preserve" viewBox="0 0 33.9 33.9"><rect width="33.9" height="33.9" fill="#4c4c4c" ry="4.4"/><path fill="none" stroke="#fff" d="m17 1.7-4 1.7C7.6 5.6 4.2 5.3 4.2 5.3l.6 10.3C5 21 5 22.5 8.2 26c2.5 2.9 8.7 4.8 8.7 4.8s6.2-1.8 8.8-4.8c3-3.4 2.8-5.1 3.4-10.3.6-5 .5-10.3.5-10.3s-3.3.2-8.7-1.9C17.7 2.2 17 1.7 17 1.7z"/><path fill="#fff" fill-rule="evenodd" stroke="#fff" stroke-width=".2" d="m16.7 7.7-2.4 1C11 10.2 9 10 9 10s-.2 3.5.3 6.2c.6 3.4.2 4.2 2 6.3 1.6 1.7 5.4 2.9 5.4 2.9s4-1.2 5.3-3c1.6-2.2 1.7-3 2-6.2.4-3 .4-6.2.4-6.2s-2 .1-5.3-1.2c-2-.7-2.4-1-2.4-1Z"/></svg>