<!--@hoso_boso--><svg xmlns="http://www.w3.org/2000/svg" xmlns:xlink="http://www.w3.org/1999/xlink" xml:space="preserve" viewBox="0 0 33.9 33.9"><defs><linearGradient id="b"><stop offset="0" stop-color="#fbfbfb"/><stop offset="1" stop-color="#b7b7b7"/></linearGradient><linearGradient id="a"><stop offset="0" stop-color="#c4c4c4"/><stop offset="1" stop-color="#fff"/></linearGradient><linearGradient xlink:href="#a" id="d" x1="17.1" x2="19.1" y1="12" y2="14.1" gradientTransform="rotate(24 11.8 21.8)" gradientUnits="userSpaceOnUse"/><linearGradient xlink:href="#b" id="c" x1="19.6" x2="21.9" y1="12.6" y2="13.9" gradientTransform="rotate(24 11.8 21.8)" gradientUnits="userSpaceOnUse"/></defs><rect width="33.9" height="33.9" fill="#4c4c4c" ry="4.4"/><path fill="url(#c)" fill-rule="evenodd" stroke="#000" stroke-width=".3" d="M32 9.2 29.2 17s-2.4-.8-7.2 2.5c-4.7 3.2-4.6 5-4.6 5l-4.1-1.8z"/><path fill="#fff" fill-rule="evenodd" stroke="#000" stroke-width=".3" d="m13.1 18.2-7-2.7 4.7 6.5-5.6 4 2.3 3.4 5.7-4 4.3 6.7v-7.6l-4.2-1.8zM5.2 26l-2.7-.2 4 5.6 1-2Z"/><path fill="#fff" fill-rule="evenodd" stroke="#000" stroke-linejoin="round" stroke-width=".3" d="M23 12c-.8-1-2.5-4.3-8.6-6.2C8.5 4 7 5.1 7 5.1s2.8-.5 8.4 2 6.5 6 6.5 6V13zM21.1 14.8s.2-1.4-5.4-4.4a19.7 19.7 0 0 0-8-2C4.2 8 2 8.8 2 8.8s3-.4 6.3 0c2.7.5 4.5 1.2 6.6 2.1a13 13 0 0 1 4.8 4.1zM17.2 16.7c-2.5-2.7-3.4-3.3-6-4-2.7-.6-4.8.4-4.8.4s1.8-1 5.5.7c3.6 1.8 4.3 3.6 4.3 3.6z"/><path fill="url(#d)" fill-rule="evenodd" stroke="#000" stroke-width=".3" d="m32 9.2-8 .3s0 2.5-4.7 6C14.8 19 13 18.2 13 18.2l.2 4.5z"/></svg>