<!--@hoso_boso--><svg width="128" height="128" viewBox="0 0 33.867 33.867" version="1.1" id="svg5" xml:space="preserve" xmlns="http://www.w3.org/2000/svg"><g id="layer1"><rect style="opacity:1;fill:#4c4c4c;fill-opacity:1;stroke-width:.0770466;stroke-linecap:round;stroke-linejoin:round" id="rect2589" width="33.867" height="33.867" x="0" y="0" ry="4.362"/><path style="fill:none;fill-rule:evenodd;stroke:#fff;stroke-width:.82011;stroke-linecap:butt;stroke-linejoin:miter;stroke-dasharray:none;stroke-opacity:1" d="M11.778 9.01s-.675.352-3.313 1.402c-4.438 1.765-7.16 1.519-7.16 1.519s.207 4.765.433 8.462c.273 4.447.302 5.62 2.821 8.463 2.05 2.313 7.16 3.905 7.16 3.905s5.07-1.46 7.161-3.905c2.422-2.833 2.319-4.248 2.821-8.463.488-4.093.434-8.462.434-8.462s-2.741.196-7.16-1.52c-2.595-1.006-3.197-1.4-3.197-1.4Z" id="path410"/><path style="fill:#fff;fill-opacity:1;fill-rule:evenodd;stroke:#fff;stroke-width:.131398px;stroke-linecap:butt;stroke-linejoin:miter;stroke-opacity:1" d="M11.543 13.919s-.41.213-2.007.848c-2.687 1.069-4.336.92-4.336.92s-.112 2.913.263 5.124c.463 2.736.183 3.404 1.708 5.125 1.242 1.401 4.336 2.365 4.336 2.365s3.326-.97 4.336-2.365c1.324-1.828 1.404-2.572 1.708-5.125.296-2.478.263-5.124.263-5.124s-1.66.119-4.336-.92c-1.571-.61-1.935-.848-1.935-.848z" id="path410-5"/><path style="fill:none;fill-rule:evenodd;stroke:#fff;stroke-width:1;stroke-linecap:round;stroke-linejoin:miter;stroke-miterlimit:9;stroke-dasharray:none;stroke-opacity:1" d="M14.69 3.608c1.288 4.467 3.436 6.615 6.013 3.264a147.16 147.16 0 0 1 1.89-2.405s-3.282 7.227 2.233 4.553c2.835-1.375 3.952-1.89 3.952-1.89-2.45 2.122-8.526 5.204-2.663 5.154 1.653-.014 3.178.258 3.178.258s-9.528.838-3.436 4.295c3.178 1.804 4.467 2.749 4.467 2.749s-8.164-2.152-6.185.773c1.976 2.92 2.92 3.866 2.92 3.866" id="path1118"/></g></svg>