<!--@hoso_boso--><svg xmlns="http://www.w3.org/2000/svg" xml:space="preserve" viewBox="0 0 33.867 33.867"><rect width="33.867" height="33.867" fill="#4c4c4c" ry="4.362"/><path fill="none" stroke="#fff" stroke-miterlimit="12" stroke-width=".852" d="M16.18 12.879c.27-4.726.64-8.3.64-8.3s.286 2.17.392 4.654c.126 2.962.582 5.876 1.128 4.67 1.33-2.935 1.83-4.633 1.83-4.633s-.2 1.674-.523 3.791c-.188 1.23.22 2.12 1.201 1.243 1.961-1.752 2.857-2.528 2.857-2.528s-3.697 4.88-1.263 5.251c2.82.43 4.166.657 4.166.657s-1.028.05-3.312.218c-1.788.131-3.386.692-2.19 1.51a225.415 225.415 0 0 1 2.544 1.751s-1.223-.321-2.183-.534c-1.022-.226-1.631-.706-1.44.661.397 2.834 1.088 3.869 1.088 3.869-.03-.102-.834-1.608-1.857-2.917-1.118-1.43-1.185-1.603-1.443.262-.45 3.258-.533 5.251-.533 5.251s-.277-1.696-.642-5.206c-.148-1.42-.55-2.387-1.247-1.392-1.64 2.34-2.1 2.887-2.1 2.887s1.546-5.794-.788-3.822c-2.335 1.972-2.874 2.362-2.874 2.362s1.158-1.212 2.809-2.76c.958-.898 1.081-1.97-.663-2.042-3.092-.128-4.546-.345-4.546-.345s1.4-.184 4.073-.237c1.623-.031 2.123-.746 1.208-2.136-1.417-2.156-1.105-2.158-2.117-3.531 0 0 1.315 1.187 3.437 3.266.596.584.041-.964-.692-4.405 0 0 2.85 5.576 3.04 2.485z"/><path fill="#fff" fill-rule="evenodd" d="M7.607 6.029c-1.154.304-2.463.695-3.54 2.284-1.462 2.152-1.794 4.993-.885 7.584.91 2.591 2.075 3.895 3.68 5.734 1.388 1.59 5.326 3.994 5.326 3.994s-3.22-3.178-4.416-4.548c-1.53-1.753-2.274-3.19-3.126-5.616-.85-2.426-.97-4.794.247-6.586.961-1.416 1.975-1.993 2.918-2.242.942-.249 2.06-.03 4.245.283-1.512-.833-3.295-1.192-4.45-.887Z" color="#000" style="-inkscape-stroke:none"/><path fill="#fff" fill-rule="evenodd" d="M24.482 7.629c-2.853-.323-4.69.757-4.69.757s2.008-.267 4.658.027c2.468.484 3.862 2.014 4.706 3.653.847 1.644.488 3.89.145 5.597-.616 3.078-2.41 5.352-5.428 7.245-3.017 1.894-6.195 2.76-9.417 3.243-3.193.48-5.584-.214-9.748-1.786 2.035 1.657 6.634 2.975 10.053 2.462 3.356-.504 6.48-1.089 9.643-3.073 3.163-1.984 5.709-4.712 6.399-8.156.382-1.91.215-4.105-.756-5.99-.971-1.886-2.775-3.439-5.524-3.973l-.02-.004z" color="#000" style="-inkscape-stroke:none"/><path fill="#fff" fill-rule="evenodd" d="M13.11 6.262s-.807-.764-1.056-1.248a4.451 4.451 0 0 1-.473-1.875c-.018-.554.306-1.636.306-1.636s.733.97.944 1.532c.226.6.276 1.26.32 1.9.03.442-.041 1.327-.041 1.327zM22.364 6.937s.015-.886.171-1.293c.185-.482.496-.93.877-1.289.327-.309 1.165-.702 1.165-.702s-.181.954-.405 1.38c-.24.458-.612.842-.978 1.213-.251.255-.83.691-.83.691zM31.764 22.17s-.806.143-1.2.062a3.106 3.106 0 0 1-1.304-.631c-.33-.267-.815-1.019-.815-1.019s.893.01 1.315.153c.451.154.857.452 1.25.744.27.202.754.692.754.692zM26.193 31.291s-.98-.522-1.349-.924a4.451 4.451 0 0 1-.954-1.681c-.164-.53-.139-1.659-.139-1.659s.964.741 1.317 1.226c.377.52.6 1.141.812 1.748.146.417.313 1.29.313 1.29zM8.433 30.522s-.022-1.11.148-1.628a4.451 4.451 0 0 1 1.002-1.653c.383-.402 1.38-.931 1.38-.931s-.176 1.203-.428 1.747c-.27.583-.703 1.081-1.128 1.562-.294.332-.974.903-.974.903zM1.017 22.348s.583-.784.977-1.049a3.783 3.783 0 0 1 1.569-.592c.475-.067 1.433.118 1.433.118s-.767.737-1.23.976c-.497.256-1.058.361-1.605.46-.377.067-1.144.087-1.144.087z"/></svg>