<!--@hoso_boso--><svg xmlns="http://www.w3.org/2000/svg" xml:space="preserve" viewBox="0 0 33.9 33.9"><rect width="33.9" height="33.9" fill="#4c4c4c" ry="4.4"/><circle cx="25.4" cy="9.1" r="2.8" fill="#fff" stroke="#fff" stroke-linecap="round" stroke-miterlimit="12" stroke-width=".7"/><path fill="#fff" fill-rule="evenodd" stroke="#fff" stroke-width=".3" d="m10.8 10.8 6-3.6 10.7 8.3 2.6-3.4s.3-.4.8-.3c.6 0 1.1.5 1.2 1.2 0 .7-4 5.4-4 5.4l-4.5-3.2-4.2 5.4 4.7 4.8s.7.5.4 1.1c-.3.7-1 .6-1 .6h-8v-1.6h6l-5.8-4.9L7 30.2 5.5 29l14.1-16.8-3-2.6-4.7 2.7s-.5.4-1.1-.2c-.6-.5 0-1.3 0-1.3z"/><rect width="6" height="1" x="2.6" y="11.1" fill="#fff" stroke="#fff" stroke-linecap="round" stroke-miterlimit="12" stroke-width=".6" ry=".2"/><rect width="7.8" height=".9" x="2.1" y="14.4" fill="#fff" stroke="#fff" stroke-linecap="round" stroke-miterlimit="12" stroke-width=".6" ry=".2"/><rect width="5.6" height=".7" x="4.2" y="17.6" fill="#fff" stroke="#fff" stroke-linecap="round" stroke-miterlimit="12" stroke-width=".6" ry=".2"/></svg>