<!--@hoso_boso--><svg xmlns="http://www.w3.org/2000/svg" xml:space="preserve" viewBox="0 0 33.9 33.9"><rect width="33.9" height="33.9" fill="#4c4c4c" ry="4.4"/><path fill="#fff" fill-rule="evenodd" stroke="#000" stroke-width=".3" d="M9 4.1 4 9s-2.2 4.4-.7 8.1C5 21 9.1 25.5 9.1 25.5l-4.2 4 16.3 1-2.7-13-4.4 4.1s-4.4-4.4-6-7C6.5 12 6.1 7 9.1 4Z"/><path fill="#fff" fill-rule="evenodd" stroke="#000" stroke-width=".3" d="M7.8 8c.3-1.7 1-2.8 2.5-4 0 0 6.2-.7 9 .4 4.3 1.8 8.2 5.5 10.2 9.4a17.2 17.2 0 0 1 1.5 4s-1.8-3.7-3.1-5.2c-1.1-1.3-4-3.3-4-3.3s2.1 2 3 3.1a33.7 33.7 0 0 1 4.8 11.9s-3-6-5-8.8c-2.3-3.3-5.6-7-9.6-8-5.5-1.3-9.3.6-9.3.6Z"/></svg>