<svg xmlns="http://www.w3.org/2000/svg" xmlns:xlink="http://www.w3.org/1999/xlink" xml:space="preserve" viewBox="0 0 33.9 33.9">
  <defs>
    <linearGradient id="c">
      <stop offset=".5" stop-color="#2b2d35"/>
      <stop offset="1" stop-color="#888b9b"/>
    </linearGradient>
    <linearGradient id="b">
      <stop offset="0" stop-color="#aa0815"/>
      <stop offset="1" stop-color="#d61330"/>
    </linearGradient>
    <linearGradient id="a">
      <stop offset="0" stop-color="#aa1028"/>
      <stop offset="1" stop-color="#e61b3c"/>
    </linearGradient>
    <linearGradient xlink:href="#a" id="e" x1="18.7" x2="18.7" y1="12.7" y2="5.6" gradientUnits="userSpaceOnUse"/>
    <linearGradient xlink:href="#b" id="f" x1="19.7" x2="19.7" y1="17.1" y2="25.1" gradientUnits="userSpaceOnUse" spreadMethod="reflect"/>
    <linearGradient xlink:href="#c" id="d" x1="23.9" x2="13.2" y1=".3" y2="-10.8" gradientUnits="userSpaceOnUse" spreadMethod="reflect"/>
  </defs>
  <rect width="24" height="24" x="11.9" y="-12" fill="url(#d)" fill-rule="evenodd" stroke="#191919" stroke-linecap="round" stroke-miterlimit="12" ry="2.6" transform="rotate(45)"/>
  <circle cx="18.1" cy="8.5" r="3.1" fill="url(#e)" fill-rule="evenodd" stroke="#000" stroke-linecap="round" stroke-miterlimit="12" stroke-width=".3"/>
  <circle cx="9.4" cy="13.3" r="2.1" fill="#aa1028" fill-rule="evenodd" stroke="#000" stroke-linecap="round" stroke-miterlimit="12" stroke-width=".3"/>
  <path fill="url(#f)" fill-rule="evenodd" stroke="#000" stroke-width=".3" d="M6 22c1 1.5 2.1 1.3 4.2 1.3 1.7 0 3.7 0 3 .7-.8 1 0 1.6 2.4 1.6 6.8 0 6 .3 6.6-1.5.3-1.1 2-.6 4.2-1.6 1.2-.6 2-.6 2-1.4 0-1.8-2.8-.5-3-2.3 0-1-.2-1.4.2-2.8.3-1.2 1-2.1.1-3.2a2.3 2.3 0 0 0-3.6-.2c-.8.9-.7 2.2 0 3 .6.8.4 1.9.4 2.6-.2 1.7-1.1 2.2-2 1-.5-.6-.5-1.8-.4-3 .2-.9-1-2.1-2-2.1-.8 0-2 1-2 2.2 0 1.2.4 2.7-.2 3.1-.9.7-1.2 0-1.4-.8-.2-.7-.2-2-1.1-2-1 .1-1 1.2-1.3 2-.4 1-3 1.7-1.7-.4.6-1-.1-2-1-2-1 0-2 1-1.4 2.3.7 1.4 0 2-.6 1.9-.6-.2-1.8 1-1.4 1.7z"/>
</svg>
