<!--@hoso_boso--><svg xmlns="http://www.w3.org/2000/svg" xmlns:xlink="http://www.w3.org/1999/xlink" xml:space="preserve" viewBox="0 0 33.9 33.9"><defs><linearGradient id="b"><stop offset="0" stop-color="#ff982b"/><stop offset="1" stop-color="#fff"/></linearGradient><linearGradient id="a"><stop offset="0" stop-color="#ff982b"/><stop offset="1" stop-color="#fff"/></linearGradient><linearGradient xlink:href="#a" id="c" x1="15.4" x2="15.8" y1="27.4" y2="4.3" gradientUnits="userSpaceOnUse"/><linearGradient xlink:href="#b" id="d" x1="22.8" x2="23.4" y1="27.3" y2="5.8" gradientUnits="userSpaceOnUse"/></defs><rect width="24" height="24" x="11.9" y="-12" fill="#4c4c4c" fill-rule="evenodd" stroke="#191919" stroke-linecap="round" stroke-miterlimit="12" ry="2.6" transform="rotate(45)"/><circle cx="17.3" cy="16.6" r="10.4" fill="none" stroke="red" stroke-linecap="round" stroke-linejoin="round" stroke-miterlimit="12" stroke-width="3.2"/><path fill="none" stroke="red" stroke-width="3.2" d="m9.7 8.5 15 15.7"/><path fill="url(#c)" fill-rule="evenodd" stroke="#000" stroke-width=".3" d="m17.7 19.3 4 4.2s-2.2 2.1-3.1 2.6c-1.4.6-1.9 1-3 1.3-1.2.3-2.9.5-3.6-.1-1.5-1.3-2.2-6.3-2-8 .2-1.8.7-3 .5-4.6-.2-2-.3-5 0-5.7a5 5 0 0 1 1.2-2.4c1-1 1.7-1.2 3.8-1.6 1.2-.3 2.3-.7 3.3-.2.3.1.7.5.6.8 0 .7-.6.8-1.5 1.3-1.3.8-1.7.8-2 1.8-.5 1-.8 1.5-.4 2.5.3.9.3 1.7 1.3.5.5-.6.7-.7.7-1.2 0-.7 0-1.5.7-1.6.7 0 .8 0 1.1 1.6.4 1.7-.2 1.9-.8 2.8-1.1 1.8-1.4 1.5-2.1 2-1 .7-1.3.3-1 1.7.1.9.7 1.1 1 1.7l.8 2.1s0-.5.3-1l.2-.5z"/><path fill="url(#d)" fill-rule="evenodd" stroke="#000" stroke-width=".3" d="m19.2 15.9 4.9 5s1.5-2.4 1.7-3.8c.2-1.3.4-3-.6-4s-3-1-4.2-.4c-1.1.6-1.8 3.2-1.8 3.2z"/><path fill="none" stroke="#000" stroke-width=".3" d="M18.3 4.6c-.2.1-2.1.9-3 2a6.3 6.3 0 0 0-1.4 2.2M15.4 5S14 6.3 13.3 7c-.6.7-1 2-1 2M13.5 5.5c-.2.2-1.6 1.6-1.8 2L11.3 9M17.1 20.7s.5 1 .4 1.9l-.1 1.5"/></svg>