<!--@hoso_boso--><svg xmlns="http://www.w3.org/2000/svg" xmlns:xlink="http://www.w3.org/1999/xlink" xml:space="preserve" viewBox="0 0 33.9 33.9"><defs><linearGradient id="d"><stop offset="0" stop-color="#ffa8f3"/><stop offset="1" stop-color="#fff"/></linearGradient><linearGradient id="c"><stop offset="0" stop-color="#ffd8f8"/><stop offset="1" stop-color="#860ab7"/></linearGradient><linearGradient id="b"><stop offset="0" stop-color="#ffa8f3"/><stop offset="1" stop-color="#fff"/></linearGradient><linearGradient id="a"><stop offset="0" stop-color="#ffa8f3"/><stop offset="1" stop-color="#fff"/></linearGradient><linearGradient xlink:href="#a" id="f" x1="11.9" x2="12.2" y1="22.9" y2="7.4" gradientUnits="userSpaceOnUse"/><linearGradient xlink:href="#b" id="g" x1="22.9" x2="23" y1="23.8" y2="17.4" gradientUnits="userSpaceOnUse"/><linearGradient xlink:href="#c" id="e" x1="13.4" x2="23.9" y1="-10.7" y2="-.1" gradientUnits="userSpaceOnUse"/><linearGradient xlink:href="#d" id="h" x1="16.4" x2="16.4" y1="25.9" y2="22.3" gradientUnits="userSpaceOnUse"/></defs><g fill-rule="evenodd" stroke-linecap="round" stroke-miterlimit="12"><rect width="24" height="24" x="11.9" y="-12" fill="url(#e)" stroke="#191919" ry="2.6" transform="rotate(45)"/><path fill="url(#f)" stroke="#000" stroke-linejoin="round" stroke-width=".5" d="M17 6.1a6.7 6.7 0 0 0-6.7 6.7 6.7 6.7 0 0 0 .4 2.2 3.8 3.8 0 0 0-2.5 3.6 3.8 3.8 0 0 0 3.8 3.8 3.8 3.8 0 0 0 3.7-3 6.7 6.7 0 0 0 1.3 0 6.7 6.7 0 0 0 6.7-6.6A6.7 6.7 0 0 0 17 6.1zM15.3 9a1.8 1.8 0 0 1 1.8 1.8 1.8 1.8 0 0 1-1.8 1.8 1.8 1.8 0 0 1-1.9-1.8A1.8 1.8 0 0 1 15.3 9z"/><circle cx="22.3" cy="21.3" r="2.5" fill="url(#g)" stroke="#000" stroke-linejoin="round" stroke-width=".5"/><circle cx="16.3" cy="25.5" r="2" fill="url(#h)" stroke="#000" stroke-linejoin="round" stroke-width=".5"/></g></svg>