<!--@hoso_boso--><svg xmlns="http://www.w3.org/2000/svg" xmlns:xlink="http://www.w3.org/1999/xlink" xml:space="preserve" viewBox="0 0 33.9 33.9"><defs><linearGradient id="e"><stop offset="0"/><stop offset="1" stop-opacity="0"/></linearGradient><linearGradient id="d"><stop offset="0"/><stop offset="1" stop-opacity="0"/></linearGradient><linearGradient id="c"><stop offset="0"/><stop offset="1" stop-opacity="0"/></linearGradient><linearGradient id="b"><stop offset="0"/><stop offset="1" stop-opacity="0"/></linearGradient><linearGradient id="a"><stop offset="0" stop-color="#ffdec5"/><stop offset="1" stop-color="#ff982b"/></linearGradient><linearGradient xlink:href="#a" id="f" x1="13.1" x2="17.7" y1="28.5" y2="18.4" gradientTransform="matrix(.8 0 0 .8 .8 3.4)" gradientUnits="userSpaceOnUse" spreadMethod="reflect"/><linearGradient xlink:href="#b" id="g" x1="3.7" x2="5.9" y1="16.3" y2="16.3" gradientUnits="userSpaceOnUse"/><linearGradient xlink:href="#c" id="h" x1="5.9" x2="7.6" y1="15.6" y2="15.6" gradientUnits="userSpaceOnUse"/><linearGradient xlink:href="#d" id="i" x1="7.6" x2="9.5" y1="14.9" y2="14.9" gradientUnits="userSpaceOnUse"/><linearGradient xlink:href="#e" id="j" x1="9.1" x2="10.9" y1="14.3" y2="14.3" gradientUnits="userSpaceOnUse"/></defs><rect width="24" height="24" x="11.9" y="-12" fill="#4c4c4c" fill-rule="evenodd" stroke="#191919" stroke-linecap="round" stroke-miterlimit="12" ry="2.6" transform="rotate(45)"/><circle cx="16.8" cy="16.7" r="10.4" fill="none" stroke="red" stroke-linecap="round" stroke-linejoin="round" stroke-miterlimit="12" stroke-width="3.2"/><path fill="url(#f)" fill-rule="evenodd" stroke="#000" stroke-width=".2" d="m20.9 8.4-3 6.2s-1.4 0-2.8.1c-1.5.3-2.8.5-3.8-.2-.6-.6-1.2-.7-1.2-.7s-.4-.2-1.5.2-3 1.3-4.6 1.7c-.5.1-1.2-.2-1.5.2-.4.5-.7 1 .2 2 .8.8 1 1.1 1.7 1.3 1.3 0 1.4 0 2.1.9.7 1 1.4 1.5 2.7 2 1.6.6 4.1.4 4.9 1 .8.5.7.5 2.4 2 1.2 1.2 2 1.6 3.4 1.4 1.4-.1 2.5-.6 3-2.7.7-2.4-.3-2.3.6-4.7.8-2.4 1.3-2.7 2.2-4.4l1.7-2.7z"/><path fill="url(#g)" fill-rule="evenodd" stroke="#000" stroke-width=".2" d="m3.8 15.8 2 1.1"/><path fill="url(#h)" fill-rule="evenodd" stroke="#000" stroke-width=".2" d="m6 15 1.5 1.1"/><path fill="url(#i)" fill-rule="evenodd" stroke="#000" stroke-width=".2" d="m7.6 14.4 1.8 1"/><path fill="url(#j)" fill-rule="evenodd" stroke="#000" stroke-width=".2" d="m9.1 13.8 1.7 1"/><path fill="none" stroke="red" stroke-width="3.2" d="m9.3 8.6 15 15.6"/><path fill="none" stroke="red" stroke-linecap="round" stroke-linejoin="round" stroke-miterlimit="12" stroke-width="3.2" d="M14.2 6.5a10.4 10.4 0 0 1 9.5 2.3 10.4 10.4 0 0 1 3.5 9.1"/></svg>