<!--@hoso_boso--><svg xmlns="http://www.w3.org/2000/svg" xmlns:xlink="http://www.w3.org/1999/xlink" xml:space="preserve" viewBox="0 0 33.9 33.9"><defs><linearGradient id="b"><stop offset="0" stop-color="#fbda1c"/><stop offset="1" stop-color="#4e430c"/></linearGradient><linearGradient id="a"><stop offset="0" stop-color="#fbda1c"/><stop offset="1" stop-color="#fbfbeb" stop-opacity=".9"/></linearGradient><linearGradient xlink:href="#a" id="d" x1="12.1" x2="11.9" y1="28.1" y2="6.4" gradientTransform="translate(-1 -.1)" gradientUnits="userSpaceOnUse"/><linearGradient xlink:href="#b" id="c" x1="14.4" x2="23.9" y1="-9.7" y2="-.3" gradientUnits="userSpaceOnUse"/><linearGradient xlink:href="#a" id="e" x1="12.1" x2="11.9" y1="28.1" y2="6.4" gradientTransform="matrix(-1 0 0 1 35 -.1)" gradientUnits="userSpaceOnUse"/></defs><g fill-rule="evenodd"><rect width="24" height="24" x="11.9" y="-12" fill="url(#c)" stroke="#191919" stroke-linecap="round" stroke-miterlimit="12" ry="2.6" transform="rotate(45)"/><path fill="url(#d)" stroke="#000" stroke-width=".3" d="m13.6 7-7.3 6.6 3.8 3-2 2 3.3 2.6-2.3 2.3 4.5 3.8-1.1-3 3-3-3.6-2.8 2.6-2-4.6-3.9Z"/><path fill="url(#e)" stroke="#000" stroke-width=".3" d="m20.4 7 7.3 6.6-3.8 3 2 2-3.3 2.6 2.3 2.3-4.5 3.8 1.1-3-3-3 3.6-2.8-2.6-2 4.7-3.9z"/></g></svg>