<!--@hoso_boso--><svg xmlns="http://www.w3.org/2000/svg" xmlns:xlink="http://www.w3.org/1999/xlink" xml:space="preserve" viewBox="0 0 33.9 33.9"><defs><linearGradient id="b"><stop offset="0" stop-color="#e764dd"/><stop offset="1" stop-color="#fff"/></linearGradient><linearGradient id="a"><stop offset="0" stop-color="#86155b"/><stop offset="1" stop-color="#ff51d7"/></linearGradient><linearGradient xlink:href="#a" id="c" x1="25.2" x2="14" y1="1.2" y2="-10.1" gradientUnits="userSpaceOnUse" spreadMethod="reflect"/><linearGradient xlink:href="#b" id="d" x1="18.7" x2="18.9" y1="25.8" y2="5.3" gradientTransform="matrix(1 0 0 1 -1.3 -.2)" gradientUnits="userSpaceOnUse"/></defs><g stroke-linecap="round"><rect width="24" height="24" x="11.9" y="-12" fill="url(#c)" fill-rule="evenodd" stroke="#191919" stroke-miterlimit="12" ry="2.6" transform="rotate(45)"/><path fill="none" stroke="url(#d)" stroke-width="1.5" d="M16.8 5.3C16.4 7 16 7 17 8c.9 1 1 .2 1.1 1.3.2 1.2-.2 2 .4 2.5.7.6 2.3.4 2.7 1.4.4 1 .2.4.4 2.1.3 1.8.1 0 1 2.3 1 2.4 1 2.8.7 4.2-.3 1.4 1 2.6-2 3.5-2.8.8-3.3 1.8-5.7 1-2.5-.7-3-.3-3.6-1.5-.6-1.3-1.2-1.6-.2-3 1-1.3-.6-1.8-.2-3.3.4-1.5.7-2 2.6-2.2 1.9-.2 1.5-1.3 3.4.1 1.9 1.4 1.5 1 2 2.8.5 2 1.6 1.5 0 3.3-1.5 1.8-.5 2.2-2.3 1-1.8-1.1-2.5-.6-2-2.2a3.6 3.6 0 0 1 1.7-2.2"/></g></svg>