<!--@hoso_boso--><svg xmlns="http://www.w3.org/2000/svg" xmlns:xlink="http://www.w3.org/1999/xlink" xml:space="preserve" viewBox="0 0 33.9 33.9"><defs><linearGradient id="c"><stop offset="0" stop-color="#0a62cc"/><stop offset="1" stop-color="#cddbf0"/></linearGradient><linearGradient id="b"><stop offset="0" stop-color="#8bc1f0"/><stop offset="1" stop-color="#f0f0f0"/></linearGradient><linearGradient id="a"><stop offset="0" stop-color="#8bc1f0"/><stop offset="1" stop-color="#f0f0f0"/></linearGradient><linearGradient xlink:href="#a" id="f" x1="21.6" x2="21.9" y1="25.3" y2="15.3" gradientTransform="matrix(1 0 0 1 -1.2 -1.2)" gradientUnits="userSpaceOnUse"/><linearGradient xlink:href="#b" id="e" x1="14" x2="14.2" y1="24.7" y2="11.5" gradientTransform="matrix(1 0 0 1 -1.2 -1.2)" gradientUnits="userSpaceOnUse"/><linearGradient xlink:href="#c" id="d" x1="28.7" x2="14.9" y1="5.2" y2="-9.1" gradientUnits="userSpaceOnUse"/></defs><g fill-rule="evenodd" stroke-linecap="round"><rect width="24" height="24" x="11.9" y="-12" fill="url(#d)" stroke="#191919" stroke-miterlimit="12" ry="2.6" transform="rotate(45)"/><path fill="url(#e)" stroke="#000" stroke-linejoin="round" stroke-width=".5" d="M13 9.4H8.7a1 1 0 0 0-1 1 1 1 0 0 0 1 1h6.1l-6.2 7.9a1 1 0 0 0 .7 1.6h8a1 1 0 0 0 1-1 1 1 0 0 0-1-1h-6l6.3-8a1 1 0 0 0-.7-1.5s-2 0-4 0z" color="#000"/><path fill="url(#f)" stroke="#000" stroke-linejoin="round" stroke-width=".5" d="M24.3 15.7h-5.4a1 1 0 0 0-1 1 1 1 0 0 0 1 1h3.5l-4.2 5.8a1 1 0 0 0 .8 1.6h5.5a1 1 0 0 0 1-1 1 1 0 0 0-1-1h-3.6l4.2-5.8a1 1 0 0 0-.8-1.6z" color="#000"/></g></svg>