<!--@hoso_boso--><svg xmlns="http://www.w3.org/2000/svg" xmlns:xlink="http://www.w3.org/1999/xlink" xml:space="preserve" viewBox="0 0 33.9 33.9"><defs><linearGradient id="a"><stop offset="0" stop-color="#d0d0d0"/><stop offset="1" stop-color="#565656"/></linearGradient><linearGradient xlink:href="#a" id="b" x1="19.9" x2="19.7" y1="19.3" y2="25.5" gradientTransform="matrix(1.2 0 0 1.2 -2.8 -3.2)" gradientUnits="userSpaceOnUse"/></defs><g fill-rule="evenodd"><rect width="24" height="24" x="11.9" y="-12" fill="#4c4c4c" stroke="#191919" stroke-linecap="round" stroke-miterlimit="12" ry="2.6" transform="rotate(45)"/><path fill="#d0d0d0" stroke="#000" stroke-width=".3" d="m14.9 6.6-6.2 3.7L6.8 16 9 18.4l5.6 1.4 4.4-5.3zM16.7 6.4l3 7.6 4.3-2.9s.7-1.3-.3-2.4a9.5 9.5 0 0 0-4-2.5l-3 .2Z"/><path fill="url(#b)" stroke="#000" stroke-width=".3" d="m15.8 20 5-5.9 3.9-2 2.5 1.8v7.2l-2.1 3.1-2 .2-2.3 2.3h-8.6l-5.7-5v-4.3l1.8 2 5.7 1.2 2.8 1 .7 4.5.9-4.4 6.7-1.4z"/></g></svg>