<!--@hoso_boso--><svg xmlns="http://www.w3.org/2000/svg" xmlns:xlink="http://www.w3.org/1999/xlink" xml:space="preserve" viewBox="0 0 33.9 33.9"><defs><linearGradient xlink:href="#a" id="c" x1="22" x2="21.9" y1="24.3" y2="1.3" gradientUnits="userSpaceOnUse"/><linearGradient id="a"><stop offset="0" stop-color="#02284c"/><stop offset="1" stop-color="#95ccff"/></linearGradient><linearGradient xlink:href="#b" id="e" x1="5.9" x2="5.8" y1="2.7" y2="8.9" gradientUnits="userSpaceOnUse"/><linearGradient id="b"><stop offset="0" stop-color="#fff"/><stop offset="1" stop-color="#43e8e2"/></linearGradient><linearGradient xlink:href="#b" id="d" x1="24.4" x2="26.3" y1="8.5" y2="23.2" gradientUnits="userSpaceOnUse"/></defs><rect width="33.9" height="33.9" fill="url(#c)" ry="4.4"/><g fill="url(#d)" fill-rule="evenodd"><path d="M9 4.1 4 9s-2.2 4.4-.7 8.1C5 21 9.1 25.5 9.1 25.5l-4.2 4 16.3 1-2.7-13-4.4 4.1s-4.4-4.4-6-7C6.5 12 6.1 7 9.1 4Z"/><path d="M7.8 8c.3-1.7 1-2.8 2.5-4 0 0 6.2-.7 9 .4 4.3 1.8 8.2 5.5 10.2 9.4a17.2 17.2 0 0 1 1.5 4s-1.8-3.7-3.1-5.2c-1.1-1.3-4-3.3-4-3.3s2.1 2 3 3.1a33.7 33.7 0 0 1 4.8 11.9s-3-6-5-8.8c-2.3-3.3-5.6-7-9.6-8-5.5-1.3-9.3.6-9.3.6Z"/></g><path fill="url(#e)" fill-rule="evenodd" stroke="#02284c" stroke-linecap="round" stroke-linejoin="round" stroke-width=".4" d="M5.8.9a1 1 0 0 0-.8.3L.5 6.8a1 1 0 0 0 .2 1.4A1 1 0 0 0 2 8l3.7-4.6L9.5 8a1 1 0 0 0 1.4.2 1 1 0 0 0 .2-1.4L6.6 1.2a1 1 0 0 0-.8-.3Z" color="#000"/></svg>