<svg xmlns="http://www.w3.org/2000/svg" xmlns:xlink="http://www.w3.org/1999/xlink" xml:space="preserve" viewBox="0 0 33.9 33.9">
  <defs>
    <linearGradient xlink:href="#a" id="c" x1="22" x2="21.9" y1="24.3" y2="1.3" gradientUnits="userSpaceOnUse"/>
    <linearGradient id="a">
      <stop offset="0" stop-color="#02284c"/>
      <stop offset="1" stop-color="#95ccff"/>
    </linearGradient>
    <linearGradient xlink:href="#b" id="f" x1="5.9" x2="5.8" y1="2.7" y2="8.9" gradientUnits="userSpaceOnUse"/>
    <linearGradient id="b">
      <stop offset="0" stop-color="#fff"/>
      <stop offset="1" stop-color="#43e8e2"/>
    </linearGradient>
    <linearGradient xlink:href="#b" id="e" x1="17.3" x2="16.9" y1="4.3" y2="32.8" gradientUnits="userSpaceOnUse"/>
    <linearGradient xlink:href="#b" id="d" x1="20.3" x2="20" y1="8.4" y2="30.7" gradientUnits="userSpaceOnUse"/>
  </defs>
  <rect width="33.9" height="33.9" fill="url(#c)" ry="4.4"/>
  <path fill="none" stroke="url(#d)" stroke-miterlimit="12" stroke-width=".9" d="m16.2 12.9.6-8.3s.3 2.1.4 4.6c.1 3 .6 6 1.1 4.7 1.4-3 1.9-4.6 1.9-4.6l-.6 3.8c-.1 1.2.3 2 1.2 1.2l3-2.5S20 16.7 22.3 17l4.2.7-3.3.2c-1.8.1-3.4.7-2.2 1.5a225.4 225.4 0 0 1 2.5 1.8l-2.1-.6c-1-.2-1.7-.7-1.5.7.4 2.8 1.1 3.9 1.1 3.9 0-.1-.8-1.6-1.8-3-1.2-1.4-1.2-1.6-1.5.3l-.5 5.3-.7-5.3c-.1-1.4-.5-2.3-1.2-1.3-1.6 2.3-2.1 2.8-2.1 2.8s1.5-5.7-.8-3.8l-2.9 2.4 2.8-2.8c1-.9 1.1-2-.6-2-3.1-.1-4.6-.4-4.6-.4l4.1-.2c1.6 0 2.1-.7 1.2-2.1-1.4-2.2-1-2.2-2.1-3.6l3.4 3.3c.6.6 0-1-.7-4.4 0 0 2.9 5.6 3 2.5z"/>
  <g fill="url(#e)" fill-rule="evenodd">
    <path d="M7.6 6c-1.1.3-2.5.7-3.5 2.3A8.5 8.5 0 0 0 3 16c1 2.6 2.2 3.9 3.8 5.7 1.3 1.6 5.3 4 5.3 4l-4.4-4.5a15.1 15.1 0 0 1-3.2-5.6c-.8-2.5-1-4.8.3-6.6 1-1.4 2-2 3-2.3.9-.2 2 0 4.2.3a6.7 6.7 0 0 0-4.4-1Z" color="#000"/>
    <path d="M24.5 7.6c-2.9-.3-4.7.8-4.7.8s2-.3 4.6 0c2.5.5 4 2 4.8 3.7.8 1.6.4 3.9.1 5.6a11 11 0 0 1-5.4 7.2c-3 1.9-6.2 2.8-9.4 3.3-3.2.4-5.6-.3-9.8-1.8 2 1.6 6.6 3 10 2.4 3.4-.5 6.5-1 9.7-3 3.2-2 5.7-4.8 6.4-8.2a9 9 0 0 0-.8-6 7.6 7.6 0 0 0-5.5-4z" color="#000"/>
    <path d="M13.1 6.3s-.8-.8-1-1.3a4.5 4.5 0 0 1-.5-1.9l.3-1.6 1 1.5c.2.6.2 1.3.3 2v1.3zm9.3.6.1-1.3c.2-.4.5-.9 1-1.2.2-.4 1-.7 1-.7L24.3 5a4 4 0 0 1-1 1.2l-.8.7zm9.4 15.3h-1.2a3.1 3.1 0 0 1-1.3-.6l-.9-1 1.4.1 1.2.8.8.7zm-5.6 9s-1-.4-1.4-.8a4.5 4.5 0 0 1-1-1.7V27s1 .8 1.3 1.3c.3.5.6 1 .8 1.7l.3 1.3zm-17.8-.7s0-1 .2-1.6a4.5 4.5 0 0 1 1-1.7c.4-.4 1.4-.9 1.4-.9s-.2 1.2-.5 1.8c-.2.5-.7 1-1 1.5l-1 1zM1 22.3l1-1a3.8 3.8 0 0 1 1.6-.6l1.4.1s-.8.8-1.2 1c-.5.3-1 .4-1.6.5H1z"/>
  </g>
  <path fill="url(#f)" fill-rule="evenodd" stroke="#02284c" stroke-linecap="round" stroke-linejoin="round" stroke-width=".4" d="M5.8.9a1 1 0 0 0-.8.3L.5 6.8a1 1 0 0 0 .2 1.4A1 1 0 0 0 2 8l3.7-4.6L9.5 8a1 1 0 0 0 1.4.2 1 1 0 0 0 .2-1.4L6.6 1.2a1 1 0 0 0-.8-.3Z" color="#000"/>
</svg>
