<!--@hoso_boso--><svg xmlns="http://www.w3.org/2000/svg" xmlns:xlink="http://www.w3.org/1999/xlink" xml:space="preserve" viewBox="0 0 33.9 33.9"><defs><linearGradient xlink:href="#a" id="c" x1="22" x2="21.9" y1="24.3" y2="1.3" gradientUnits="userSpaceOnUse"/><linearGradient id="a"><stop offset="0" stop-color="#02284c"/><stop offset="1" stop-color="#95ccff"/></linearGradient><linearGradient xlink:href="#b" id="f" x1="5.9" x2="5.8" y1="2.7" y2="8.9" gradientUnits="userSpaceOnUse"/><linearGradient id="b"><stop offset="0" stop-color="#fff"/><stop offset="1" stop-color="#43e8e2"/></linearGradient><linearGradient xlink:href="#b" id="d" x1="20.1" x2="20.2" y1="9" y2="32.9" gradientUnits="userSpaceOnUse"/><linearGradient xlink:href="#b" id="e" x1="20.1" x2="20.2" y1="9" y2="32.9" gradientUnits="userSpaceOnUse"/></defs><rect width="33.9" height="33.9" fill="url(#c)" ry="4.4"/><g fill="url(#d)" stroke="url(#e)"><circle cx="25.4" cy="9.1" r="2.8" stroke-linecap="round" stroke-miterlimit="12" stroke-width=".7"/><path fill-rule="evenodd" stroke-width=".3" d="m10.8 10.8 6-3.6 10.7 8.3 2.6-3.4s.3-.4.8-.3c.6 0 1.1.5 1.2 1.2 0 .7-4 5.4-4 5.4l-4.5-3.2-4.2 5.4 4.7 4.8s.7.5.4 1.1c-.3.7-1 .6-1 .6h-8v-1.6h6l-5.8-4.9L7 30.2 5.5 29l14.1-16.8-3-2.6-4.7 2.7s-.5.4-1.1-.2c-.6-.5 0-1.3 0-1.3z"/><rect width="6" height="1" x="2.6" y="11.1" stroke-linecap="round" stroke-miterlimit="12" stroke-width=".6" ry=".2"/><rect width="7.8" height=".9" x="2.1" y="14.4" stroke-linecap="round" stroke-miterlimit="12" stroke-width=".6" ry=".2"/><rect width="5.6" height=".7" x="4.2" y="17.6" stroke-linecap="round" stroke-miterlimit="12" stroke-width=".6" ry=".2"/></g><path fill="url(#f)" fill-rule="evenodd" stroke="#02284c" stroke-linecap="round" stroke-linejoin="round" stroke-width=".4" d="M5.8.9a1 1 0 0 0-.8.3L.5 6.8a1 1 0 0 0 .2 1.4A1 1 0 0 0 2 8l3.7-4.6L9.5 8a1 1 0 0 0 1.4.2 1 1 0 0 0 .2-1.4L6.6 1.2a1 1 0 0 0-.8-.3Z" color="#000"/></svg>