<!--@hoso_boso--><svg xmlns="http://www.w3.org/2000/svg" xmlns:xlink="http://www.w3.org/1999/xlink" xml:space="preserve" viewBox="0 0 33.9 33.9"><defs><linearGradient id="c"><stop offset="0"/><stop offset="1" stop-opacity="0"/></linearGradient><linearGradient xlink:href="#a" id="d" x1="22" x2="21.9" y1="24.3" y2="1.3" gradientUnits="userSpaceOnUse"/><linearGradient id="a"><stop offset="0" stop-color="#02284c"/><stop offset="1" stop-color="#95ccff"/></linearGradient><linearGradient xlink:href="#b" id="i" x1="5.9" x2="5.8" y1="2.7" y2="8.9" gradientUnits="userSpaceOnUse"/><linearGradient id="b"><stop offset="0" stop-color="#fff"/><stop offset="1" stop-color="#43e8e2"/></linearGradient><linearGradient xlink:href="#c" id="e" x1="2.2" x2="31.7" y1="16.9" y2="16.9" gradientUnits="userSpaceOnUse"/><linearGradient xlink:href="#b" id="f" x1="26.8" x2="26.9" y1="10.3" y2="31.1" gradientUnits="userSpaceOnUse"/><linearGradient xlink:href="#b" id="h" x1="32" x2="6.1" y1="8" y2="7.8" gradientUnits="userSpaceOnUse"/><linearGradient xlink:href="#b" id="g" x1="26.8" x2="5.3" y1="10.3" y2="9.9" gradientUnits="userSpaceOnUse"/></defs><rect width="33.9" height="33.9" fill="url(#d)" ry="4.4"/><g fill="none" stroke="url(#f)"><circle cx="16.9" cy="16.9" r="12.3" stroke-linecap="round" stroke-miterlimit="12"/><circle cx="16.9" cy="16.9" r="9.1" stroke-linecap="round" stroke-miterlimit="12" stroke-width=".4"/><path stroke-width=".3" d="M17 1.8 16.8 32M31.7 16.9H2.2M15.6 14.6h2.7M15 11.4h3.8M15.6 19.2h2.7M15 22.4h3.8"/><g stroke-width=".3"><path stroke="url(#g)" d="M15.6 14.6h2.7" transform="rotate(90 17 16.9)"/><path stroke="url(#h)" d="M15 11.4h3.8" transform="rotate(90 17 16.9)"/><path d="M14.6 15.5v2.7M11.4 15v3.7"/></g></g><path fill="url(#i)" fill-rule="evenodd" stroke="#02284c" stroke-linecap="round" stroke-linejoin="round" stroke-width=".4" d="M5.8.9a1 1 0 0 0-.8.3L.5 6.8a1 1 0 0 0 .2 1.4A1 1 0 0 0 2 8l3.7-4.6L9.5 8a1 1 0 0 0 1.4.2 1 1 0 0 0 .2-1.4L6.6 1.2a1 1 0 0 0-.8-.3Z" color="#000"/></svg>