<svg xmlns="http://www.w3.org/2000/svg" xmlns:xlink="http://www.w3.org/1999/xlink" xml:space="preserve" viewBox="0 0 33.9 33.9">
  <defs>
    <linearGradient xlink:href="#a" id="c" x1="22.1" x2="21.9" y1="24.3" y2="1.3" gradientUnits="userSpaceOnUse"/>
    <linearGradient id="a">
      <stop offset="0" stop-color="#02284c"/>
      <stop offset="1" stop-color="#95ccff"/>
    </linearGradient>
    <linearGradient xlink:href="#b" id="f" x1="5.9" x2="5.8" y1="2.6" y2="8.9" gradientUnits="userSpaceOnUse"/>
    <linearGradient id="b">
      <stop offset="0" stop-color="#fff"/>
      <stop offset="1" stop-color="#43e8e2"/>
    </linearGradient>
    <linearGradient xlink:href="#b" id="d" x1="18.9" x2="18.4" y1="10.4" y2="33.3" gradientUnits="userSpaceOnUse"/>
    <linearGradient xlink:href="#b" id="e" x1="5.5" x2="5.4" y1="10.5" y2="33" gradientUnits="userSpaceOnUse"/>
  </defs>
  <rect width="33.9" height="33.9" fill="url(#c)" ry="4.4"/>
  <g stroke="url(#d)">
    <path fill="none" stroke-width=".8" d="m11.8 9-3.3 1.4C4 12.2 1.3 12 1.3 12l.4 8.5c.3 4.4.3 5.6 2.9 8.5 2 2.3 7.1 3.9 7.1 3.9s5-1.5 7.2-4c2.4-2.8 2.3-4.2 2.8-8.4.5-4.1.4-8.5.4-8.5s-2.7.2-7.1-1.5c-2.6-1-3.2-1.4-3.2-1.4Z"/>
    <path fill="url(#e)" fill-rule="evenodd" stroke-width=".1" d="m11.5 14-2 .8c-2.7 1-4.3.9-4.3.9s-.1 2.9.3 5.1c.4 2.7.1 3.4 1.7 5.1 1.2 1.4 4.3 2.4 4.3 2.4s3.3-1 4.3-2.4c1.4-1.8 1.4-2.5 1.7-5 .3-2.6.3-5.2.3-5.2s-1.7.1-4.3-1a13.3 13.3 0 0 1-2-.8z"/>
    <path fill="none" stroke-linecap="round" stroke-miterlimit="9" d="M14.7 3.6c1.3 4.5 3.4 6.6 6 3.3a147.2 147.2 0 0 1 1.9-2.4s-3.3 7.2 2.2 4.5l4-1.9c-2.5 2.2-8.6 5.2-2.7 5.2 1.7 0 3.2.2 3.2.2s-9.5.9-3.4 4.3c3.1 1.8 4.4 2.8 4.4 2.8s-8.1-2.2-6.2.8a30.1 30.1 0 0 0 3 3.8"/>
  </g>
  <path fill="url(#f)" fill-rule="evenodd" stroke="#02284c" stroke-linecap="round" stroke-linejoin="round" stroke-width=".4" d="M5.8.8a1 1 0 0 0-.8.4L.5 6.8a1 1 0 0 0 .2 1.4A1 1 0 0 0 2 8l3.7-4.6L9.5 8a1 1 0 0 0 1.4.2 1 1 0 0 0 .2-1.4L6.6 1.2a1 1 0 0 0-.8-.4Z" color="#000"/>
</svg>
