<!--@hoso_boso--><svg xmlns="http://www.w3.org/2000/svg" xmlns:xlink="http://www.w3.org/1999/xlink" xml:space="preserve" viewBox="0 0 33.9 33.9"><defs><linearGradient xlink:href="#a" id="c" x1="22" x2="21.9" y1="24.3" y2="1.3" gradientUnits="userSpaceOnUse"/><linearGradient id="a"><stop offset="0" stop-color="#02284c"/><stop offset="1" stop-color="#95ccff"/></linearGradient><linearGradient xlink:href="#b" id="g" x1="5.9" x2="5.8" y1="2.7" y2="8.9" gradientUnits="userSpaceOnUse"/><linearGradient id="b"><stop offset="0" stop-color="#fff"/><stop offset="1" stop-color="#43e8e2"/></linearGradient><linearGradient xlink:href="#b" id="f" x1="17.2" x2="16.4" y1="3.4" y2="31.5" gradientUnits="userSpaceOnUse"/><linearGradient xlink:href="#b" id="d" x1="17.1" x2="17.1" y1="4" y2="25.6" gradientUnits="userSpaceOnUse"/><linearGradient xlink:href="#b" id="e" x1="17.7" x2="17.3" y1="5.1" y2="26.1" gradientUnits="userSpaceOnUse"/></defs><rect width="33.9" height="33.9" fill="url(#c)" ry="4.4"/><path fill="none" stroke="url(#d)" stroke-width=".8" d="M17.1 2 14 3.4C9.5 5 6.8 4.9 6.8 4.9l.4 8.3c.3 4.4.3 5.6 2.8 8.4 2 2.3 7 3.9 7 3.9s5.1-1.5 7.2-3.9c2.4-2.8 2.3-4.2 2.8-8.4.4-4 .4-8.3.4-8.3s-2.7.1-7.1-1.5c-2.6-1-3.2-1.4-3.2-1.4z"/><path fill="url(#e)" fill-rule="evenodd" d="m17 6.8-2 .9c-2.7 1-4.3.9-4.3.9s-.2 2.9.2 5c.5 2.7.2 3.4 1.7 5.1 1.2 1.4 4.3 2.4 4.3 2.4s3.3-1 4.3-2.4c1.3-1.8 1.4-2.5 1.7-5 .3-2.5.2-5.1.2-5.1s-1.6 0-4.3-1c-1.5-.5-1.9-.8-1.9-.8z"/><g fill="url(#f)" fill-rule="evenodd" color="#000"><path d="M2.1 5.4C3.5 9 3.5 8.5 3.6 9.6c.1 1-.5 1.5-1 3.6-.5 1.7-.6 3-.5 4 .1 1.2.7 2.1 2 3.3.7.8 1 1 1.5 1.4l1.9 1 2.3 1-2.4-1.5-1.4-1L4.5 20c-1.2-1.1-1.7-1.9-1.7-2.8 0-.9.2-2 .7-3.7.5-2.1 1-2.6.9-3.9-.2-1.2-.1-1-2.3-4.2Z" style="-inkscape-stroke:none" transform="translate(.1)"/><path d="M2.8 18.7s-1.3.7-1.9 2c-.3.5-.4 1.3 0 2 .5.8 1.4 1.5 3 2.1L9 27H8c-.4.2-1.1.3-1.7.7-.6.3-1.5.9-1.6 1.7 0 .8.7 1.5 1.2 2 .6.5 1.4.8 2.2 1 1.5.4 3.6.5 4.8.2.8-.1 1.6-.5 2-1.2v-1.1c-.2-.4-.5-.8-1-1.2L11 27.4c1.6-.3 2.7-.4 4.2-.5h-4.8l-6.3-2.7c-1.6-.6-2.3-1.2-2.7-1.8-.3-.5-.2-1 0-1.5.4-1 1.7-1.7 1.7-1.7zm7.4 8.9c1.2.6 2 .9 3.3 1.8.5.3.8.7.9 1 0 .2.2.7 0 1-.2.6-1 .8-1.5 1-1.5.3-3.2-.2-4.7-.6a5.3 5.3 0 0 1-1.7-1c-.4-.4-.5-.7-.4-1.3 0-.6.2-1 .7-1.3a4 4 0 0 1 1.4-.5l2-.1z" style="-inkscape-stroke:none" transform="translate(.1)"/><path d="M2.1 5.4C3.5 9 3.5 8.5 3.6 9.6c.1 1-.5 1.5-1 3.6-.5 1.7-.6 3-.5 4 .1 1.2.7 2.1 2 3.3.7.8 1 1 1.5 1.4l1.9 1 2.3 1-2.4-1.5-1.4-1L4.5 20c-1.2-1.1-1.7-1.9-1.7-2.8 0-.9.2-2 .7-3.7.5-2.1 1-2.6.9-3.9-.2-1.2-.1-1-2.3-4.2Z" style="-inkscape-stroke:none" transform="matrix(-1 0 0 1 34.1 0)"/><path d="M2.8 18.7s-1.3.7-1.9 2c-.3.5-.4 1.3 0 2 .5.8 1.4 1.5 3 2.1L9 27H8c-.4.2-1.1.3-1.7.7-.6.3-1.5.9-1.6 1.7 0 .8.7 1.5 1.2 2 .6.5 1.4.8 2.2 1 1.5.4 3.6.5 4.8.2.8-.1 1.6-.5 2-1.2v-1.1c-.2-.4-.5-.8-1-1.2L11 27.4c1.6-.3 2.7-.4 4.2-.5h-4.8l-6.3-2.7c-1.6-.6-2.3-1.2-2.7-1.8-.3-.5-.2-1 0-1.5.4-1 1.7-1.7 1.7-1.7zm7.4 8.9c1.2.6 2 .9 3.3 1.8.5.3.8.7.9 1 0 .2.2.7 0 1-.2.6-1 .8-1.5 1-1.5.3-3.2-.2-4.7-.6a5.3 5.3 0 0 1-1.7-1c-.4-.4-.5-.7-.4-1.3 0-.6.2-1 .7-1.3a4 4 0 0 1 1.4-.5l2-.1z" style="-inkscape-stroke:none" transform="matrix(-1 0 0 1 34.1 0)"/></g><path fill="url(#g)" fill-rule="evenodd" stroke="#02284c" stroke-linecap="round" stroke-linejoin="round" stroke-width=".4" d="M5.8.9a1 1 0 0 0-.8.3L.5 6.8a1 1 0 0 0 .2 1.4A1 1 0 0 0 2 8l3.7-4.6L9.5 8a1 1 0 0 0 1.4.2 1 1 0 0 0 .2-1.4L6.6 1.2a1 1 0 0 0-.8-.3Z" color="#000"/></svg>