<!--@hoso_boso--><svg xmlns="http://www.w3.org/2000/svg" xmlns:xlink="http://www.w3.org/1999/xlink" xml:space="preserve" viewBox="0 0 33.87 33.87"><defs><linearGradient xlink:href="#a" id="c" x1="22.05" x2="21.86" y1="24.28" y2="1.25" gradientUnits="userSpaceOnUse"/><linearGradient id="a"><stop offset="0" stop-color="#02284c"/><stop offset="1" stop-color="#95ccff"/></linearGradient><linearGradient xlink:href="#b" id="f" x1="5.88" x2="5.85" y1="2.65" y2="8.92" gradientUnits="userSpaceOnUse"/><linearGradient id="b"><stop offset="0" stop-color="#fff"/><stop offset="1" stop-color="#43e8e2"/></linearGradient><linearGradient xlink:href="#b" id="d" x1="18.91" x2="18.4" y1="10.44" y2="33.29" gradientUnits="userSpaceOnUse"/><linearGradient xlink:href="#b" id="e" x1="5.55" x2="5.42" y1="10.54" y2="33.05" gradientUnits="userSpaceOnUse"/></defs><rect width="33.87" height="33.87" fill="url(#c)" ry="4.36"/><g stroke="url(#d)"><path fill="none" stroke-width=".82" d="M11.78 9.01s-.68.35-3.31 1.4c-4.44 1.77-7.17 1.52-7.17 1.52s.21 4.77.44 8.46c.27 4.45.3 5.62 2.82 8.47 2.05 2.3 7.16 3.9 7.16 3.9s5.07-1.46 7.16-3.9c2.42-2.84 2.32-4.25 2.82-8.47.49-4.09.44-8.46.44-8.46s-2.75.2-7.16-1.52c-2.6-1-3.2-1.4-3.2-1.4Z"/><path fill="url(#e)" fill-rule="evenodd" stroke-width=".13" d="M11.54 13.92s-.4.21-2 .85c-2.7 1.07-4.34.92-4.34.92s-.11 2.91.26 5.12c.47 2.74.19 3.4 1.71 5.13 1.24 1.4 4.34 2.36 4.34 2.36s3.32-.97 4.33-2.36c1.33-1.83 1.4-2.58 1.71-5.13.3-2.48.26-5.12.26-5.12s-1.66.12-4.33-.92a13.33 13.33 0 0 1-1.94-.85z"/><path fill="none" stroke-linecap="round" stroke-miterlimit="9" d="M14.69 3.6c1.29 4.47 3.44 6.62 6.01 3.27a147.16 147.16 0 0 1 1.9-2.4s-3.29 7.22 2.23 4.55c2.83-1.38 3.95-1.89 3.95-1.89-2.45 2.12-8.53 5.2-2.67 5.15 1.66-.01 3.18.26 3.18.26s-9.53.84-3.43 4.3c3.17 1.8 4.46 2.75 4.46 2.75s-8.16-2.16-6.18.77a30.1 30.1 0 0 0 2.92 3.86"/></g><path fill="url(#f)" fill-rule="evenodd" stroke="#02284c" stroke-linecap="round" stroke-linejoin="round" stroke-width=".4" d="M5.82.85a1 1 0 0 0-.78.37L.54 6.78a1 1 0 0 0 .15 1.4 1 1 0 0 0 1.41-.14l3.72-4.6 3.72 4.6a1 1 0 0 0 1.4.15 1 1 0 0 0 .16-1.41L6.6 1.22a1 1 0 0 0-.78-.37Z" color="#000"/></svg>