<!--@hoso_boso--><svg xmlns="http://www.w3.org/2000/svg" xmlns:xlink="http://www.w3.org/1999/xlink" xml:space="preserve" viewBox="0 0 33.9 33.9"><defs><linearGradient id="f"><stop offset="0" stop-color="#fff"/><stop offset="1" stop-color="#43e8e2"/></linearGradient><linearGradient id="e"><stop offset="0" stop-color="#43e8e2"/><stop offset="1" stop-color="#fff"/></linearGradient><linearGradient id="d"><stop offset="0" stop-color="#43e8e2"/><stop offset="1" stop-color="#fff"/></linearGradient><linearGradient id="c"><stop offset="0" stop-color="#02284c"/><stop offset="1" stop-color="#95ccff"/></linearGradient><linearGradient id="b"><stop offset="0" stop-color="#fbfbfb"/><stop offset="1" stop-color="#43e8e2"/></linearGradient><linearGradient id="a"><stop offset="0" stop-color="#43e8e2"/><stop offset="1" stop-color="#fff"/></linearGradient><linearGradient xlink:href="#a" id="k" x1="24.7" x2="18.8" y1="26.1" y2="13.6" gradientTransform="rotate(24 11.8 21.8)" gradientUnits="userSpaceOnUse"/><linearGradient xlink:href="#b" id="h" x1="21.1" x2="25.8" y1="15.9" y2="26.3" gradientTransform="rotate(24 11.8 21.8)" gradientUnits="userSpaceOnUse"/><linearGradient xlink:href="#c" id="g" x1="22" x2="21.9" y1="24.3" y2="1.3" gradientUnits="userSpaceOnUse"/><linearGradient xlink:href="#d" id="i" x1="9.9" x2="10" y1="31.7" y2="19.5" gradientUnits="userSpaceOnUse"/><linearGradient xlink:href="#e" id="j" x1="4.7" x2="4.9" y1="31.9" y2="23.8" gradientUnits="userSpaceOnUse"/><linearGradient xlink:href="#f" id="l" x1="5.9" x2="5.8" y1="2.7" y2="8.9" gradientUnits="userSpaceOnUse"/></defs><rect width="33.9" height="33.9" fill="url(#g)" ry="4.4"/><path fill="url(#h)" fill-rule="evenodd" stroke="#000" stroke-width=".3" d="M32 9.2 29.2 17s-2.4-.8-7.2 2.5c-4.7 3.2-4.6 5-4.6 5l-4.1-1.8z"/><path fill="url(#i)" fill-rule="evenodd" stroke="#000" stroke-width=".3" d="m13.1 18.2-7-2.7 4.7 6.5-5.6 4 2.3 3.4 5.7-4 4.3 6.7v-7.6l-4.2-1.8z"/><path fill="url(#j)" fill-rule="evenodd" stroke="#000" stroke-width=".3" d="m5.2 26-2.7-.2 4 5.6 1-2Z"/><path fill="#fff" fill-rule="evenodd" stroke="#000" stroke-linejoin="round" stroke-width=".3" d="M23 12c-.8-1-2.5-4.3-8.6-6.2C8.5 4 7 5.1 7 5.1s2.8-.5 8.4 2 6.5 6 6.5 6V13zM21.1 14.8s.2-1.4-5.4-4.4a19.7 19.7 0 0 0-8-2C4.2 8 2 8.8 2 8.8s3-.4 6.3 0c2.7.5 4.5 1.2 6.6 2.1a13 13 0 0 1 4.8 4.1zM17.2 16.7c-2.5-2.7-3.4-3.3-6-4-2.7-.6-4.8.4-4.8.4s1.8-1 5.5.7c3.6 1.8 4.3 3.6 4.3 3.6z"/><path fill="url(#k)" fill-rule="evenodd" stroke="#000" stroke-width=".3" d="m32 9.2-8 .3s0 2.5-4.7 6C14.8 19 13 18.2 13 18.2l.2 4.5z"/><path fill="url(#l)" fill-rule="evenodd" stroke="#02284c" stroke-linecap="round" stroke-linejoin="round" stroke-width=".4" d="M5.8.9a1 1 0 0 0-.8.3L.5 6.8a1 1 0 0 0 .2 1.4A1 1 0 0 0 2 8l3.7-4.6L9.5 8a1 1 0 0 0 1.4.2 1 1 0 0 0 .2-1.4L6.6 1.2a1 1 0 0 0-.8-.3Z" color="#000"/></svg>