<!--@hoso_boso--><svg xmlns="http://www.w3.org/2000/svg" xmlns:xlink="http://www.w3.org/1999/xlink" xml:space="preserve" width="40" height="40" viewBox="0 0 10.583 10.584"><defs><linearGradient id="b"><stop offset="0" stop-color="red"/><stop offset="1" stop-color="#ffc34c"/></linearGradient><linearGradient id="a"><stop offset="0" stop-color="#a2a2a2"/><stop offset="1" stop-color="#fff"/></linearGradient><linearGradient xlink:href="#a" id="e" x1="4.422" x2="5.659" y1="6.835" y2="5.393" gradientTransform="matrix(1.1 0 0 .8 -1.54 -1.026)" gradientUnits="userSpaceOnUse" spreadMethod="reflect"/><linearGradient xlink:href="#b" id="c" x1="5.827" x2="5.753" y1="7.306" y2="10.926" gradientTransform="matrix(1.1 0 0 1.1 0 -2.542)" gradientUnits="userSpaceOnUse"/><linearGradient xlink:href="#b" id="d" x1="5.827" x2="5.753" y1="7.306" y2="10.926" gradientTransform="matrix(1.1 0 0 1.1 0 -2.542)" gradientUnits="userSpaceOnUse"/></defs><rect width="10.584" height="10.584" opacity=".927" ry=".791"/><path fill="#fff" d="M1.734 9.13V4.363h1.152v3.809h1.362v.958z" aria-label="L" font-family="GenEi Gothic M" font-size="6.373" font-weight="800" letter-spacing="0" style="line-height:7.46799px;-inkscape-font-specification:&quot;GenEi Gothic M, Ultra-Bold&quot;" transform="matrix(.9 0 0 1.1 -.613 -.35)" word-spacing="0"/><path fill="url(#d)" stroke-width=".299" d="M6.27 7.158h.51l-.05-.411q-.013-.081-.193-1.531h-.025q-.025.267-.193 1.53zm.765 1.972L6.89 8.035h-.728L6.026 9.13H4.944l.802-4.767h1.581L8.13 9.13z" aria-label="A" font-family="GenEi Gothic M" font-size="6.373" font-weight="800" letter-spacing="0" style="line-height:7.46811px;-inkscape-font-specification:&quot;GenEi Gothic M, Ultra-Bold&quot;" transform="matrix(.9 0 0 1.1 -.613 -.35)" word-spacing="0"/><path fill="#fff" d="M8.143 10.308V6.086h1.02v3.373h1.207v.849z" aria-label="L" font-family="GenEi Gothic M" font-size="5.645" font-weight="800" letter-spacing="0" style="line-height:6.61475px;-inkscape-font-specification:&quot;GenEi Gothic M, Ultra-Bold&quot;" transform="matrix(-1 0 0 1.3 17.53 -3.181)" word-spacing="0"/><path fill="url(#e)" fill-rule="evenodd" stroke="#6b6b6b" stroke-linecap="round" stroke-width=".088" d="M.135.227s.315 2.085 1.64 2.785c1.13.597 1.25.77 2.99.904 1.839.142-1.262-.032-1.186.003.408.183.674.361 1.691.401.953.038 1.152-.087 1.152-.087s-.418.136-.936.157a9.422 9.422 0 0 1-1.099-.023s1.617.545 2.3.531c.612-.012.962-.11.962-.11L9.806 6.34l.432-.289L8.205 4.56s.606-.682.274-1.17c-.332-.489-.498-.622-.498-.622s.03.383.015.601c-.013.19-.18.553-.18.553s.157-1.273-.137-1.632c-.279-.34-.528-.543-.528-.543s.276.274.133.8c-.128.47-.159.463-.159.463.018-.418-.163-.941-.788-1.417-.657-.5-1.906-.778-2.504-.667-.597.111-.53.133-.53.133s.63.356.563.666c-.066.31-.033.067-.033.067s.033-.133-.431-.422c-.465-.288-.365-.31-.365-.31S1.344 1.26.979.97C.614.683-.03-.034.135.228Z" opacity=".927"/></svg>