<svg xmlns="http://www.w3.org/2000/svg" width="200" height="80" viewBox="0 0 52.92 21.17">
  <g paint-order="stroke fill markers">
    <path d="M1.15 8.84V4.45h.45v1.82h.03q.24-.55.86-.55.48 0 .75.3.28.3.28.85v1.97h-.46V6.96q0-.41-.18-.62-.17-.22-.52-.22-.31 0-.54.16-.22.15-.22.44v2.12zm4.5.07q-.4 0-.72-.2-.3-.2-.48-.56-.17-.36-.17-.84t.17-.84q.17-.36.48-.56.31-.2.72-.2.4 0 .72.2.31.2.48.56.18.36.18.84t-.18.84q-.17.37-.48.56-.31.2-.72.2Zm0-.4q.4 0 .65-.25.24-.25.24-.73v-.44q0-.48-.24-.73t-.65-.25q-.4 0-.64.25-.25.25-.25.73v.44q0 .48.25.73.24.25.64.25zm3.08.4q-.4 0-.7-.15-.29-.16-.5-.45l.33-.26q.18.23.4.36.22.12.5.12.32 0 .5-.14.17-.13.17-.38 0-.2-.13-.32-.13-.13-.43-.17l-.25-.04q-.97-.13-.97-.88 0-.43.3-.66.3-.23.78-.23.36 0 .61.13.26.12.45.36l-.3.27q-.11-.16-.32-.27-.2-.1-.47-.1-.3 0-.46.12-.16.13-.16.36 0 .22.15.33.15.1.46.16l.23.03q.49.07.71.3.23.2.23.56 0 .44-.3.7-.3.25-.83.25zm3.11 0q-.4 0-.71-.2-.32-.2-.49-.56-.17-.36-.17-.84t.17-.84q.17-.36.49-.56.3-.2.71-.2.4 0 .72.2.31.2.48.56.18.36.18.84t-.18.84q-.17.37-.48.56-.31.2-.72.2zm0-.4q.4 0 .65-.25.24-.25.24-.73v-.44q0-.48-.24-.73t-.65-.25q-.4 0-.64.25t-.24.73v.44q0 .48.24.73t.64.25zm3.55.4q-.32 0-.55-.14-.22-.14-.35-.42h-.02v.49h-.45V4.45h.45v1.82h.02q.24-.56.9-.56.37 0 .65.2.28.19.44.55.15.36.15.85 0 .48-.15.85-.16.36-.44.56-.28.19-.65.19zm-.12-.4q.4 0 .64-.26.23-.26.23-.69v-.5q0-.43-.23-.68-.24-.26-.64-.26-.33 0-.57.17-.23.17-.23.43v1.15q0 .29.22.46.23.17.58.17zm3.32.4q-.4 0-.72-.2-.31-.2-.49-.56-.16-.36-.16-.84t.16-.84q.18-.36.49-.56.31-.2.72-.2.4 0 .71.2.32.2.49.56.17.36.17.84t-.17.84q-.17.37-.49.56-.3.2-.71.2zm0-.4q.4 0 .65-.25.24-.25.24-.73v-.44q0-.48-.24-.73-.25-.25-.65-.25t-.65.25q-.24.25-.24.73v.44q0 .48.24.73.25.25.65.25zm3.08.4q-.4 0-.7-.15-.29-.16-.5-.45l.32-.26q.18.23.4.36.22.12.5.12.32 0 .5-.14.17-.13.17-.38 0-.2-.13-.32-.13-.13-.43-.17l-.24-.04q-.97-.13-.97-.88 0-.43.3-.66.3-.23.78-.23.35 0 .6.13.27.12.46.36l-.3.27q-.12-.16-.32-.27-.2-.1-.47-.1-.3 0-.46.12-.16.13-.16.36 0 .22.15.33.14.1.45.16l.24.03q.49.07.71.3.23.2.23.56 0 .44-.3.7-.3.25-.83.25zm3.1 0q-.4 0-.7-.2-.32-.2-.5-.56-.16-.36-.16-.84t.17-.84q.17-.36.48-.56.31-.2.72-.2.4 0 .72.2.31.2.48.56.18.36.18.84t-.18.84q-.17.37-.48.56-.31.2-.72.2zm0-.4q.42 0 .66-.25.24-.25.24-.73v-.44q0-.48-.24-.73t-.65-.25q-.4 0-.64.25-.25.25-.25.73v.44q0 .48.25.73.24.25.64.25zm4.54 1.3h-2.96v-.4h2.96zm.7-.97V5.78h.46v.5h.02q.12-.27.3-.41.2-.15.53-.15.32 0 .57.15.25.15.37.47.1-.28.34-.45.23-.17.6-.17.47 0 .73.3.27.3.27.85v1.97h-.45V6.96q0-.41-.17-.62-.17-.22-.52-.22-.3 0-.51.16-.21.15-.21.44v2.12h-.45V6.96q0-.42-.17-.63-.17-.2-.51-.2-.3 0-.53.15-.21.15-.21.44v2.12zm5.95.07q-.48 0-.75-.25t-.27-.68q0-.43.33-.66.32-.23.97-.23h.61v-.3q0-.34-.18-.52-.18-.17-.55-.17-.51 0-.8.46l-.26-.25q.13-.27.41-.43.28-.17.67-.17.55 0 .85.27.31.27.31.76v1.7h.35v.4h-.24q-.26 0-.4-.14-.12-.13-.12-.36v-.01h-.03q-.1.28-.34.43-.23.15-.56.15zm.08-.38q.35 0 .58-.17.23-.17.23-.41v-.52h-.64q-.4 0-.6.13-.2.11-.2.35v.12q0 .24.17.37t.46.13zm2.54-3.49q-.14 0-.2-.06-.08-.07-.08-.19v-.07q0-.12.07-.19t.21-.07q.14 0 .2.07.08.07.08.19v.07q0 .12-.07.19-.07.06-.21.06zm.22 3.8h-.45V5.78h.45Zm1.52 0q-.23 0-.36-.13-.13-.14-.13-.35v-3.9h.45v3.98h.45v.4Zm2.5-1.56h-1.54v-.49h1.54zm1.42 1.56q-.24 0-.37-.13-.13-.14-.13-.35v-3.9h.46v3.98h.45v.4zm1.89.07q-.48 0-.75-.25t-.27-.68q0-.43.32-.66.32-.23.97-.23h.62v-.3q0-.34-.19-.52-.18-.17-.55-.17-.5 0-.79.46l-.27-.25q.14-.27.42-.43.28-.17.67-.17.54 0 .85.27.31.27.31.76v1.7h.35v.4h-.24q-.26 0-.4-.14-.13-.13-.13-.36v-.01h-.03q-.1.28-.33.43-.24.15-.56.15zm.08-.38q.35 0 .58-.17.23-.17.23-.41v-.52h-.64q-.4 0-.6.13-.2.11-.2.35v.12q0 .24.17.37t.46.13zm2.8.3q-.23 0-.36-.12-.13-.14-.13-.35v-3.9h.45v3.98h.45v.4z" aria-label="mail"/>
    <path d="M19.77 17.38q-.67 0-1.18-.3-.5-.3-.8-.84-.27-.56-.27-1.28 0-.73.28-1.3.3-.56.82-.87.52-.31 1.2-.31.6 0 1.09.24.5.24.8.75.3.51.3 1.29 0 .66-.24 1.08-.25.42-.77.42-.27 0-.42-.14-.15-.14-.18-.37h-.03q-.24.51-.73.51-.28 0-.52-.14-.23-.15-.37-.44-.14-.3-.14-.72t.14-.72q.14-.3.37-.44.24-.14.52-.14.25 0 .42.12.18.13.26.33h.02v-.4h.4v1.81q0 .22.07.3.08.09.26.09.27 0 .42-.28.15-.29.15-.8v-.27q0-.51-.24-.9-.24-.4-.65-.62-.42-.22-.93-.22-.56 0-1 .26-.43.25-.68.7-.24.44-.24.99v.34q0 .56.23 1 .24.44.66.68.43.25.99.25h1.37v.34zm-.05-1.5q.3 0 .46-.14.16-.16.16-.43v-.73q0-.24-.16-.4-.16-.15-.46-.15-.32 0-.48.19-.15.18-.15.51v.46q0 .32.15.51.17.19.48.19zm3.15 1.98v-.4h.49l.24-.68-1.14-3.16h.45l.88 2.59h.04l.9-2.6h.45l-1.36 3.79q-.08.19-.16.28-.07.1-.2.14-.11.04-.33.04zm3.63-1.11q-.48 0-.75-.25t-.27-.68q0-.43.32-.66.32-.23.97-.23h.62v-.3q0-.35-.19-.52-.18-.18-.54-.18-.52 0-.8.47l-.27-.26q.14-.26.42-.43.28-.16.67-.16.55 0 .85.27.31.27.31.75v1.7h.35v.4h-.24q-.26 0-.4-.13-.13-.14-.13-.36v-.02h-.03q-.1.29-.33.44-.24.15-.56.15zm.08-.39q.35 0 .58-.16.23-.17.23-.42v-.51h-.64q-.4 0-.6.12-.2.12-.2.35v.12q0 .24.17.37t.46.13zm2.31.31V12.3h.45v1.82h.02q.25-.56.87-.56.48 0 .75.3.28.31.28.86v1.96h-.46V14.8q0-.42-.18-.63-.17-.21-.52-.21-.31 0-.54.16-.22.15-.22.44v2.11zm4.5.08q-.4 0-.72-.2-.3-.2-.48-.56-.17-.37-.17-.85t.17-.84q.17-.36.48-.56.31-.2.72-.2.4 0 .72.2.31.2.48.56.18.36.18.84t-.18.85q-.17.36-.48.56-.31.2-.72.2zm0-.4q.4 0 .65-.25.24-.26.24-.74v-.43q0-.48-.24-.73t-.65-.25q-.4 0-.64.25-.25.25-.25.73v.43q0 .48.25.74.24.24.64.24zm3.31.4q-.4 0-.71-.2-.31-.2-.49-.56-.17-.37-.17-.85t.17-.84q.18-.36.49-.56.3-.2.71-.2.4 0 .72.2.32.2.48.56.18.36.18.84t-.18.85q-.16.36-.48.56-.31.2-.72.2zm0-.4q.4 0 .65-.25.24-.26.24-.74v-.43q0-.48-.24-.73t-.65-.25q-.4 0-.64.25t-.24.73v.43q0 .48.24.74.24.24.64.24zm2.35.4q-.17 0-.26-.09-.08-.09-.08-.24v-.08q0-.15.08-.23.1-.1.26-.1.17 0 .25.1.1.08.1.23v.08q0 .15-.1.24-.08.09-.25.09zm2.39 0q-.64 0-1-.43-.36-.44-.36-1.18t.36-1.16q.36-.43 1-.43.43 0 .7.2.3.18.43.5l-.38.2q-.09-.24-.28-.37-.2-.13-.47-.13-.43 0-.65.26-.23.26-.23.68v.5q0 .44.23.7.22.25.65.25.57 0 .83-.53l.33.21q-.15.34-.45.53-.3.2-.71.2zm2.95 0q-.4 0-.72-.2-.3-.2-.48-.56-.17-.37-.17-.85t.17-.84q.17-.36.48-.56.31-.2.72-.2.4 0 .72.2.31.2.48.56.18.36.18.84t-.18.85q-.17.36-.48.56-.31.2-.72.2zm0-.4q.4 0 .65-.25.24-.26.24-.74v-.43q0-.48-.24-.73t-.65-.25q-.4 0-.64.25-.25.25-.25.73v.43q0 .48.25.74.24.24.64.24zm2.35.4q-.17 0-.26-.09t-.09-.24v-.08q0-.15.09-.23.09-.1.26-.1t.25.1q.1.08.1.23v.08q0 .15-.1.24-.08.09-.25.09zm1.54-3.87q-.14 0-.21-.07-.07-.07-.07-.18v-.08q0-.12.07-.18.07-.07.2-.07.15 0 .22.07.07.06.07.18v.08q0 .11-.07.18-.07.07-.21.07zm-.73 4.98v-.4h.5v-3.84h.46v3.55q0 .32-.16.5-.16.19-.48.19zm1.98 0v-4.24h.45v.49H50q.24-.56.9-.56.38 0 .65.2.29.18.44.55.15.36.15.84 0 .49-.15.85-.15.37-.44.56-.27.2-.65.2-.32 0-.54-.15-.22-.14-.36-.42h-.02v1.68zm1.25-1.52q.4 0 .64-.25.23-.26.23-.7v-.5q0-.42-.23-.68-.24-.26-.64-.26-.33 0-.57.17-.23.17-.23.44v1.14q0 .3.22.47.24.17.58.17z" aria-label="yahoo"/>
  </g>
</svg>
