<svg width="260" height="60" fill="none" version="1.1" id="svg4" xmlns="http://www.w3.org/2000/svg"><rect style="fill:#191919;fill-opacity:1;fill-rule:evenodd;stroke-width:1.03879;stroke-linecap:round;stroke-miterlimit:12" id="rect5" width="260" height="60" x="0" y="0" rx="8.637" ry="9.343"/><g clip-path="url(#clip0_1_16)" id="g4" transform="translate(-1.225 -2.066) scale(.29739)" fill="#000"><path d="M129.6 69.1c-18-.5-43.2.5-61.5.5v93.6h26.2V92.4s23.3-.8 31.7.2c7.9.9 10.8 5.8 11.1 16 .2 11.6 0 17.7 0 54.6h26.2s.3-42.2 0-56.9c-.4-26.1-9.5-36.6-33.7-37.2z" id="path1" style="fill:#fff;fill-opacity:1"/><path d="M250.8 68.8c-25.9 0-47 21.2-47 47.3 0 26.1 21.1 47.3 47 47.3s47-21.2 47-47.3c0-26.1-21.1-47.3-47-47.3zm0 72c-13.6 0-24.6-11.1-24.6-24.8 0-13.7 11-24.8 24.6-24.8 13.6 0 24.6 11.1 24.6 24.8 0 13.8-11 24.8-24.6 24.8z" id="path2" style="fill:#fff;fill-opacity:1"/><path d="M545.4 116.1c0-26.1-21.1-47.3-47-47.3s-47 21.2-47 47.3c0 15.3 7 28.4 17.9 37.1 7.6 6 18.2 10.2 32.4 10.2 6.9 0 24.8-1.9 37.7-16.2L528.8 133c-4.5 4-15.8 9.6-24.8 9.6-11.4 0-18.3-2.2-23.3-6.9-3.1-2.8-5.3-7.1-6.3-12.4h70.3c.4-2.4.7-4.7.7-7.2zm-70.8-8.6c2.6-11.1 10.4-19.3 23.7-19.3 13.9 0 21.2 8.8 23.6 19.3z" id="path3" style="fill:#fff;fill-opacity:1"/><path d="M386.8 60.1h-24.5v26.3h-25.2v23h25.2v27.3h24.5v-27.3H412v-23h-25.2z" id="path4" style="fill:#fff;fill-opacity:1"/></g><defs id="defs4"><clipPath id="clip0_1_16"><path fill="#fff" id="rect4" d="M0 0h614.1v231.6H0z"/></clipPath></defs><path style="font-weight:700;font-size:26.6667px;line-height:25px;font-family:&quot;BIZ UDGothic&quot;;-inkscape-font-specification:&quot;BIZ UDGothic, Bold&quot;;letter-spacing:0;word-spacing:0;fill:#fff;stroke-width:1px" d="M167.542 27.844q11.979-.182 22.643-.612l.156 2.591q-4.7.234-7.318 1.432-2.5 1.146-4.01 3.177-1.719 2.305-1.719 5.13 0 2.813 1.953 4.22 2.24 1.6 6.875 2.2l-.612 2.93q-6.041-.808-8.502-3.125-2.644-2.474-2.644-6.146 0-3.334 2.396-6.224 1.745-2.123 4.779-3.412-5.378.183-13.867.612zm18.932 11.237q-.768-2.044-2.591-4.636l2.031-.755q1.628 2.24 2.617 4.584zm3.516-1.367q-.925-2.396-2.579-4.662l1.94-.69q1.524 1.849 2.592 4.48zm14.53-11.537V24.68h2.826v1.497h8.399v2.956h2.93v1.862h-2.93v3.047h-8.399v1.094h9.7v1.81h-9.7v1.12h11.328v1.913H193.35v-1.914h11.172v-1.12h-9.362v-1.81h9.362v-1.093h-8.295v-1.758h8.295v-1.29h-11.172v-1.861h11.172v-1.198h-8.295v-1.758zm8.425 1.758h-5.599v1.198h5.6zm0 3.06h-5.599v1.289h5.6zm2.591 10.065v8.958h-2.877v-1.067h-13.281v1.067H196.5V41.06zm-16.158 1.784v1.198h13.28v-1.198zm0 2.904v1.289h13.28v-1.29zm40.22 3.62q-5.885-4.584-15.416-10.235-1.758-1.029-1.758-2.162 0-.807.769-1.523.325-.312 1.64-1.042 4.805-2.669 10.365-6.367 2.096-1.38 3.815-2.67l1.706 2.24q-6.706 4.753-13.763 8.672-.69.391-.69.651 0 .209.377.47.104.077 1.211.728 8.932 5.274 13.45 8.633z" id="text5" aria-label="で書く"/></svg>