<svg xmlns="http://www.w3.org/2000/svg" xml:space="preserve" width="260" height="60" fill-rule="evenodd" stroke-linejoin="round" stroke-miterlimit="2" clip-rule="evenodd"><rect width="260" height="60" fill="#94ce27" rx="8.4" ry="7.3"/><path fill="#fff" fill-rule="nonzero" d="M23.2 11.5a6 6 0 0 0-2.1.4 6 6 0 0 0-3 2.2 6 6 0 0 0-1 3.5v22.8a6 6 0 0 0 1.7 4.3 6 6 0 0 0 4.4 1.8c1.7 0 3.1-.6 4.3-1.8a5.9 5.9 0 0 0 1.8-4.3v-4.2c0-.9 1-.6 1.4 0a5.8 5.8 0 0 0 4.9 2.8c2.2 0 4-1 4.9-2.8.3-.4 1.3-1.1 1.4 0v4.2a6 6 0 0 0 6.1 6c1.7 0 3.2-.5 4.3-1.7a5.9 5.9 0 0 0 1.9-4.3V17.6c0-1.3-.4-2.5-1.2-3.5-.7-1-1.7-1.8-2.8-2.2a6.2 6.2 0 0 0-6.9 1.8l-6.1 7.2c-.2.1-.6 1-1.6 1s-1.4-.9-1.5-1l-6.3-7.2a6 6 0 0 0-4.6-2.2zm38.5 0c-1.5 0-2.8.5-3.8 1.6a5 5 0 0 0-1.5 3.6c0 1.5.5 2.8 1.5 3.8s2.3 1.5 3.8 1.5a5.2 5.2 0 0 0 5.3-5.3 5 5 0 0 0-1.6-3.6c-1-1-2.3-1.6-3.7-1.6zm58.1.4c-1.4 0-2.7.5-3.7 1.5a5 5 0 0 0-1.5 3.7v24.2c0 1.5.5 2.7 1.5 3.8 1 1 2.3 1.5 3.7 1.5a5.2 5.2 0 0 0 5.3-5.3c0-1 .2-1.5.4-1.5l.5.1 5.2 5c1 1 2.2 1.6 3.7 1.6a5.3 5.3 0 0 0 3.6-9l-3.7-3.6c-.4-.5-.4-.9 0-1.2h.2l3.2-2.2a5 5 0 0 0 2.4-4.4c0-1-.3-2-.9-2.9a5 5 0 0 0-4.4-2.3c-1 0-2 .2-2.9.8l-6.2 4.1c-.3.2-.5.2-.7.1-.2-.1-.4-.3-.4-.7v-8a5 5 0 0 0-1.5-3.8c-1-1-2.3-1.5-3.8-1.5zm35.1 8.9c-3.6 0-6.7 1.3-9.2 3.8a12.5 12.5 0 0 0-3.8 9.2c0 3.6 1.2 6.7 3.8 9.2 2.5 2.6 5.6 3.8 9.2 3.8 3.6 0 6.6-1.2 9.2-3.8a4 4 0 0 0 1.2-2.9 4 4 0 0 0-1.2-2.9 4 4 0 0 0-2.9-1.2 4 4 0 0 0-3 1.2c-.8 1-2 1.5-3.3 1.5-1.3 0-2.5-.5-3.5-1.4a4.8 4.8 0 0 1 0-7c.6-.4 1.2-.8 1.8-1l.5.1-.1.3-1 1.1c-.9.8-1.3 1.8-1.3 2.9 0 1.1.4 2 1 2.7a4 4 0 0 0 3 1c.8 0 1.7-.4 2.6-1.2l6-6a4 4 0 0 0 1.2-3 4 4 0 0 0-1.2-2.8 12.3 12.3 0 0 0-9-3.6zm-75.6 0c-3.3 0-5.8.9-7.7 2.6a7.6 7.6 0 0 0-2.3 5.8c0 3 1.1 5 3.3 6.5.7.5 1.5.9 2.5 1.1l2.4.7 3.3.6c.2.1.3.2.3.4s0 .3-.3.3h-1.2a74.7 74.7 0 0 1-6.7-.8c-1 0-2 .4-2.8 1.2-.7.7-1.1 1.7-1.1 2.8 0 .9.3 1.7.8 2.4a4 4 0 0 0 2.3 1.4c3 .7 5.6 1 8 1 3.1 0 5.7-.8 7.5-2.6a7.6 7.6 0 0 0 2.3-5.8c0-2.9-1.1-5-3.3-6.5a13 13 0 0 0-5-1.7l-3-.6c-.3-.1-.4-.3-.5-.5l.5-.3h1a66.4 66.4 0 0 1 6.6.9c1.1 0 2-.4 2.8-1.2.8-.8 1.2-1.7 1.2-2.8 0-1-.3-1.8-.9-2.5a4 4 0 0 0-2.2-1.4c-2.4-.5-4.8-.8-7.2-1a18.7 18.7 0 0 0-.6 0zm22.6 0c-3.3 0-5.8.9-7.6 2.6a7.6 7.6 0 0 0-2.4 5.8c0 3 1.1 5 3.4 6.5.6.5 1.4.9 2.4 1.1l2.5.7 3.2.6c.3.1.4.2.3.4 0 .2 0 .3-.2.3h-1.3a74.6 74.6 0 0 1-6.6-.8c-1.1 0-2 .4-2.8 1.2-.8.7-1.2 1.7-1.2 2.8 0 .9.3 1.7.9 2.4a4 4 0 0 0 2.2 1.4c3 .7 5.6 1 8 1 3.2 0 5.7-.8 7.5-2.6a7.6 7.6 0 0 0 2.3-5.8c0-2.9-1-5-3.3-6.5a13 13 0 0 0-4.9-1.7l-3.1-.6c-.3-.1-.4-.3-.4-.5 0-.1.1-.2.4-.3h1c2.9.3 4.8.5 5.8.8a3.4 3.4 0 0 0 .8 0c1.1 0 2-.3 2.8-1 .8-.9 1.2-1.8 1.2-2.9 0-1-.3-1.8-.8-2.5a4 4 0 0 0-2.3-1.4 42.4 42.4 0 0 0-7.8-1zm70.5.4c-1.5 0-2.7.5-3.7 1.6a5 5 0 0 0-1.6 3.7v7.2c0 3.5 1.3 6.5 3.8 9a12.3 12.3 0 0 0 11 3.6c.3 0 .5 0 .6.2v.6c-.5.6-1.5.9-3 .9-.5 0-1.2-.1-2-.4l-2-.4c-2.1 0-3.6.9-4.4 2.8-.3.6-.5 1.3-.5 2 0 2 1 3.4 2.8 4.3 1.8.8 3.9 1.3 6.2 1.3 4 0 7-1.2 9.4-3.5 2.3-2.3 3.5-5.4 3.5-9.3v-9.5l.1-1.6v-7.2a5 5 0 0 0-1.5-3.7 5 5 0 0 0-3.7-1.6c-1.5 0-2.7.5-3.8 1.6a5 5 0 0 0-1.5 3.7v7.2c0 .6-.2 1.1-.7 1.6-.4.4-.9.6-1.5.6s-1.1-.2-1.6-.6c-.4-.5-.6-1-.6-1.6v-7.2a5 5 0 0 0-1.6-3.7c-1-1-2.2-1.6-3.7-1.6zM61.7 23c-1.5 0-2.7.6-3.7 1.6s-1.6 2.3-1.6 3.8v12.8c0 1.5.5 2.7 1.6 3.7 1 1 2.2 1.6 3.7 1.6a5 5 0 0 0 3.7-1.6c1-1 1.6-2.2 1.6-3.7V28.3c0-1.4-.6-2.7-1.6-3.7a5 5 0 0 0-3.7-1.6z"/><path fill="#e3ebdf" d="m201.1 55.9.6-8.6 8.1.5q-.1 4-.5 8.3zm13-.5q-.4-6.2-.4-12.3 0-6 .4-11.8l7.3.1q-.4 5.2-.4 11.2 0 5.9.4 12.6zm1-27.8q-1.4-1.4-1.4-3 0-1.5 1.5-3 1.4-1.4 3-1.4 1.5 0 2.9 1.4t1.4 3q0 1.5-1.4 3-1.5 1.4-3 1.4-1.6 0-3-1.4zm12.7 25.1q-3.2-3.1-3.2-8.3 0-5.2 2.9-9.2 2.9-4 7.5-5.1l.4 1.2q.6-.2 1.7-.2 5.4 0 8.8 3.5 3.3 3.4 3.3 9 0 5.5-3.5 8.9-3.4 3.3-9 3.3t-8.9-3zm5.2-13.1q-1.7 1.8-1.7 4.3t1.4 4q1.5 1.3 4 1.3 2.6 0 4.1-1.5 1.6-1.6 1.6-4.2 0-2.7-1.4-4.2t-3.8-1.5q-2.4 0-4.2 1.8z" aria-label=".io" font-family="GenEi POPle" font-size="39.8" letter-spacing="0" style="line-height:37.2714px;-inkscape-font-specification:&quot;GenEi POPle, Normal&quot;" word-spacing="0"/></svg>