<?xml version="1.0" encoding="UTF-8" standalone="no"?>
<svg
   height="60"
   width="260"
   viewBox="-204.8 -341.333 384.569 153.6"
   version="1.1"
   id="svg2"
   sodipodi:docname="social_facebook.svg"
   inkscape:version="1.3.2 (091e20e, 2023-11-25, custom)"
   xmlns:inkscape="http://www.inkscape.org/namespaces/inkscape"
   xmlns:sodipodi="http://sodipodi.sourceforge.net/DTD/sodipodi-0.dtd"
   xmlns="http://www.w3.org/2000/svg"
   xmlns:svg="http://www.w3.org/2000/svg">
  <defs
     id="defs1" />
  <sodipodi:namedview
     id="namedview1"
     pagecolor="#ffffff"
     bordercolor="#000000"
     borderopacity="0.25"
     inkscape:showpageshadow="2"
     inkscape:pageopacity="0.0"
     inkscape:pagecheckerboard="0"
     inkscape:deskcolor="#d1d1d1"
     inkscape:zoom="3.4115385"
     inkscape:cx="130"
     inkscape:cy="30.045096"
     inkscape:window-width="1920"
     inkscape:window-height="1031"
     inkscape:window-x="-4"
     inkscape:window-y="-4"
     inkscape:window-maximized="1"
     inkscape:current-layer="svg2" />
  <rect
     style="fill:#1877f2;fill-opacity:1;fill-rule:evenodd;stroke-width:1.55766;stroke-linecap:round;stroke-miterlimit:12"
     id="rect2"
     width="665.6"
     height="153.6"
     x="-345.315"
     y="-341.333"
     rx="23.018"
     ry="22.706" />
  <path
     d="m-209.068-251.91 3.947-25.735h-24.692v-16.701c0-7.04 3.449-13.904 14.509-13.904h11.227v-21.91s-10.19-1.739-19.93-1.739c-20.337 0-33.629 12.325-33.629 34.64v19.614h-22.605v25.736h22.605v62.214a89.702 89.702 0 0 0 13.912 1.082c4.732 0 9.378-.37 13.91-1.082v-62.214h20.746"
     fill="#fff"
     id="path2"
     style="stroke-width:.130418" />
  <path
     style="font-weight:700;font-size:109.227px;line-height:64px;font-family:'BIZ UDGothic';-inkscape-font-specification:'BIZ UDGothic, Bold';letter-spacing:0;word-spacing:0;fill:#ffffff;stroke-width:2.56px"
     d="m -60.673422,-287.33558 q -15.733,-7.04 -32.107,-11.786 l 3.467,-10.56 q 18.453,4.586 32.373,11.2 z m -10.933,27.307 q -13.12,-5.76 -32.106998,-11.787 l 4.586998,-10.666 q 16.32,4.32 31.68,11.466 z m -25.227,29.387 q 21.813,-1.814 34.187,-6.614 18.293,-6.986 28.746,-24.96 6.987,-12 11.04,-30.346 l 10.774,6.24 q -5.174,22.986 -14.454,36.64 -10.88,15.946 -30.346,23.573 -13.707,5.28 -36.534,7.414 z m 113.707,-56.587 h 67.947 v 10.133 h -28.854 v 47.04 h 33.655 v 10.134 h -77.548 v -10.134 h 32.96 v -47.04 h -28.16 z m 99.307002,-17.44 h 83.573 l 6.88,5.813 q -2.986,11.147 -7.786,18.614 -9.014,14.133 -26.987,21.12 l -6.72,-9.174 q 12.427,-3.733 20.64,-13.386 4.853,-5.707 6.773,-12.054 h -76.372 z m 34.187,23.04 h 12.213 v 9.173 q 0,20.64 -4.587,31.894 -5.813,14.293 -22.613,23.253 l -8.8,-9.28 q 11.573,-5.493 16.907,-13.12 4.106,-5.92 5.386,-12.533 1.494,-7.574 1.494,-20.32 z"
     id="text1"
     aria-label="シェア" />
</svg>
