<svg xmlns="http://www.w3.org/2000/svg" width="260" height="60" fill="currentColor" class="bi bi-mastodon"><rect width="260" height="60" fill="#5c4de3" fill-rule="evenodd" rx="5.65" ry="5.73"/><path fill="#fff" d="M52.52 44.77c7.15-.85 13.37-5.24 14.15-9.24 1.24-6.3 1.14-15.4 1.14-15.4 0-12.3-8.11-15.92-8.11-15.92-4.09-1.87-11.11-2.65-18.4-2.71h-.18c-7.3.06-14.32.84-18.4 2.71 0 0-8.11 3.61-8.11 15.93l-.01 2.35c-.02 2.27-.03 4.79.04 7.42.3 12.04 2.22 23.91 13.4 26.86a42.46 42.46 0 0 0 13.17 1.44c6.47-.35 10.1-2.3 10.1-2.3l-.21-4.67s-4.62 1.46-9.82 1.28c-5.14-.18-10.57-.55-11.4-6.84a12.82 12.82 0 0 1-.12-1.76s5.05 1.23 11.45 1.52c3.91.18 7.58-.23 11.31-.67zM58.24 36H52.3V21.53c0-3.05-1.29-4.6-3.86-4.6-2.86 0-4.29 1.84-4.29 5.47v7.92h-5.9V22.4c0-3.64-1.43-5.47-4.28-5.47-2.58 0-3.87 1.55-3.87 4.6V36h-5.94V21.1c0-3.06.78-5.48 2.34-7.27a8.18 8.18 0 0 1 6.36-2.7c3.04 0 5.34 1.16 6.86 3.48l1.48 2.47 1.48-2.47c1.52-2.32 3.82-3.49 6.86-3.49 2.63 0 4.74.92 6.36 2.71 1.56 1.8 2.34 4.21 2.34 7.26z"/><path fill="#fff" d="M80.53 43.5q-.6.6-1.47.6t-1.51-.6q-.64-.64-.64-1.51V16.45q0-.96.68-1.63.72-.72 1.67-.72h.76q1.03 0 1.9.64.88.6 1.24 1.59l4.7 12.93.99 3.1q.68 1.99.95 2.87.04.12.12.12.12 0 .16-.13.32-.91.92-2.9.63-2.03 1-3.06l4.65-12.93q.32-1 1.2-1.6.87-.63 1.9-.63h.8q.95 0 1.63.71.71.68.71 1.64V41.9q0 .92-.67 1.55-.64.64-1.55.64-.92 0-1.56-.64-.63-.64-.63-1.55V29.26q0-2.47.6-9.2 0-.07-.09-.07-.07 0-.07.08l-2.4 6.84-4.73 12.93q-.2.6-.75 1-.56.35-1.24.35-.63 0-1.19-.35-.52-.4-.75-1l-4.74-12.93-2.35-6.84q0-.08-.12-.08-.08 0-.04.08.56 7.52.56 9.19v12.73q0 .88-.64 1.51zm35.85 1.11q-3.62 0-6.92-1.99-.68-.4-.8-1.19v-.32q0-.6.36-1.07.48-.64 1.23-.76h.32q.6 0 1.08.32 2.38 1.47 4.85 1.47 1.91 0 2.9-.83 1.04-.84 1.04-2.19 0-.48-.16-.88-.16-.43-.64-.8-.43-.39-.75-.63-.28-.24-1.08-.6-.8-.35-1.11-.47l-1.23-.48q-1.36-.52-2.31-1-.92-.47-2-1.23-1.03-.8-1.58-1.87-.52-1.07-.52-2.42 0-2.87 2.15-4.7 2.19-1.87 5.8-1.87 3.03 0 5.82 1.63.63.4.75 1.16v.27q0 .56-.36 1.04-.47.6-1.23.71-.16.04-.36.04-.55 0-1.03-.27-1.8-.96-3.5-.96-1.75 0-2.67.76-.91.75-.91 1.99 0 .51.24 1 .27.43.6.75.35.28 1.03.63l1.11.52q.48.16 1.4.52.23.08.4.12 1.18.47 1.9.8.72.27 1.71.9 1.04.6 1.6 1.24.55.64.95 1.67.43 1 .43 2.2 0 2.93-2.26 4.88-2.27 1.91-6.25 1.91zm21 0q-3.61 0-5.2-2.03-1.6-2.06-1.6-5.8V25.76q0-.32-.31-.32h-1.2q-.75 0-1.27-.52-.48-.52-.48-1.23 0-.76.48-1.28.52-.55 1.27-.6l1.4-.11q.31 0 .31-.32l.36-3.9q.08-.84.68-1.4.63-.59 1.47-.59.8 0 1.35.6.6.55.6 1.39v3.9q0 .32.32.32h3.66q.75 0 1.31.55.56.52.56 1.32 0 .75-.56 1.31t-1.31.56h-3.66q-.32 0-.32.32v11.06q0 2.03.76 3.06.8 1 2.5 1 .32 0 .72-.05.16-.04.32-.04.55 0 1.03.28.6.32.76 1 .08.24.08.47 0 .48-.24.92-.4.68-1.12.84-1.43.31-2.66.31zm15.92 0q-4.26 0-6.76-3.06-2.5-3.1-2.5-8.63 0-5.25 2.82-8.52 2.86-3.3 6.8-3.3 1.71 0 3.02.6 1.36.55 2.79 1.75.04.04.12.04.08-.04.08-.16l-.2-3.38v-5.97q0-1 .67-1.67.72-.68 1.68-.68 1 0 1.67.68.67.68.67 1.67v28.2q0 .8-.55 1.36-.56.56-1.36.56-.83 0-1.47-.52-.64-.56-.75-1.4l-.08-.55q0-.04-.08-.04t-.12.04q-2.95 2.98-6.45 2.98zm1.08-3.86q2.62 0 4.89-2.5.2-.2.2-.52V27.35q0-.28-.2-.48-2.19-1.83-4.73-1.83-2.4 0-4.02 2.15-1.63 2.1-1.63 5.65 0 3.82 1.43 5.89 1.43 2.03 4.06 2.03zm20.8 2.67q-.67.68-1.67.68-.95 0-1.63-.68-.67-.68-.67-1.63V23.61q0-.8.55-1.36t1.36-.55q.83 0 1.43.56.63.51.71 1.35l.12 1.11q.04.08.08.08.08 0 .12-.04 1.8-1.75 3.5-2.7 1.75-.96 3.86-.96 6.89 0 6.89 8.91v11.74q0 1-.68 1.67-.68.68-1.67.68-.96 0-1.67-.68-.68-.68-.68-1.67V30.57q0-2.9-.91-4.14-.88-1.27-2.87-1.27-1.43 0-2.58.68-1.16.63-2.71 2.14-.2.24-.2.52V41.8q0 .95-.68 1.63zm26.14.28q-.87.91-2.22.91-1.32 0-2.23-.91-.88-.92-.88-2.3 0-1.44.88-2.4.91-.99 2.23-.99 1.35 0 2.22 1 .92.95.92 2.38 0 1.4-.92 2.3zm6.69 10.14q-.92 0-1.71-.12-.76-.12-1.16-.79-.24-.44-.24-.92 0-.27.08-.51.16-.68.8-1.08.56-.32 1.23-.32h.4q1.51 0 2.07-1.03.6-1 .6-3.1V24.13q0-.96.67-1.64.72-.67 1.67-.67 1 0 1.67.67.68.68.68 1.64v21.76q0 7.96-6.76 7.96zm6.52-37q-.83.76-2.15.76-1.27 0-2.1-.76-.84-.8-.84-1.99 0-1.27.83-2.02.84-.76 2.11-.76 1.32 0 2.15.76.88.75.88 2.02 0 1.2-.88 2zm11.14 35.77q-.67.68-1.67.68-.95 0-1.63-.68-.68-.68-.68-1.67V23.7q0-.8.56-1.36.56-.55 1.35-.55.84 0 1.44.55.63.52.75 1.36l.08.47q.04.08.08.08.08 0 .12-.04 3.58-2.98 6.84-2.98 4.22 0 6.53 3.1 2.35 3.07 2.35 8.32 0 2.78-.8 5.13-.8 2.3-2.15 3.82-1.35 1.47-3.1 2.3-1.71.84-3.62.84-2.83 0-5.65-2.34-.08-.05-.16 0-.08.03-.08.11l.12 3.54v4.9q0 1-.68 1.67zm5.57-11.74q2.5 0 4.1-2.14 1.6-2.2 1.6-6.01 0-7.6-5.26-7.6-2.39 0-5.13 2.55-.2.2-.2.47v10.39q0 .28.2.47 2.3 1.88 4.7 1.88z" aria-label="Mstdn.jp" font-family="Gen Jyuu Gothic" font-size="40.74" letter-spacing="0" style="line-height:30.5555px;-inkscape-font-specification:&quot;Gen Jyuu Gothic, @wght=400&quot;;font-variation-settings:&quot;wght&quot;400" word-spacing="0"/></svg>