<svg xmlns="http://www.w3.org/2000/svg" xml:space="preserve" width="400" height="400" viewBox="0 0 105.8 105.8"><g fill="#f0f0f0"><path fill="#fff" d="M16.6 105.5c-1.2-.3-2.2-1-2.8-2.1l-.6-1V57.7L13 13.1h79.4v39.6c0 24 0 40.3-.2 41.4a13 13 0 0 1-9 10.8c-1.6.6-2.1.7-7.8.7-6 0-6.2 0-7.1-.6a6 6 0 0 1-1.6-1.6l-.6-1-.1-33c-.2-36-.1-34-1.5-35.2C63 33 62.9 33 52.7 33c-8.2 0-9.6.1-10.4.5a4.5 4.5 0 0 0-2.3 2.2c-.5 1-.5 2-.5 28.9 0 16.5-.1 28.6-.3 29.6-.7 5.1-4 9.1-8.7 10.8a59.2 59.2 0 0 1-13.9.6z"/><path d="M18.8 101.4c-2.5-.4-3.4-.7-3.2-.9l2.4.3c3.4.5 8.7.7 10.5.2 1.9-.6 2.2-.4 1.2.2-1 .6-7.5.8-10.9.3zm52.7 0c-2.5-.4-3.2-.6-3-.8.1-.1 1.2 0 2.4.2 3.4.7 8.8.7 10.6.2 1.9-.6 2.2-.4 1.2.2-1.1.6-7.7.7-11 .2zM13 8c.2-4.7.2-5.2.8-6 .3-.5 1-1.2 1.4-1.5.9-.5 1.4-.5 37.5-.5C89 0 89.4 0 90.3.5L91.7 2c.5.8.6 1.3.7 6v5.1H13Z"/></g></svg>