<!--@hoso_boso--><svg xmlns="http://www.w3.org/2000/svg" xmlns:xlink="http://www.w3.org/1999/xlink" xml:space="preserve" width="540" height="42" viewBox="0 0 142.875 11.113"><defs><linearGradient id="d"><stop offset="0" style="stop-color:red;stop-opacity:1"/><stop offset="1" style="stop-color:#ff9100;stop-opacity:1"/></linearGradient><linearGradient id="c"><stop offset="0" style="stop-color:red;stop-opacity:1"/><stop offset="1" style="stop-color:#ffc34c;stop-opacity:1"/></linearGradient><linearGradient id="b"><stop offset="0" style="stop-color:#a2a2a2;stop-opacity:1"/><stop offset="1" style="stop-color:#fff;stop-opacity:1"/></linearGradient><linearGradient id="a"><stop offset="0" style="stop-color:#000;stop-opacity:1"/><stop offset="1" style="stop-color:#9f9f9f;stop-opacity:1"/></linearGradient><linearGradient xlink:href="#a" id="e" x1="83.522" x2="83.456" y1="8.884" y2="4.626" gradientUnits="userSpaceOnUse"/><linearGradient xlink:href="#b" id="o" x1="4.422" x2="5.659" y1="6.835" y2="5.393" gradientTransform="matrix(1.12875 0 0 .7548 -.927 -.676)" gradientUnits="userSpaceOnUse" spreadMethod="reflect"/><linearGradient xlink:href="#a" id="f" x1="83.522" x2="83.456" y1="8.884" y2="4.626" gradientUnits="userSpaceOnUse"/><linearGradient xlink:href="#a" id="g" x1="83.522" x2="83.456" y1="8.884" y2="4.626" gradientUnits="userSpaceOnUse"/><linearGradient xlink:href="#a" id="h" x1="83.522" x2="83.456" y1="8.884" y2="4.626" gradientUnits="userSpaceOnUse"/><linearGradient xlink:href="#a" id="i" x1="83.522" x2="83.456" y1="8.884" y2="4.626" gradientUnits="userSpaceOnUse"/><linearGradient xlink:href="#a" id="j" x1="83.522" x2="83.456" y1="8.884" y2="4.626" gradientUnits="userSpaceOnUse"/><linearGradient xlink:href="#a" id="k" x1="83.522" x2="83.456" y1="8.884" y2="4.626" gradientUnits="userSpaceOnUse"/><linearGradient xlink:href="#a" id="l" x1="83.522" x2="83.456" y1="8.884" y2="4.626" gradientUnits="userSpaceOnUse"/><linearGradient xlink:href="#c" id="n" x1="5.827" x2="5.753" y1="7.306" y2="10.926" gradientTransform="translate(0 -2.542) scale(1.129)" gradientUnits="userSpaceOnUse"/><linearGradient xlink:href="#d" id="m" x1="42.113" x2="42.055" y1="4.285" y2="9.6" gradientUnits="userSpaceOnUse"/></defs><rect width="10.584" height="10.584" x=".611" y=".35" ry=".791" style="opacity:.927361;fill:#000;stroke-width:.0709585;stroke-linecap:round;stroke-linejoin:round"/><g aria-label="(リメイク版）" style="font-size:5.64458px;line-height:5.78791px;font-family:'Mgen+ 1c';-inkscape-font-specification:'Mgen+ 1c, Normal';letter-spacing:0;word-spacing:0;fill:url(#e);stroke:none;stroke-width:.26459px" transform="matrix(1.01875 0 0 1.21972 -1.856 -1.434)"><path d="M70.634 7.079q0-.98.594-1.741.275-.352.617-.642.034-.024.063 0l.13.106q.039.03.01.068-.068.072-.208.227-.135.15-.284.405-.357.612-.357 1.577 0 .96.357 1.577.144.256.28.405l.192.213q.053.058.01.091l-.13.097q-.034.024-.063-.005-.641-.555-.926-1.177-.285-.627-.285-1.201Z" style="font-weight:500;font-size:4.93901px;font-family:'GenEi LateMin P v2';-inkscape-font-specification:'GenEi LateMin P v2, Medium';fill:url(#f);stroke:none"/><path d="M72.795 7.663q.024-.372.024-.42V5.637q0-.068-.004-.188L72.8 5.25h.564q-.019.338-.019.386v1.606q0 .106.005.222l.014.198zm.864 1.283q.434-.155.714-.348.28-.193.434-.467.154-.275.212-.676.063-.4.063-.97v-.8q0-.164-.03-.473h.618q-.02.208-.02.473v.83q0 1.273-.448 1.852-.227.29-.564.473-.338.183-.786.313z" style="font-weight:500;font-size:4.93901px;font-family:'GenEi LateMin P v2';-inkscape-font-specification:'GenEi LateMin P v2, Medium';fill:url(#g);stroke:none"/><path d="M76.398 8.888q1.22-.637 1.93-1.616-.71-.622-1.37-1.037l.135-.178q.69.27 1.485.839.434-.719.676-1.717l.612.222q-.333.983-.902 1.789.54.42 1.148.98l-.424.462q-.54-.593-1.018-1.051-.887 1.07-2.06 1.505Z" style="font-weight:500;font-size:4.93901px;font-family:'GenEi LateMin P v2';-inkscape-font-specification:'GenEi LateMin P v2, Medium';fill:url(#h);stroke:none"/><path d="M80.662 7.18q1.486-.39 2.508-1.196.521-.41.965-.955l.444.4q-.536.536-1.341 1.066v2.07q0 .424.038.603h-.632q.034-.314.034-.603V6.814q-.67.318-1.871.603z" style="font-weight:500;font-size:4.93901px;font-family:'GenEi LateMin P v2';-inkscape-font-specification:'GenEi LateMin P v2, Medium';fill:url(#i);stroke:none"/><path d="M85.104 7.074q.753-.569 1.148-1.2.27-.425.347-.637.078-.213.107-.328l.617.202q-.092.14-.207.357-.116.217-.136.241l-.033.044h1.206q.405 0 .52-.049l.285.174q-.101.169-.145.314-.738 2.387-2.947 2.956l-.202-.188q1.172-.463 1.74-1.148.575-.685.82-1.784H86.74q-.284.38-.665.66-.381.28-.777.521Z" style="font-weight:500;font-size:4.93901px;font-family:'GenEi LateMin P v2';-inkscape-font-specification:'GenEi LateMin P v2, Medium';fill:url(#j);stroke:none"/><path d="M89.334 9.192q.319-.58.376-1.486.03-.4.03-.786V4.913h.496V6.23h.372V4.807h.496V6.23h.483V5.053h2.479v.266h-1.987v1.017h1.654l.26.053q-.188 1.177-.771 1.983.41.52.993.762-.125.11-.178.198l-.058.096-.203-.087q-.487-.222-.844-.622-.347.367-.83.613l-.207.106-.057-.111q-.054-.106-.15-.193.564-.266.97-.772-.362-.55-.584-1.399-.058 1.53-.516 2.364l-.097.178q-.091-.092-.14-.145-.048-.048-.057-.053v.044h-.497V7.523h-.55q-.058 1.133-.434 1.809l-.097.173-.168-.169q-.107-.106-.184-.144Zm.902-1.925h1.028v1.577q.26-.656.303-1.601.02-.4.02-.748h-1.35zm2.238-.66q.16.766.478 1.345.347-.584.501-1.346z" style="font-weight:500;font-size:4.93901px;font-family:'GenEi LateMin P v2';-inkscape-font-specification:'GenEi LateMin P v2, Medium';fill:url(#k);stroke:none"/><path d="M94.403 4.894q-.038-.043-.038-.063 0-.024.02-.043l.125-.096q.033-.03.067 0 .642.554.921 1.186.285.627.285 1.182 0 .55-.16.979-.284.762-1.046 1.413-.034.024-.067 0l-.126-.096q-.043-.03-.01-.073.068-.072.203-.222.135-.15.285-.405.357-.612.357-1.577 0-.96-.352-1.577-.145-.256-.285-.41l-.179-.198Z" style="font-weight:500;font-size:4.93901px;font-family:'GenEi LateMin P v2';-inkscape-font-specification:'GenEi LateMin P v2, Medium';fill:url(#l);stroke:none"/></g><g aria-label="ライブアライブ" style="font-size:5.64458px;line-height:10.3356px;font-family:'Mgen+ 1c';-inkscape-font-specification:'Mgen+ 1c, Normal';letter-spacing:0;word-spacing:0;fill:none;stroke:none;stroke-width:.26459px"><path d="M15.134 5.46v-.586q.595.06.974.06h4.427q.542 0 .74-.078l.483.285q-.095.198-.138.327-.336 1.18-1.025 2.05-.69.87-1.628 1.412-.939.543-2.015.767l-.336-.37q1.645-.44 2.635-1.422 1-.981 1.284-2.48h-4.427q-.457 0-.974.034zm.81-2.076v-.577q.465.043.87.043h3.35q.37 0 .905-.052v.586q-.526-.026-.913-.026h-3.342q-.293 0-.87.026zm6.58 2.816q2.653-.698 4.479-2.136.93-.732 1.723-1.705l.792.715q-.956.956-2.394 1.903v3.695q0 .758.068 1.077h-1.128q.06-.56.06-1.077V5.546q-1.197.568-3.341 1.076zm7.95-2.437v-.62q.586.077.982.077h3.41q1.172 0 1.31-.009-.241-.447-.629-1.068l.327-.137q.698.611 1.025 1.128l-.18.077.327.216q-.078.163-.173.525-.31 1.404-.913 2.507-1.266 2.29-4.056 3.031l-.37-.387q1.395-.491 2.282-1.223.887-.741 1.36-1.766.474-1.034.62-2.386h-4.34q-.62 0-.982.035zm6.244-1.844.336-.146q.698.612 1.017 1.128l-.63.267q-.18-.387-.723-1.249Z" style="font-size:8.81967px;font-family:'GenEi LateMin P v2';-inkscape-font-specification:'GenEi LateMin P v2, Normal';fill:#000;stroke:none" transform="matrix(1.01875 0 0 1.21972 -1.856 -1.434)"/><path d="M38.415 3.72v-.646q.638.086 1.068.086h4.927q.75 0 .999-.06l.344.327q-.06.077-.163.19-.095.111-.19.275-.215.379-.964 1.094-.758.697-1.49 1.076l-.328-.284q.672-.456 1.077-1.033.405-.578.672-1.086h-4.884q-.198 0-1.068.06zm.75 5.624q1.3-.603 1.696-1.654.293-.784.293-2.24 0-.55-.06-.886h1.085q0 .878-.086 1.636-.078.75-.345 1.387-.56 1.335-2.213 2.076z" style="fill:url(#m);stroke:none;stroke-opacity:1;fill-opacity:1" transform="matrix(1.01875 0 0 1.21972 -1.856 -1.434)"/><path d="M46.46 5.46v-.586q.594.06.973.06h4.427q.543 0 .74-.078l.483.285q-.095.198-.138.327-.336 1.18-1.025 2.05-.689.87-1.628 1.412-.938.543-2.015.767l-.336-.37q1.645-.44 2.636-1.422.999-.981 1.283-2.48h-4.427q-.457 0-.973.034zm.81-2.076v-.577q.464.043.87.043h3.35q.37 0 .904-.052v.586q-.525-.026-.913-.026h-3.342q-.293 0-.87.026zM53.85 6.2q2.652-.698 4.478-2.136.93-.732 1.723-1.705l.792.715q-.956.956-2.394 1.903v3.695q0 .758.069 1.077h-1.129q.06-.56.06-1.077V5.546q-1.196.568-3.341 1.076zm7.95-2.437v-.62q.585.077.981.077h3.41q1.172 0 1.31-.009-.241-.447-.629-1.068l.328-.137q.697.611 1.025 1.128l-.181.077.327.216q-.078.163-.172.525-.31 1.404-.913 2.507-1.266 2.29-4.057 3.031l-.37-.387q1.395-.491 2.282-1.223.887-.741 1.361-1.766.474-1.034.62-2.386h-4.34q-.62 0-.983.035zm6.244-1.844.336-.146q.697.612 1.016 1.128l-.629.267q-.18-.387-.723-1.249Z" style="font-size:8.81967px;font-family:'GenEi LateMin P v2';-inkscape-font-specification:'GenEi LateMin P v2, Normal';fill:#000;stroke:none" transform="matrix(1.01875 0 0 1.21972 -1.856 -1.434)"/></g><g style="font-size:5.64458px;line-height:10.3356px;font-family:'Mgen+ 1c';-inkscape-font-specification:'Mgen+ 1c, Normal';letter-spacing:0;word-spacing:0;fill:none;stroke:none;stroke-width:.26459px"><path d="m98.474 7.802 1.5-.388V3.521h-1.388v-.49h3.773v.49h-1.482v3.644q.285-.078.56-.147.285-.077.569-.163l.43-.121.078.543q-2.687.775-3.462.982l-.414.12zm2.395 1.74q1.877-.646 2.86-1.826-.664-1.034-1.103-2.506-.276.482-.577.844l-.198.25-.276-.25q-.146-.121-.37-.242 1.154-1.369 1.8-3.875v-.104l.896.164q-.276.982-.509 1.559h3.644v.5h-.81q-.465 2.334-1.481 3.677.947 1.275 2.368 1.809-.232.207-.327.379l-.095.163-.37-.146q-1.24-.508-2.119-1.568-.982.965-2.618 1.585l-.388.147-.077-.164q-.12-.241-.25-.396zm2.343-5.478q.353 1.645 1.05 2.92.698-1.189 1.034-2.92zm4.22 4.823V2.393h3.299V4.03q.947-.913 1.455-2.145l.052-.13.844.233q-.172.405-.448.887h1.766l.258-.112.5.25q-.474 1.18-1.507 2.231 1.016.913 2.153 1.36-.164.164-.276.363l-.103.172-.302-.138v2.877h-.904v-.302h-2.36v.319h-.887V7.053q-.052.017-.069.026l-.172.068v.913h-2.455v.827zm.844-1.292h.37V5.373h-.37zm0-2.678h.37V2.875h-.37zm1.197 2.678h.405V5.373h-.405zm0-2.678h.405V2.875h-.405zm1.258 1.559q.982-.474 1.86-1.258-.525-.56-.878-1.102-.354.387-.707.671l-.258.207zm.982.206h2.747q-.663-.361-1.352-.956-.62.543-1.395.956zm.146 2.438h2.36V7.156h-2.36Zm.396-5.668q.353.664.861 1.25.595-.647.965-1.37h-1.74zm4.109 5.685q2.179-1.137 3.445-2.885-1.266-1.111-2.446-1.852l.24-.319q1.232.483 2.654 1.499.775-1.283 1.205-3.066l1.094.396q-.594 1.757-1.61 3.195.964.75 2.05 1.749l-.758.827q-.965-1.06-1.818-1.878-1.585 1.912-3.677 2.687zm7.932-2.963V5.59q.482.043.922.043h1.559V3.539h-.956q-.242 0-.862.025v-.55q.405.034.862.034h4.04q.378 0 .791-.043v.56q-.56-.026-.792-.026h-2.076v2.093h2.808q.147 0 .396-.009l.422-.026.01.56q-.173-.017-.423-.026h-3.213v1.766q0 .301.07.542.146.526 1.007.526.87 0 2.222-.104l-.034.577q-.99.07-2.378.07-1.378.008-1.722-.62-.164-.302-.172-.707v-2.05h-1.56q-.516 0-.92.043zm8.243 1.99V3.599h1.162V1.902h.87V3.6h1.198v2.36h.404V2.307h4.126v.44h-3.221v.774h2.928v.448h-2.928v.775h2.928v.44h-2.928v.775h3.643v.456h-2.343q.155.603.397 1.111.637-.439 1.085-.86l.224-.216.56.482q-.646.612-1.56 1.163.672 1.033 1.8 1.455-.206.181-.31.37l-.094.164-.37-.146q-.672-.284-1.163-.758v.086q-2.128.38-3.135.569l-.397.069-.129-.526h.086l.801-.138V6.415h-.404v1.232q0 .241-.155.336-.156.086-.397.095l-.5.017h-.146v1.869h-.87V4.073h-.31v4.09zm2.032-.534.37.008V4.073h-.37zm2.48 1.473 1.448-.25h.12q-.723-.87-1.093-2.438h-.474z" aria-label="攻略メモ帳" style="font-size:8.81967px;font-family:'GenEi LateMin P v2';-inkscape-font-specification:'GenEi LateMin P v2, Normal';fill:#000;stroke:none" transform="matrix(1.01875 0 0 1.21972 -1.856 -1.434)"/></g><path d="M1.734 9.13V4.363h1.152v3.809h1.362v.958z" aria-label="L" style="font-weight:800;font-size:6.37268px;line-height:7.46799px;font-family:'GenEi Gothic M';-inkscape-font-specification:'GenEi Gothic M, Ultra-Bold';letter-spacing:0;word-spacing:0;fill:#fff;stroke-width:.29872px" transform="scale(.88575 1.129)"/><path d="M6.27 7.158h.51l-.05-.411q-.013-.081-.193-1.531h-.025q-.025.267-.193 1.53zm.765 1.972L6.89 8.035h-.728L6.026 9.13H4.944l.802-4.767h1.581L8.13 9.13z" aria-label="A" style="font-weight:800;font-size:6.37278px;line-height:7.46811px;font-family:'GenEi Gothic M';-inkscape-font-specification:'GenEi Gothic M, Ultra-Bold';letter-spacing:0;word-spacing:0;fill:url(#n);stroke-width:.298724px" transform="scale(.88576 1.12897)"/><path d="M8.143 10.308V6.086h1.02v3.373h1.207v.849z" aria-label="L" style="font-weight:800;font-size:5.64458px;line-height:6.61475px;font-family:'GenEi Gothic M';-inkscape-font-specification:'GenEi Gothic M, Ultra-Bold';letter-spacing:0;word-spacing:0;fill:#fff;stroke-width:.26459px" transform="matrix(-1 0 0 1.27462 18.144 -2.83)"/><path d="M.749.577s.314 2.085 1.64 2.786c1.13.597 1.249.77 2.99.904 1.838.141-1.262-.032-1.186.002.407.184.673.362 1.69.402.953.037 1.152-.088 1.152-.088s-.417.136-.936.158a9.422 9.422 0 0 1-1.098-.024s1.616.545 2.3.532c.612-.012.962-.111.962-.111L10.42 6.69l.431-.288L8.818 4.91s.606-.682.274-1.17c-.332-.488-.498-.621-.498-.621s.03.383.015.6c-.013.19-.18.553-.18.553S8.585 3 8.291 2.64a4.125 4.125 0 0 0-.527-.542s.275.274.133.799c-.128.47-.16.463-.16.463.018-.417-.163-.94-.788-1.416-.657-.5-1.906-.778-2.504-.667-.597.11-.53.133-.53.133s.63.355.564.666c-.067.31-.034.066-.034.066s.034-.133-.43-.421c-.465-.289-.366-.311-.366-.311s-1.692.2-2.057-.089C1.228 1.033.583.316.749.577Z" style="opacity:.927361;fill:url(#o);fill-opacity:1;fill-rule:evenodd;stroke:#6b6b6b;stroke-width:.0881528;stroke-linecap:round;stroke-linejoin:miter;stroke-dasharray:none;stroke-opacity:1"/></svg>